<svg width="129" height="71" viewBox="0 0 129 71" fill="none" xmlns="http://www.w3.org/2000/svg">
<g clip-path="url(#clip0_139_352)">
<path d="M87.4892 37.5322C80.883 36.7293 79.368 42.2057 72.111 43.7958C72.111 43.7958 63.0624 44.0307 64.5373 46.8081C64.9228 47.5312 66.0666 48.1021 66.9969 48.2843C65.0275 48.5548 63.5827 48.8395 63.5827 48.8395C53.0462 43.1979 50.7902 46.0763 50.7902 46.0763L63.9353 52.0781C63.9353 52.0781 81.0722 51.5086 81.4119 51.493C81.7516 51.4773 87.0119 43.857 87.0119 43.857L120.777 55.9815L123.132 47.5953C123.132 47.5953 89.4801 37.7742 87.4892 37.5322Z" fill="#819DA5"/>
<path d="M48.59 46.0919C50.1122 45.0185 54.18 44.4648 61.4155 49.9853C61.4155 49.9853 67.1488 49.1056 72.4206 51.6409C72.4206 51.6409 86.1018 38.5598 89.7396 38.3563C93.3774 38.1527 123.136 47.588 123.136 47.588L125.399 58.0768L115.584 60.1652L92.9588 47.9553C92.9588 47.9553 78.8548 57.3807 76.8682 58.6932C74.3054 60.3816 66.1913 54.9706 60.9396 54.0852C59.1465 53.7834 51.1714 49.0216 48.6545 47.4998C48.5357 47.4266 48.4367 47.3258 48.366 47.2061C48.2953 47.0864 48.255 46.9514 48.2486 46.8127C48.2423 46.6741 48.27 46.536 48.3295 46.4104C48.389 46.2848 48.4784 46.1755 48.59 46.0919Z" fill="#B5B8BA"/>
<path d="M94.2746 55.6967L99.7801 40.2013L125.738 47.7931L129 59.7838L114.695 62.6551L94.2746 55.6967Z" fill="white"/>
<path d="M94.2746 55.6968L102.43 40.9772L129 59.7838L114.695 62.6551L94.2746 55.6968Z" fill="#90AFAF"/>
<path d="M96.492 57.6896L102.673 40.2952L129 48.6984V62.6564V70.9999L96.492 57.6896Z" fill="#B5B7B9"/>
<path d="M101.857 55.9146C101.897 56.2349 101.814 56.5585 101.624 56.8206C101.434 57.0826 101.152 57.2639 100.834 57.3282C100.681 57.3599 100.524 57.3604 100.372 57.3295C100.22 57.2986 100.075 57.237 99.9478 57.1486C99.8203 57.0601 99.7124 56.9467 99.6308 56.8153C99.5492 56.6838 99.4956 56.5372 99.4733 56.3844C99.4336 56.0642 99.5169 55.741 99.7066 55.4793C99.8963 55.2175 100.178 55.0364 100.497 54.9722C100.649 54.9404 100.806 54.9399 100.958 54.9707C101.11 55.0015 101.255 55.063 101.382 55.1513C101.509 55.2396 101.617 55.3528 101.699 55.4841C101.781 55.6154 101.834 55.7619 101.857 55.9146Z" fill="#2A3C44"/>
<path d="M105.568 57.3125C105.608 57.6326 105.524 57.9558 105.335 58.2176C105.145 58.4794 104.863 58.6604 104.544 58.7247C104.392 58.7577 104.234 58.7592 104.081 58.729C103.928 58.6988 103.783 58.6376 103.655 58.5491C103.526 58.4607 103.418 58.347 103.336 58.215C103.254 58.0831 103.2 57.9358 103.178 57.7823C103.139 57.462 103.222 57.1386 103.412 56.8768C103.602 56.615 103.885 56.4341 104.203 56.3701C104.356 56.3373 104.513 56.336 104.666 56.3663C104.819 56.3966 104.964 56.4579 105.092 56.5463C105.22 56.6347 105.329 56.7484 105.41 56.8802C105.492 57.012 105.546 57.1592 105.568 57.3125Z" fill="#2A3C44"/>
<path d="M44.214 12.2398C44.214 12.2398 55.2105 15.7987 59.9248 10.271L66.1899 11.0297C66.1899 11.0297 69.832 20.2829 73.5357 19.1668C75.1281 18.6856 73.186 16.808 68.8401 8.641C68.8401 8.641 62.8488 4.27068 53.234 3.89343L44.214 12.2398Z" fill="#819DA5"/>
<path d="M0 25.5972L24.51 9.9167C25.0959 9.53655 25.6557 9.11805 26.1856 8.66397C27.3782 7.67186 28.7734 6.94865 30.2749 6.54429C37.3168 4.59686 55.1532 0.0186969 57.3648 -0.00408002C58.4556 -0.0140449 65.8975 7.95504 67.7594 10.2256C68.0858 10.6175 68.3054 11.0861 68.3972 11.5865C68.8272 14.045 70.1416 21.8362 69.5439 22.3771C68.8272 23.0263 65.6825 23.264 63.5239 12.1488L55.7423 9.31454L53.4146 12.8464C53.4146 12.8464 44.9135 20.8269 34.0503 16.0736L0 48.0211V25.5972Z" fill="#B5B8BA"/>
<path d="M25.3098 9.47668C25.3098 9.47668 28.6065 14.6228 33.7278 16.3767L31.2467 18.8807L24.3667 10.3664L25.3098 9.47668Z" fill="#819DA5"/>
<path d="M36.0541 24.4468L25.1779 9.37561L2.54131 24.6945L2.94407 41.437L16.0462 39.6903L36.0541 24.4468Z" fill="white"/>
<path d="M36.0541 24.4468L22.542 11.2134L1.2814 41.659L16.0462 39.6903L36.0541 24.4468Z" fill="#90AFAF"/>
<path d="M34.6049 27.3451L22.3958 10.4261L0 24.5137V53.3393L34.6049 27.3451Z" fill="#9FA0A2"/>
<path d="M29.2257 27.486C29.2506 27.6687 29.3294 27.84 29.4523 27.9782C29.5752 28.1164 29.7366 28.2153 29.916 28.2625C30.0955 28.3096 30.285 28.3028 30.4606 28.243C30.6362 28.1832 30.79 28.073 30.9026 27.9264C31.0152 27.7798 31.0814 27.6033 31.0931 27.4193C31.1047 27.2353 31.0611 27.052 30.9678 26.8926C30.8746 26.7332 30.7358 26.6048 30.5691 26.5237C30.4024 26.4426 30.2152 26.4124 30.0312 26.4369C29.9089 26.4532 29.7911 26.4932 29.6844 26.5548C29.5777 26.6163 29.4843 26.6982 29.4095 26.7956C29.3347 26.8931 29.2799 27.0042 29.2484 27.1227C29.2169 27.2411 29.2091 27.3646 29.2257 27.486Z" fill="#2A3C44"/>
<path d="M28.5486 29.7752C28.7936 29.3213 28.6218 28.7562 28.1649 28.5128C27.7079 28.2695 27.1388 28.4401 26.8938 28.8939C26.6488 29.3478 26.8206 29.913 27.2776 30.1563C27.7345 30.3997 28.3036 30.229 28.5486 29.7752Z" fill="#2A3C44"/>
<path d="M54.1499 12.9985L52.8599 11.1479C52.771 11.0668 52.7725 10.5998 53.1466 10.7564C53.9793 11.108 53.9062 12.2426 55.738 9.4624L54.1499 12.9985Z" fill="#819DA5"/>
<path d="M70.2707 25.1372C70.2864 24.3982 70.0748 23.672 69.6641 23.0556C69.2535 22.4391 68.6632 21.9618 67.9722 21.6873C67.2813 21.4127 66.5224 21.354 65.7969 21.5191C65.0715 21.6841 64.414 22.065 63.9122 22.6108C63.4104 23.1567 63.0882 23.8416 62.9886 24.5741C62.889 25.3066 63.0168 26.0519 63.3548 26.7104C63.6928 27.3689 64.225 27.9093 64.8804 28.2595C65.5358 28.6098 66.2832 28.7531 67.0227 28.6704" stroke="#DFEDED" stroke-width="3.07" stroke-miterlimit="10"/>
<path d="M63.1684 29.825L63.0939 31.0578C63.0065 32.4814 64.1331 33.7996 65.608 33.9918L66.5382 34.1128C68.0131 34.305 69.2787 33.3028 69.3662 31.8749L69.4407 30.6421C69.5267 29.2186 68.4015 27.9018 66.9252 27.7096L65.9692 27.1658C64.5 26.9736 63.2544 28.3972 63.1684 29.825ZM66.4809 28.2249C67.4498 28.3516 67.3753 29.5816 66.4063 29.4563C65.4374 29.331 65.5119 28.0982 66.4809 28.2249Z" fill="#102333"/>
<path d="M67.7178 31.156L67.3494 37.2431L68.1664 37.3328L67.9285 37.8111L67.2907 38.2197L67.2821 38.3621L68.0689 38.4147L67.8597 38.9301L67.2219 39.3386L67.2133 39.481L68.0002 39.5337L67.7923 40.049L67.3451 40.3351L67.133 40.8106L65.6036 42.0149L64.2993 40.4419L64.7207 33.4864L65.0418 32.9568L67.7178 31.156Z" fill="#819DA5"/>
<path d="M67.381 39.9606L67.358 40.3137L65.8287 41.518L64.5258 39.945L64.7336 36.5028L64.7852 35.6501L65.1106 30.2904L67.9428 30.6591L67.6447 35.5889L67.5931 36.4402L67.5759 36.7462L68.1535 37.3142L67.5143 37.7228L67.5071 37.8652L68.0848 38.4332L67.4469 38.8432L67.4383 38.9841L68.0174 39.5521L67.381 39.9606Z" fill="#C8D6D6"/>
<path d="M67.5931 36.4545C66.6376 36.6301 65.6844 36.7952 64.7337 36.9499L64.7853 36.0958C65.7408 35.9392 66.6964 35.7745 67.6519 35.6018L67.5931 36.4545Z" fill="#D4E8E7"/>
<path d="M65.6925 40.654L65.1665 39.7215L65.7169 30.625L66.2945 30.7004L65.6925 40.654Z" fill="#819DA5"/>
<path d="M69.7073 31.3083L69.7819 30.0769C69.8693 28.6533 68.7427 27.3366 67.2678 27.1429L66.3376 27.0205C64.9128 26.8355 63.6816 27.765 63.5225 29.1188C63.5167 29.1644 63.5124 29.2119 63.5096 29.2612L63.435 30.4926C63.399 31.185 63.6308 31.8648 64.0829 32.393C64.551 32.9581 65.2164 33.3271 65.9463 33.4265L66.8765 33.5475C68.3543 33.7383 69.6199 32.7361 69.7073 31.3083ZM66.7188 29.3665C65.7485 29.2413 65.8373 27.7864 66.8063 27.9131C67.7752 28.0398 67.6878 29.4932 66.7188 29.3665Z" fill="#1F3242"/>
<path d="M66.7331 29.5418C66.849 29.5607 66.9676 29.5553 67.0813 29.5259C67.195 29.4964 67.3012 29.4437 67.393 29.371C67.4849 29.2982 67.5604 29.2072 67.6146 29.1037C67.6688 29.0003 67.7006 28.8866 67.7078 28.7702C67.7142 28.5262 67.6302 28.2883 67.4716 28.1017C67.3131 27.9151 67.0911 27.7928 66.8478 27.7581" stroke="#102333" stroke-width="2.9" stroke-miterlimit="10"/>
<path d="M64.3696 32.7831C64.8323 33.1315 65.3789 33.3534 65.9548 33.4265L66.8836 33.5475C67.4045 33.6216 67.9357 33.5588 68.4245 33.3653" stroke="#102333" stroke-width="1.18" stroke-miterlimit="10"/>
<path d="M66.8421 27.758C66.7261 27.7391 66.6075 27.7445 66.4937 27.7739C66.38 27.8033 66.2737 27.8561 66.1817 27.9287C66.0898 28.0014 66.0142 28.0925 65.9598 28.1959C65.9054 28.2994 65.8735 28.4131 65.866 28.5296C65.8599 28.7747 65.9449 29.0135 66.1049 29.2002C66.2649 29.3869 66.4886 29.5085 66.7332 29.5417" stroke="#102333" stroke-width="2.9" stroke-miterlimit="10"/>
<path d="M66.1182 30.04L66.3777 31.2471C66.6801 32.6465 68.1192 33.6117 69.5912 33.4053L70.52 33.2743C71.9935 33.0664 73.2605 31.6685 72.9395 29.9602L72.3805 29.1588C72.078 27.7594 70.6404 26.7942 69.1669 27.0021L68.0977 26.733C66.6242 26.9409 65.8158 28.642 66.1182 30.04ZM68.8774 27.6199C69.8449 27.4776 70.1043 28.689 69.1368 28.8257C68.1693 28.9623 67.9085 27.7537 68.8774 27.6171V27.6199Z" fill="#102333"/>
<path d="M70.9557 30.0172L72.2414 35.9805L73.0527 35.8495L72.9524 36.372L72.4478 36.9371L72.4779 37.0752L73.2505 36.9172L73.1889 37.4681L72.6858 38.0333L72.7144 38.1713L73.487 38.0133L73.4254 38.5642L73.0728 38.96L72.9954 39.4739L71.8473 41.0412L70.166 39.8725L68.6968 33.0594L68.8616 32.4643L70.9557 30.0172Z" fill="#819DA5"/>
<path d="M73.0054 38.5899L73.0785 38.9358L71.9304 40.5031L70.2491 39.3344L69.5224 35.962L69.3418 35.1278L68.2095 29.8777L71.0389 29.4777L72.0809 34.3078L72.2601 35.1406L72.326 35.441L73.0355 35.8339L72.531 36.3976L72.5611 36.5371L73.272 36.93L72.7675 37.4951L72.7976 37.6332L73.5085 38.0276L73.0054 38.5899Z" fill="#C8D6D6"/>
<path d="M72.2601 35.1405C71.3485 35.4252 70.4359 35.699 69.5224 35.9619L69.3418 35.1277C70.2563 34.861 71.1693 34.5877 72.0809 34.3077L72.2601 35.1405Z" fill="#D4E8E7"/>
<path d="M71.5649 39.7074L70.8067 38.9486L68.8846 30.0385L69.4622 29.9574L71.5649 39.7074Z" fill="#819DA5"/>
<path d="M72.9122 29.6342L72.6528 28.427C72.3503 27.0291 70.9127 26.0639 69.4378 26.2704L68.5105 26.3999C67.0872 26.6006 66.1512 27.8235 66.3605 29.1701C66.3676 29.2157 66.3762 29.2627 66.3863 29.3125L66.6471 30.5197C66.7993 31.1962 67.2059 31.7894 67.7838 32.1781C68.3883 32.5978 69.1299 32.7757 69.8607 32.6764L70.7894 32.5468C72.2643 32.3361 73.2146 31.0336 72.9122 29.6342ZM69.713 28.4726C68.8201 28.8684 68.1292 27.5829 69.0222 27.1914C69.9151 26.7999 70.606 28.0769 69.713 28.4726Z" fill="#2B4454"/>
<path d="M69.5711 28.7232C69.6873 28.7105 69.7994 28.6739 69.9005 28.6157C70.0016 28.5575 70.0893 28.479 70.1581 28.3852C70.2269 28.2915 70.2753 28.1845 70.3001 28.0711C70.3249 27.9577 70.3256 27.8404 70.3022 27.7267C70.2437 27.488 70.0978 27.2795 69.893 27.1419C69.6881 27.0042 69.439 26.9473 69.1942 26.9822" stroke="#102333" stroke-width="2.9" stroke-miterlimit="10"/>
<path d="M68.1693 32.4685C68.7086 32.6816 69.2948 32.7503 69.8693 32.6678L70.7966 32.5369C71.3175 32.4689 71.8115 32.2673 72.23 31.9518" stroke="#102333" stroke-width="1.18" stroke-miterlimit="10"/>
<path d="M68.4001 28.0726C69.5238 27.7708 70.2434 26.1707 70.2706 25.1372" stroke="#DFEDED" stroke-width="3.07" stroke-miterlimit="10"/>
<path d="M69.1942 26.9764C69.0773 26.989 68.9644 27.0258 68.8627 27.0844C68.7611 27.1431 68.673 27.2223 68.6041 27.3169C68.5352 27.4115 68.487 27.5194 68.4628 27.6336C68.4385 27.7478 68.4386 27.8659 68.4632 27.98C68.5237 28.2175 68.67 28.4245 68.8744 28.5616C69.0788 28.6986 69.3268 28.7562 69.5711 28.7231" stroke="#102333" stroke-width="2.9" stroke-miterlimit="10"/>
<path d="M31.9633 15.6292C31.9633 15.6292 38.366 17.9539 45.9254 18.3055C50.1575 18.5124 54.3136 19.5016 58.1804 21.2224L60.8278 22.3997C64.2535 23.9328 66.4178 26.8511 67.8755 24.3172C69.3332 21.7833 64.0872 18.3141 59.5693 16.6869C55.0515 15.0598 52.5575 8.01318 52.5575 8.01318L31.9633 15.6292Z" fill="#B5B8BA"/>
</g>
<defs>
<clipPath id="clip0_139_352">
<rect width="129" height="71" fill="white"/>
</clipPath>
</defs>
</svg>
