<svg width="75" height="93" viewBox="0 0 75 93" fill="none" xmlns="http://www.w3.org/2000/svg">
<path d="M71.4466 11.8696L12.3867 8.42613C11.0263 8.35904 9.80164 9.85523 9.80164 11.1114V87.7631C9.80164 89.5055 11.5672 89.8559 12.9276 89.7172L71.4466 83.692C72.5156 83.5819 73.3783 82.5961 73.3783 81.4894V13.9683C73.3783 12.8619 72.5156 11.9223 71.4466 11.8696Z" fill="url(#paint0_linear_139_212)"/>
<path d="M72.4179 11.2609L13.241 8.32582C11.881 8.2584 10.7729 9.22959 10.7729 10.4959V87.7471C10.7729 89.0134 11.881 89.9246 13.241 89.7836L72.4179 83.6448C73.4868 83.5337 74.3496 82.5401 74.3496 81.4249V13.3759C74.3496 12.2607 73.4868 11.314 72.4179 11.2609Z" fill="#7B7B7B"/>
<path style="mix-blend-mode:multiply" opacity="0.3" d="M13.2411 88.7371C12.5072 88.812 11.9091 88.3176 11.9091 87.6357V10.5483C11.9091 9.86434 12.5072 9.33934 13.2411 9.37581L72.4183 12.1917C72.996 12.2194 73.4652 12.7323 73.4652 13.3358V81.5128C73.4652 82.1163 72.996 82.655 72.4183 82.7136L13.2411 88.7371Z" fill="url(#paint1_linear_139_212)"/>
<path d="M68.6039 80.8854L17.9895 85.8007V14.6819L68.6039 16.6031V80.8854Z" fill="#9FA0A2"/>
<g style="mix-blend-mode:multiply" opacity="0.3">
<path d="M48.3596 16.9516L28.1316 17.2066L28.584 12.6086C28.6182 12.0113 29.0467 11.5208 29.6109 11.4332L33.0361 10.9027C33.2373 10.8699 33.4274 10.7873 33.5891 10.6623C33.7509 10.5372 33.8793 10.3736 33.9628 10.1862L34.3344 9.37195L43.2949 9.92985L48.3596 16.9516Z" fill="#97A6B7"/>
</g>
<path d="M59.1618 13.9687C59.0649 13.4476 58.6522 13.0831 58.1313 13.0597L54.9 12.9138C53.4327 12.8486 52.3573 11.6462 52.4119 10.1246L52.5351 6.59973C52.558 5.94836 52.0959 5.42498 51.461 5.38688L50.3992 5.32174C49.5894 5.27289 49.0501 4.55345 49.1638 3.72133C49.3622 2.26747 48.3738 1.01261 46.9414 0.914248C45.4976 0.816543 44.1502 1.9268 43.9363 3.39922C43.9049 3.62193 43.8284 3.83577 43.7117 4.02747C43.3782 4.56681 42.7937 4.86383 42.2211 4.82931L41.1257 4.76417C40.462 4.72444 39.8312 5.19375 39.6629 5.85456L38.7513 9.43319C38.3571 10.9812 36.8713 12.0996 35.2938 12.0282L31.7481 11.868C31.1665 11.842 30.5974 12.1829 30.3302 12.718L28.1937 16.991C28.0185 17.3408 28.2341 17.7189 28.6138 17.7316L59.3618 18.7611C59.6985 18.7725 59.9839 18.4354 59.9218 18.098L59.1618 13.9687ZM46.5055 3.96624C46.0818 3.93986 45.7881 3.56858 45.8495 3.13737C45.9109 2.70617 46.3048 2.37918 46.7281 2.40686C47.1514 2.43455 47.4432 2.8055 47.3818 3.23541C47.3204 3.66531 46.9294 3.99425 46.5055 3.96624Z" fill="url(#paint2_linear_139_212)"/>
<path d="M59.344 14.0641C59.247 13.543 58.8347 13.1789 58.3135 13.1551L55.0822 13.0092C53.6152 12.9441 52.5398 11.7416 52.5941 10.22L52.7188 6.69418C52.742 6.04281 52.28 5.51976 51.645 5.48133L50.5829 5.4162C49.7731 5.36734 49.2341 4.64791 49.3475 3.81611C49.5463 2.36193 48.5578 1.1074 47.1254 1.00904C45.6816 0.909706 44.3341 2.02127 44.1202 3.49401C44.0884 3.71675 44.0114 3.93049 43.894 4.12193C43.5602 4.66126 42.9757 4.95828 42.4034 4.92376L41.3077 4.85863C40.644 4.81857 40.0132 5.2882 39.8452 5.94869L38.9343 9.52796C38.5404 11.0756 37.0546 12.1943 35.4767 12.123L31.931 11.9628C31.3494 11.9364 30.7803 12.2777 30.5128 12.8125L28.3752 17.0868C28.2004 17.4369 28.416 17.815 28.7973 17.8277L59.5456 18.8572C59.882 18.8683 60.1676 18.5315 60.1056 18.1941L59.344 14.0641ZM46.6878 4.06168C46.2642 4.0353 45.9701 3.66434 46.0319 3.23314C46.0936 2.80193 46.4872 2.47462 46.9105 2.5023C47.3338 2.52999 47.6252 2.90127 47.5638 3.33117C47.5024 3.76107 47.1105 4.08838 46.6878 4.06168Z" fill="#575757"/>
<g style="mix-blend-mode:soft-light" opacity="0.5">
<path d="M54.0817 16.0276C51.339 14.321 49.2347 15.5313 47.525 13.6065C45.6951 11.5459 46.9295 8.83326 45.0369 7.55332C43.8248 6.7339 42.7427 7.45562 41.3335 7.2348C40.8165 7.15338 40.2671 6.94657 39.6939 6.5437L38.9342 9.5286C38.5403 11.0762 37.0546 12.1946 35.4767 12.1236L31.931 11.9634C31.3493 11.937 30.7803 12.2784 30.5128 12.8131L28.3752 17.0868C28.2004 17.4369 28.416 17.815 28.7972 17.8277L56.7411 18.763C56.0373 17.6359 55.1629 16.7002 54.0817 16.0276Z" fill="#5C5C5C"/>
</g>
<path d="M54.3243 25.8508L35.3862 25.6414V23.3512L54.3243 23.6453V25.8508Z" fill="#97A6B7"/>
<path d="M35.2363 50.5601L32.9165 50.6467V30.0327L35.2363 30.0383V50.5601Z" fill="#7B7B7B"/>
<path d="M39.6626 50.3945L37.3826 50.4799V36.4354L39.6626 36.4126V50.3945Z" fill="#7B7B7B"/>
<path d="M44.0132 50.2316L41.772 50.3157V32.7229L44.0132 32.7167V50.2316Z" fill="#7B7B7B"/>
<path d="M48.29 50.0719L46.087 50.1543V36.2656L48.29 36.2441V50.0719Z" fill="#7B7B7B"/>
<path d="M52.4952 49.9142L50.3291 49.9953V39.9948L52.4952 39.957V49.9142Z" fill="#7B7B7B"/>
<path d="M56.6307 49.7594L54.5004 49.8392V30.0865L56.6307 30.0921V49.7594Z" fill="#7B7B7B"/>
<path d="M60.6975 49.6073L58.6023 49.6858V43.801L60.6975 43.7476V49.6073Z" fill="#7B7B7B"/>
<path d="M64.6979 49.4575L62.6367 49.5347V33.9445L64.6979 33.9335V49.4575Z" fill="#7B7B7B"/>
<path d="M64.6979 57.8406L24.2081 60.0562V57.9034L64.6979 55.8539V57.8406Z" fill="#7B7B7B"/>
<path d="M64.6979 54.0399L24.2081 55.9379V53.7852L64.6979 52.053V54.0399Z" fill="#7B7B7B"/>
<path d="M64.6979 73.2164L24.2081 76.7169V74.5641L64.6979 71.2297V73.2164Z" fill="#7B7B7B"/>
<path opacity="0.5" d="M39.7346 62.1436V70.3182L23.7046 71.5451V63.1131L39.7346 62.1436Z" fill="#7B7B7B"/>
<path d="M23.7046 68.0359V71.5455L39.7346 70.3186V63.9852C38.8186 63.6921 37.717 63.5673 36.8759 64.1747C35.1132 65.4492 35.3381 66.1058 33.4998 65.8934C32.0602 65.7267 30.4587 65.5905 29.2234 66.6445C28.4579 67.2959 28.064 67.9694 26.9615 67.9473C25.9216 67.9284 24.7108 67.2747 23.7046 68.0359Z" fill="#7B7B7B"/>
<path d="M64.6978 62.1022L43.4972 63.4484V61.9159L64.6978 60.6338V62.1022Z" fill="#7B7B7B"/>
<path d="M64.6978 65.212L43.4972 66.6944V65.252L64.6978 63.8298V65.212Z" fill="#7B7B7B"/>
<path d="M64.6978 68.4081L43.4972 70.0303V68.4977L64.6978 66.9396V68.4081Z" fill="#7B7B7B"/>
<path d="M29.1408 31.875L24.1054 31.8796V29.9203L29.1408 29.9343V31.875Z" fill="#7B7B7B"/>
<path d="M29.1408 36.6692L24.1054 36.7203V34.761L29.1408 34.7288V36.6692Z" fill="#7B7B7B"/>
<path d="M29.1408 41.3492L24.1054 41.4456V39.4863L29.1408 39.4084V41.3492Z" fill="#7B7B7B"/>
<path d="M29.1408 46.1434L24.1054 46.286V44.3267L29.1408 44.2026V46.1434Z" fill="#7B7B7B"/>
<path d="M29.1408 50.8231L24.1054 51.0113V49.0525L29.1408 48.8828V50.8231Z" fill="#7B7B7B"/>
<path d="M30.5987 54.403L30.5037 86.7607C30.4992 88.3472 29.2264 89.7896 27.6311 89.955L4.16075 92.3765C2.35283 92.5631 0.873535 91.3034 0.873535 89.5965V54.7684C0.873535 53.1517 2.18609 51.8181 3.85151 51.6565C3.95782 51.6461 4.06607 51.6425 4.17465 51.6419L27.7325 51.5289C28.1089 51.5246 28.4823 51.596 28.831 51.7387C29.1797 51.8815 29.4967 52.0928 29.7635 52.3603C30.0303 52.6279 30.2415 52.9463 30.3849 53.297C30.5283 53.6477 30.601 54.0237 30.5987 54.403Z" fill="url(#paint3_linear_139_212)"/>
<path d="M32.2625 54.3793L32.1656 86.6371C32.1607 88.2187 30.9616 89.6504 29.3769 89.8139L6.06689 92.2187C4.2719 92.404 2.72862 91.156 2.72894 89.4543L2.73379 54.7414C2.73379 53.1303 4.07414 51.8008 5.72825 51.6396C5.83391 51.6295 5.97803 51.6256 6.08596 51.6253L29.4833 51.5126C31.0721 51.5051 32.2674 52.7867 32.2625 54.3793Z" fill="url(#paint4_linear_139_212)"/>
<g style="mix-blend-mode:multiply" opacity="0.3">
<path style="mix-blend-mode:multiply" opacity="0.3" d="M32.2628 54.3337L32.2379 62.4407L2.7312 63.4177V54.6919C2.7312 53.1192 4.01048 51.8389 5.60707 51.6285C5.74989 51.6093 5.93343 51.6256 6.08175 51.6249L29.479 51.5122C31.0721 51.5051 32.2677 52.7411 32.2628 54.3337Z" fill="url(#paint5_linear_139_212)"/>
<path style="mix-blend-mode:multiply" opacity="0.3" d="M32.2456 59.9491L32.2353 63.3179C29.3727 64.2298 24.104 64.9684 18.0586 65.2032C15.3885 65.3071 12.8077 65.3035 10.4747 65.2062C7.36845 65.0759 4.74527 64.7805 2.7312 64.3617V60.7363C3.48927 60.5483 4.18529 60.3738 5.0125 60.2093C6.80911 59.8511 8.97214 59.5505 11.3358 59.33C13.4475 59.1313 15.7395 58.9971 18.1032 58.9421C21.1451 58.8714 23.9696 58.9421 26.397 59.1199C26.5857 59.1336 26.774 59.1486 26.9579 59.1636C27.5395 59.2114 28.0963 59.2658 28.6262 59.3264C28.8136 59.3476 28.9985 59.3697 29.1794 59.3915C29.595 59.4443 29.952 59.5016 30.3304 59.5622C31.0559 59.6781 31.6989 59.8074 32.2456 59.9491Z" fill="url(#paint6_linear_139_212)"/>
</g>
<path d="M30.8181 60.7284C30.8151 60.9626 30.7228 61.1866 30.5604 61.3541C30.3979 61.5215 30.1778 61.6196 29.9456 61.6279L5.73021 62.3747C5.18735 62.3913 4.74595 61.9881 4.74628 61.4739L4.74822 55.6441C4.74822 55.1292 5.19026 54.7061 5.73376 54.6996L29.9686 54.4026C30.082 54.4007 30.1947 54.4217 30.3 54.4643C30.4053 54.5069 30.5011 54.5703 30.5818 54.6507C30.6625 54.7311 30.7264 54.827 30.7699 54.9326C30.8134 55.0383 30.8354 55.1516 30.8349 55.266L30.8181 60.7284Z" fill="white"/>
<path d="M30.2675 60.6222C30.2659 60.7703 30.2077 60.912 30.105 61.0179C30.0023 61.1238 29.8631 61.1856 29.7162 61.1905L5.61839 61.907C5.27555 61.9171 4.99701 61.6625 4.99701 61.3377L4.99927 55.5355C4.99927 55.2098 5.27813 54.943 5.6213 54.9388L29.7347 54.6297C29.8065 54.6283 29.8779 54.6414 29.9446 54.6683C30.0114 54.6951 30.0721 54.7351 30.1233 54.7859C30.1745 54.8367 30.2151 54.8974 30.2426 54.9642C30.2702 55.0311 30.2843 55.1028 30.284 55.1753L30.2675 60.6222Z" fill="url(#paint7_linear_139_212)"/>
<path opacity="0.3" d="M26.9367 57.3897C26.9367 57.5411 26.813 57.6401 26.6614 57.6427H26.6485C26.4969 57.6453 26.3737 57.5522 26.3744 57.4011L26.377 56.2765C26.3783 56.2041 26.4081 56.1352 26.4598 56.0849C26.5115 56.0346 26.5808 56.007 26.6527 56.0082H26.6656C26.7008 56.006 26.7361 56.0112 26.7693 56.0233C26.8025 56.0354 26.8328 56.0543 26.8585 56.0787C26.8842 56.1031 26.9046 56.1326 26.9186 56.1652C26.9326 56.1979 26.9397 56.2331 26.9397 56.2687L26.9367 57.3897Z" fill="url(#paint8_linear_139_212)"/>
<path opacity="0.3" d="M29.1698 57.3502C29.1698 57.5003 29.0474 57.6036 28.8974 57.6058H28.8848C28.7349 57.6085 28.6134 57.5114 28.6137 57.3606L28.6169 56.2396C28.6178 56.1674 28.6469 56.0985 28.6979 56.0479C28.7489 55.9973 28.8177 55.969 28.8894 55.9693H28.902C28.9369 55.9676 28.9719 55.9731 29.0047 55.9854C29.0375 55.9978 29.0674 56.0167 29.0927 56.0411C29.1181 56.0654 29.1382 56.0947 29.152 56.1272C29.1657 56.1596 29.1728 56.1946 29.1728 56.2298L29.1698 57.3502Z" fill="url(#paint9_linear_139_212)"/>
<g opacity="0.3">
<path opacity="0.3" d="M26.9303 59.9054C26.9303 60.0566 26.8068 60.209 26.6553 60.2113H26.6423C26.4908 60.2135 26.368 60.0709 26.3683 59.9182L26.3709 58.761C26.3709 58.6099 26.495 58.4604 26.6465 58.4582H26.6595C26.811 58.4559 26.9335 58.5972 26.9332 58.7487L26.9303 59.9054Z" fill="url(#paint10_linear_139_212)"/>
<path opacity="0.3" d="M29.163 59.8603C29.163 60.0104 29.0409 60.0583 28.8909 60.1775H28.8783C28.7281 60.1798 28.6069 60.0248 28.6072 59.8743L28.6101 58.6662C28.6101 58.5157 28.7326 58.3079 28.8829 58.3079H28.8955C29.0454 58.3053 29.1666 58.5033 29.1659 58.6541L29.163 59.8603Z" fill="url(#paint11_linear_139_212)"/>
</g>
<g opacity="0.3">
<path opacity="0.3" d="M28.5686 55.596C28.5686 55.7464 28.4716 55.8715 28.3207 55.8738L27.2721 55.892C27.1206 55.8943 27.0808 55.7735 27.0808 55.6223V55.6096C27.0808 55.4585 27.1345 55.3344 27.286 55.3322L28.3572 55.3152C28.5075 55.3129 28.5686 55.4328 28.5686 55.5833V55.596Z" fill="url(#paint12_linear_139_212)"/>
<path opacity="0.3" d="M28.5686 60.3919C28.5686 60.5423 28.4649 60.6687 28.3143 60.6729L27.212 60.7055C27.0605 60.7097 26.9664 60.5905 26.9664 60.4394V60.4267C26.9664 60.2756 27.0711 60.1509 27.2227 60.1467L28.3253 60.1141C28.4755 60.1102 28.5686 60.2281 28.5686 60.3785V60.3919Z" fill="url(#paint13_linear_139_212)"/>
</g>
<g style="mix-blend-mode:multiply">
<path style="mix-blend-mode:multiply" d="M10.4256 69.3043C10.4256 69.6456 10.1348 69.9368 9.7774 69.9557L5.40704 70.1732C5.04093 70.1914 4.74365 69.9257 4.74365 69.5795V67.9986C4.74365 67.6521 5.04126 67.3587 5.40769 67.343L9.77901 67.1558C10.137 67.1405 10.4253 67.4049 10.4253 67.7466L10.4256 69.3043Z" fill="url(#paint14_linear_139_212)"/>
<path style="mix-blend-mode:multiply" d="M17.4886 68.9642C17.4886 69.3 17.2078 69.5856 16.862 69.6029L12.6429 69.8126C12.2894 69.8302 12.0025 69.5687 12.0031 69.2283V67.675C12.0031 67.3347 12.2907 67.0468 12.6445 67.0315L16.8646 66.8507C17.2104 66.836 17.4899 67.0963 17.4892 67.4317L17.4886 68.9642Z" fill="url(#paint15_linear_139_212)"/>
<path style="mix-blend-mode:multiply" d="M24.0841 68.6465C24.0841 68.9764 23.812 69.2575 23.4779 69.2741L19.3971 69.477C19.0552 69.4939 18.7783 69.2366 18.7786 68.9022L18.7815 67.3747C18.7815 67.0399 19.0601 66.7559 19.4019 66.7422L23.4837 66.5673C23.5612 66.5624 23.6389 66.5735 23.712 66.6C23.785 66.6265 23.8519 66.6678 23.9085 66.7214C23.9651 66.775 24.0102 66.8398 24.041 66.9116C24.0718 66.9835 24.0877 67.0609 24.0876 67.1392L24.0841 68.6465Z" fill="url(#paint16_linear_139_212)"/>
<path style="mix-blend-mode:multiply" d="M30.6858 68.3286C30.6835 68.487 30.6217 68.6387 30.5129 68.7531C30.4041 68.8675 30.2563 68.9361 30.0993 68.9451L26.1549 69.1405C26.0782 69.1458 26.0012 69.1351 25.9288 69.109C25.8563 69.0829 25.79 69.0421 25.734 68.989C25.6779 68.9359 25.6333 68.8717 25.603 68.8004C25.5727 68.7291 25.5573 68.6523 25.5578 68.5748L25.5614 67.0734C25.5642 66.9123 25.6279 66.7584 25.7394 66.643C25.8508 66.5276 26.0018 66.4593 26.1614 66.452L30.1068 66.283C30.1822 66.279 30.2577 66.2907 30.3284 66.3173C30.3992 66.3439 30.4639 66.3848 30.5183 66.4376C30.5728 66.4903 30.616 66.5537 30.6453 66.6239C30.6745 66.6941 30.6892 66.7696 30.6884 66.8458L30.6858 68.3286Z" fill="url(#paint17_linear_139_212)"/>
<path style="mix-blend-mode:multiply" d="M10.4211 74.3095C10.4211 74.6505 10.1303 74.9449 9.77481 74.9671L5.40672 75.2377C5.04061 75.2605 4.74365 74.9983 4.74365 74.6515V73.0718C4.74365 72.7259 5.04126 72.4289 5.40737 72.409L9.77642 72.168C10.1341 72.1485 10.4227 72.409 10.4227 72.7504L10.4211 74.3095Z" fill="url(#paint18_linear_139_212)"/>
<path style="mix-blend-mode:multiply" d="M17.4805 73.8837C17.4805 74.2192 17.2001 74.5081 16.8546 74.5296L12.6374 74.7901C12.2839 74.8119 11.9973 74.5543 11.9976 74.2146V72.6628C11.9976 72.3228 12.2852 72.0317 12.6387 72.0115L16.8572 71.7789C17.2026 71.76 17.4818 72.0163 17.4815 72.3518L17.4805 73.8837Z" fill="url(#paint19_linear_139_212)"/>
<path style="mix-blend-mode:multiply" d="M24.0727 73.4855C24.0727 73.8154 23.8009 74.0994 23.4668 74.1199L19.388 74.3726C19.0464 74.3938 18.7692 74.1401 18.7698 73.806L18.7724 72.2801C18.7724 71.9456 19.051 71.6593 19.3928 71.6408L23.4726 71.4157C23.8071 71.3975 24.0769 71.6499 24.0762 71.9798L24.0727 73.4855Z" fill="url(#paint20_linear_139_212)"/>
<path style="mix-blend-mode:multiply" d="M30.6719 73.0869C30.6692 73.2459 30.6075 73.398 30.499 73.5134C30.3905 73.6288 30.2431 73.699 30.0858 73.7103L26.1437 73.9546C26.0673 73.9613 25.9904 73.9518 25.9178 73.9267C25.8453 73.9016 25.7788 73.8615 25.7226 73.8089C25.6664 73.7564 25.6217 73.6926 25.5914 73.6216C25.5612 73.5505 25.546 73.4739 25.5468 73.3967L25.5504 71.8965C25.5537 71.735 25.6173 71.5806 25.7284 71.4643C25.8396 71.3479 25.9901 71.278 26.1501 71.2685L30.0923 71.0513C30.1672 71.0462 30.2424 71.0568 30.3131 71.0824C30.3838 71.108 30.4485 71.1481 30.5031 71.2C30.5577 71.252 30.6011 71.3148 30.6305 71.3845C30.6598 71.4542 30.6746 71.5293 30.6739 71.605L30.6719 73.0869Z" fill="url(#paint21_linear_139_212)"/>
<path style="mix-blend-mode:multiply" d="M10.4156 79.1948C10.4156 79.5358 10.1247 79.8332 9.76929 79.8596L5.40347 80.1823C5.03768 80.2094 4.74072 79.9514 4.74072 79.6059V78.0278C4.74072 77.6823 5.038 77.382 5.40379 77.3576L9.77091 77.0644C10.1286 77.0403 10.4172 77.2973 10.4172 77.6383L10.4156 79.1948Z" fill="url(#paint22_linear_139_212)"/>
<path style="mix-blend-mode:multiply" d="M17.4731 78.6847C17.4731 79.0195 17.1926 79.3116 16.8472 79.336L12.6319 79.6474C12.2787 79.6734 11.9921 79.4194 11.9924 79.08L11.9944 77.5298C11.9944 77.1901 12.2816 76.8957 12.6348 76.8719L16.8514 76.5892C17.1968 76.5661 17.476 76.8188 17.4754 77.154L17.4731 78.6847Z" fill="url(#paint23_linear_139_212)"/>
<path style="mix-blend-mode:multiply" d="M24.0624 78.2076C24.0624 78.5372 23.7906 78.8242 23.4565 78.8489L19.3796 79.1502C19.0381 79.1753 18.7611 78.9255 18.7618 78.5916L18.7644 77.067C18.7644 76.7329 19.0426 76.4437 19.3844 76.4205L23.4623 76.1473C23.7964 76.1248 24.0663 76.3753 24.0656 76.7032L24.0624 78.2076Z" fill="url(#paint24_linear_139_212)"/>
<path style="mix-blend-mode:multiply" d="M30.6588 77.7291C30.6556 77.8885 30.5939 78.0411 30.4857 78.1575C30.3774 78.2738 30.2303 78.3456 30.0726 78.359L26.1304 78.6501C25.8005 78.6746 25.5333 78.4283 25.5339 78.1001L25.5375 76.6019C25.5375 76.2736 25.807 75.9896 26.1372 75.9675L30.0794 75.703C30.1541 75.6968 30.2293 75.7063 30.3001 75.7311C30.3709 75.7559 30.4358 75.7953 30.4906 75.8469C30.5454 75.8984 30.5889 75.961 30.6182 76.0305C30.6476 76.1 30.6622 76.175 30.661 76.2505L30.6588 77.7291Z" fill="url(#paint25_linear_139_212)"/>
<path style="mix-blend-mode:multiply" d="M10.4123 83.9594C10.4123 84.3001 10.1215 84.6007 9.76609 84.6313L5.40381 85.0045C5.03803 85.0371 4.74139 84.7814 4.74139 84.4362V82.8599C4.74139 82.5147 5.03835 82.2115 5.40413 82.1828L9.76932 81.8389C10.1267 81.8109 10.4156 82.0643 10.4156 82.4046L10.4123 83.9594Z" fill="url(#paint26_linear_139_212)"/>
<path style="mix-blend-mode:multiply" d="M17.4653 83.3668C17.4653 83.7013 17.1852 83.9967 16.8401 84.026L12.6264 84.3865C12.2736 84.4168 11.9873 84.1664 11.9876 83.8273L11.9892 82.2784C11.9892 81.9393 12.2765 81.6416 12.6297 81.6136L16.8459 81.2821C17.191 81.2547 17.4702 81.5042 17.4695 81.8387L17.4653 83.3668Z" fill="url(#paint27_linear_139_212)"/>
<path style="mix-blend-mode:multiply" d="M24.0517 82.813C24.0517 83.1422 23.7799 83.4318 23.4461 83.4607L19.3709 83.8092C19.0293 83.8385 18.7527 83.592 18.7534 83.2585L18.7559 81.7353C18.7559 81.4019 19.0342 81.1094 19.3757 81.0824L23.452 80.7616C23.7861 80.7352 24.0556 80.9808 24.0549 81.31L24.0517 82.813Z" fill="url(#paint28_linear_139_212)"/>
<path style="mix-blend-mode:multiply" d="M10.4078 89.0671C10.4078 89.4075 10.117 89.7113 9.76157 89.7465L5.39928 90.1741C5.03349 90.2099 4.73686 89.9595 4.73718 89.6149V88.0403C4.73718 87.6954 5.03446 87.389 5.39993 87.3564L9.76222 86.9584C10.1196 86.9259 10.4085 87.1753 10.4085 87.5153L10.4078 89.0671Z" fill="url(#paint29_linear_139_212)"/>
<path style="mix-blend-mode:multiply" d="M17.4576 88.3865C17.4576 88.7209 17.1774 89.0192 16.8323 89.0528L12.6209 89.4661C12.2681 89.5006 11.9818 89.2541 11.9821 88.9154V87.3681C11.9821 87.0291 12.2694 86.7281 12.6226 86.6959L16.8349 86.3116C17.18 86.279 17.4589 86.5259 17.4582 86.86L17.4576 88.3865Z" fill="url(#paint30_linear_139_212)"/>
<path style="mix-blend-mode:multiply" d="M24.0407 87.7507C24.0407 88.0797 23.7693 88.3728 23.4355 88.4054L19.3621 88.805C19.0209 88.8375 18.7443 88.5956 18.7449 88.2624L18.7475 86.7408C18.7475 86.4073 19.0257 86.1119 19.367 86.0806L23.4416 85.709C23.7754 85.6784 24.0449 85.9204 24.0442 86.2493L24.0407 87.7507Z" fill="url(#paint31_linear_139_212)"/>
<path style="mix-blend-mode:multiply" d="M30.0474 80.2425L26.1052 80.5525C25.7753 80.5786 25.5268 80.9544 25.5259 81.2824L25.5239 82.1259V82.83L25.5162 86.0096L25.5142 86.945V87.556C25.5142 87.8836 25.7601 88.1777 26.09 88.1451L30.0261 87.7602C30.3492 87.7276 30.6307 87.3866 30.6317 87.0636V86.4604L30.6346 85.5371L30.6436 82.3988L30.6455 81.7035L30.6478 80.871C30.6504 80.5463 30.3702 80.2171 30.0474 80.2425Z" fill="url(#paint32_linear_139_212)"/>
</g>
<path d="M10.669 69.2939C10.669 69.6349 10.3782 69.9261 10.0227 69.9437L5.65786 70.1606C5.29208 70.1788 4.99512 69.913 4.99512 69.5672V67.9873C4.99512 67.6411 5.2924 67.3477 5.65818 67.332L10.024 67.1444C10.3817 67.1291 10.6703 67.3936 10.6703 67.7349L10.669 69.2939Z" fill="url(#paint33_linear_139_212)"/>
<path d="M17.4887 68.9642C17.4887 69.3 17.2079 69.5856 16.8621 69.6029L12.643 69.8126C12.2895 69.8302 12.0025 69.5687 12.0032 69.2283V67.675C12.0032 67.3347 12.2908 67.0468 12.6446 67.0315L16.8647 66.8507C17.2104 66.836 17.4899 67.0963 17.4893 67.4317L17.4887 68.9642Z" fill="url(#paint34_linear_139_212)"/>
<path d="M24.3102 68.6355C24.3102 68.9654 24.0384 69.2461 23.7046 69.2628L19.6287 69.4653C19.2871 69.4823 19.0105 69.225 19.0109 68.8908L19.0138 67.3643C19.0138 67.0298 19.292 66.7455 19.6335 66.7321L23.7105 66.5575C23.7879 66.5526 23.8655 66.5637 23.9386 66.5902C24.0116 66.6167 24.0784 66.658 24.135 66.7116C24.1915 66.7652 24.2365 66.8299 24.2673 66.9017C24.298 66.9735 24.3139 67.0509 24.3137 67.1291L24.3102 68.6355Z" fill="url(#paint35_linear_139_212)"/>
<path d="M30.906 68.3168C30.9042 68.4755 30.8428 68.6276 30.7342 68.7424C30.6255 68.8573 30.4777 68.9263 30.3205 68.9356L26.3806 69.131C26.3039 69.1362 26.227 69.1255 26.1547 69.0994C26.0823 69.0734 26.0161 69.0325 25.9601 68.9795C25.9041 68.9265 25.8596 68.8624 25.8293 68.7912C25.799 68.7201 25.7836 68.6434 25.7841 68.566L25.7876 67.0653C25.7905 66.9043 25.8541 66.7506 25.9655 66.6353C26.077 66.5199 26.2278 66.4517 26.3874 66.4446L30.3295 66.2755C30.405 66.2716 30.4804 66.2832 30.5512 66.3098C30.622 66.3363 30.6866 66.3772 30.7411 66.4299C30.7956 66.4826 30.8388 66.546 30.8681 66.6162C30.8973 66.6864 30.912 66.7619 30.9112 66.838L30.906 68.3168Z" fill="url(#paint36_linear_139_212)"/>
<path d="M10.6644 74.2957C10.6644 74.6367 10.3736 74.9308 10.0182 74.953L5.65589 75.2233C5.2901 75.2457 4.99347 74.9839 4.99347 74.637V73.0588C4.99347 72.7129 5.29075 72.4162 5.65653 72.396L10.0188 72.1557C10.3762 72.1362 10.6651 72.3967 10.6651 72.7377L10.6644 74.2957Z" fill="url(#paint37_linear_139_212)"/>
<path d="M17.4806 73.8837C17.4806 74.2192 17.2001 74.5081 16.8547 74.5296L12.6375 74.7901C12.284 74.8119 11.9974 74.5543 11.9977 74.2146V72.6628C11.9977 72.3228 12.2853 72.0317 12.6388 72.0115L16.8573 71.7789C17.2027 71.76 17.4819 72.0163 17.4816 72.3518L17.4806 73.8837Z" fill="url(#paint38_linear_139_212)"/>
<path d="M24.3002 73.4719C24.3002 73.8015 24.0288 74.0855 23.695 74.106L19.6206 74.3584C19.2794 74.3796 19.0028 74.1259 19.0034 73.792L19.006 72.2668C19.006 71.9327 19.2842 71.648 19.6258 71.6278L23.7008 71.4034C24.0349 71.3849 24.3044 71.6373 24.3038 71.9669L24.3002 73.4719Z" fill="url(#paint39_linear_139_212)"/>
<path d="M30.892 73.0736C30.8892 73.2325 30.8275 73.3845 30.7191 73.4998C30.6107 73.6151 30.4634 73.6853 30.3062 73.6967L26.3679 73.9406C26.2916 73.9472 26.2148 73.9377 26.1424 73.9126C26.07 73.8874 26.0035 73.8474 25.9474 73.7948C25.8913 73.7423 25.8466 73.6786 25.8164 73.6077C25.7861 73.5367 25.7709 73.4602 25.7718 73.383L25.7753 71.8848C25.7786 71.7234 25.8421 71.5692 25.9532 71.4529C26.0643 71.3365 26.2148 71.2667 26.3747 71.2572L30.3139 71.04C30.3889 71.0348 30.4641 71.0453 30.5349 71.0709C30.6056 71.0964 30.6703 71.1365 30.725 71.1885C30.7796 71.2405 30.823 71.3034 30.8523 71.3731C30.8817 71.4428 30.8964 71.5179 30.8956 71.5937L30.892 73.0736Z" fill="url(#paint40_linear_139_212)"/>
<path d="M10.6599 79.1777C10.6599 79.5184 10.3691 79.8158 10.0136 79.8421L5.65298 80.1646C5.28752 80.1913 4.99121 79.9333 4.99121 79.5881V78.0112C4.99121 77.6659 5.28817 77.366 5.65363 77.3416L10.0159 77.0484C10.3714 77.0243 10.6622 77.2813 10.6622 77.622L10.6599 79.1777Z" fill="url(#paint41_linear_139_212)"/>
<path d="M17.4732 78.6847C17.4732 79.0195 17.1927 79.3116 16.8473 79.336L12.632 79.6474C12.2788 79.6734 11.9922 79.4194 11.9925 79.08L11.9944 77.5298C11.9944 77.1901 12.2817 76.8957 12.6349 76.8719L16.8515 76.5892C17.1969 76.5661 17.4761 76.8188 17.4754 77.154L17.4732 78.6847Z" fill="url(#paint42_linear_139_212)"/>
<path d="M24.2896 78.1915C24.2896 78.5207 24.0182 78.8077 23.6847 78.8321L19.6132 79.1331C19.272 79.1585 18.9954 78.9083 18.996 78.5748L18.9986 77.0508C18.9986 76.7173 19.2768 76.4281 19.6181 76.4053L23.6915 76.132C24.0253 76.1096 24.2948 76.3584 24.2941 76.688L24.2896 78.1915Z" fill="url(#paint43_linear_139_212)"/>
<path d="M30.8786 77.7146C30.8754 77.8738 30.8138 78.0263 30.7057 78.1425C30.5976 78.2587 30.4506 78.3304 30.2931 78.3438L26.3564 78.6346C26.0268 78.6591 25.7599 78.4128 25.7605 78.0849L25.7641 76.5867C25.7678 76.4248 25.8312 76.2701 25.942 76.1528C26.0528 76.0356 26.2029 75.964 26.3631 75.9523L30.3009 75.6885C30.3756 75.6821 30.4508 75.6915 30.5216 75.7163C30.5924 75.741 30.6574 75.7804 30.7122 75.8319C30.767 75.8835 30.8104 75.946 30.8398 76.0156C30.8691 76.0851 30.8837 76.1601 30.8825 76.2356L30.8786 77.7146Z" fill="url(#paint44_linear_139_212)"/>
<path d="M10.6553 83.9393C10.6553 84.2793 10.3645 84.5799 10.009 84.6106L5.65034 84.9835C5.2852 85.016 4.98857 84.7604 4.98889 84.4155V82.8401C4.98889 82.4949 5.28585 82.192 5.65131 82.163L10.011 81.8197C10.3664 81.7917 10.6572 82.0448 10.6572 82.3855L10.6553 83.9393Z" fill="url(#paint45_linear_139_212)"/>
<path d="M17.4654 83.3668C17.4654 83.7013 17.1852 83.9967 16.8401 84.026L12.6265 84.3865C12.2736 84.4168 11.9873 84.1664 11.9877 83.8273L11.9893 82.2784C11.9893 81.9393 12.2765 81.6416 12.6297 81.6136L16.8459 81.2821C17.191 81.2547 17.4702 81.5042 17.4696 81.8387L17.4654 83.3668Z" fill="url(#paint46_linear_139_212)"/>
<path d="M24.278 82.7941C24.278 83.123 24.0066 83.4128 23.6731 83.4412L19.6016 83.7893C19.2604 83.8186 18.9841 83.5721 18.9847 83.2386L18.9873 81.7164C18.9873 81.3833 19.2652 81.0911 19.6065 81.0651L23.678 80.7446C24.0118 80.7182 24.2813 80.9638 24.2803 81.2927L24.278 82.7941Z" fill="url(#paint47_linear_139_212)"/>
<path d="M10.6509 89.0438C10.6509 89.3838 10.36 89.6877 10.0046 89.7226L5.64813 90.1499C5.28299 90.1857 4.98668 89.9356 4.987 89.591V88.0169C4.987 87.6723 5.28396 87.3655 5.6491 87.3329L10.0069 86.9356C10.3623 86.903 10.6531 87.1522 10.6531 87.4922L10.6509 89.0438Z" fill="url(#paint48_linear_139_212)"/>
<path d="M17.4576 88.3865C17.4576 88.7209 17.1775 89.0193 16.8324 89.0528L12.621 89.4661C12.2681 89.5006 11.9819 89.2541 11.9822 88.9154V87.3681C11.9822 87.0291 12.2694 86.7281 12.6226 86.6959L16.835 86.3116C17.1801 86.279 17.4589 86.5259 17.4583 86.86L17.4576 88.3865Z" fill="url(#paint49_linear_139_212)"/>
<path d="M24.268 87.7277C24.268 88.0563 23.9968 88.3491 23.6634 88.382L19.5948 88.7809C19.2539 88.8135 18.9776 88.5715 18.9783 88.2383L18.9809 86.7177C18.9809 86.3845 19.2588 86.0895 19.5997 86.0582L23.6711 85.6869C24.0043 85.6563 24.2738 85.8983 24.2731 86.2269L24.268 87.7277Z" fill="url(#paint50_linear_139_212)"/>
<path d="M30.2759 80.2242L26.3395 80.5343C26.0099 80.5603 25.7536 80.9365 25.7527 81.2642L25.7507 82.1074V82.8112L25.743 85.989L25.7407 86.924V87.5344C25.7407 87.862 25.9944 88.1552 26.3224 88.1226L30.2559 87.737C30.579 87.7044 30.8518 87.3647 30.8527 87.0416L30.8547 86.4388L30.8573 85.5161L30.8663 82.3793L30.8686 81.6846L30.8708 80.8525C30.8699 80.5301 30.5984 80.1992 30.2759 80.2242Z" fill="url(#paint51_linear_139_212)"/>
<path d="M18.2858 39.088C18.2858 43.7225 14.6903 47.3679 10.0951 47.2259C5.31273 47.0777 1.29071 42.9148 1.29071 37.9332C1.29071 32.9515 5.31273 29.3351 10.0951 29.8373C14.6903 30.3197 18.2858 34.4536 18.2858 39.088Z" fill="url(#paint52_linear_139_212)"/>
<path d="M19.5279 38.6884C19.5279 43.3229 15.9325 46.9682 11.3372 46.8262C6.55485 46.678 2.53284 42.5152 2.53284 37.5335C2.53284 32.5519 6.55485 28.9355 11.3372 29.4377C15.9321 29.9187 19.5279 34.0549 19.5279 38.6884Z" fill="url(#paint53_linear_139_212)"/>
<path d="M19.167 38.664C19.167 43.0933 15.727 46.5733 11.3369 46.4303C6.77654 46.2814 2.94775 42.3084 2.94775 37.5618C2.94775 32.8153 6.77654 29.3627 11.3369 29.8336C15.727 30.287 19.167 34.2337 19.167 38.664Z" fill="url(#paint54_linear_139_212)"/>
<path d="M18.9085 38.647C18.9085 42.9311 15.5802 46.2915 11.3369 46.1479C6.93517 45.999 3.24371 42.1618 3.24371 37.5824C3.24371 33.0029 6.93517 29.6682 11.3369 30.1167C15.5799 30.5495 18.9085 34.3623 18.9085 38.647Z" fill="url(#paint55_linear_139_212)"/>
<path d="M11.2936 31.5742C11.4052 31.5875 11.5082 31.6412 11.5833 31.7254C11.6585 31.8096 11.7007 31.9185 11.702 32.0318V32.8206C12.1587 32.872 12.612 32.9511 13.0592 33.0577C13.3933 33.1365 13.7249 33.2306 14.0541 33.3401C14.1511 33.3725 14.2344 33.4367 14.291 33.5225C14.3475 33.6082 14.3739 33.7106 14.3659 33.8133L14.269 34.8024C14.2647 34.8625 14.2458 34.9207 14.2141 34.9719C14.1824 35.0231 14.1388 35.0657 14.0871 35.096C14.0353 35.1263 13.977 35.1435 13.9172 35.1459C13.8574 35.1484 13.7979 35.1361 13.7439 35.1101C13.5269 35.0126 13.304 34.9288 13.0766 34.8594C12.666 34.7357 12.2436 34.6563 11.8164 34.6223L11.7011 34.6128V36.8718C12.8789 37.204 13.7439 37.6508 14.3029 38.2126C14.8619 38.7744 15.1363 39.4691 15.1363 40.3058C15.1363 41.2107 14.8291 41.9361 14.2147 42.482C13.596 43.0313 12.7268 43.3397 11.607 43.4073V44.2778C11.6079 44.3317 11.5979 44.3852 11.5775 44.4351C11.5572 44.4849 11.5269 44.53 11.4886 44.5677C11.4504 44.6054 11.4049 44.6347 11.355 44.6541C11.305 44.6734 11.2517 44.6822 11.1983 44.68H11.1912C11.0804 44.6739 10.9762 44.6252 10.8999 44.5441C10.8236 44.4629 10.7809 44.3554 10.7808 44.2436V43.3848L10.5989 43.3766C10.0924 43.3546 9.58785 43.3002 9.08822 43.2138C8.73609 43.1524 8.38756 43.0716 8.04418 42.9718C7.94442 42.9436 7.85736 42.8816 7.79772 42.7962C7.73808 42.7108 7.70951 42.6073 7.71685 42.5032L7.82995 41.233C7.8545 40.9581 8.1282 40.7982 8.38767 40.9014C8.68754 41.0206 8.99407 41.122 9.30569 41.205C9.78628 41.3329 10.2776 41.4157 10.7734 41.4522L10.7808 38.9395C9.65004 38.6573 8.8057 38.2396 8.24776 37.6866C7.68981 37.1336 7.41074 36.4224 7.41052 35.5531C7.41052 34.6581 7.71373 33.9679 8.32014 33.4824C8.92278 33 9.7794 32.76 10.8845 32.7607V31.9543C10.8831 31.9012 10.893 31.8484 10.9135 31.7994C10.934 31.7505 10.9646 31.7066 11.0034 31.6706C11.0421 31.6346 11.0881 31.6073 11.1381 31.5907C11.1882 31.5741 11.2412 31.5685 11.2936 31.5742ZM10.8835 34.5894C10.5341 34.615 10.2618 34.7117 10.0667 34.8796C9.87149 35.0474 9.7738 35.2734 9.77358 35.5576C9.77046 35.6827 9.79291 35.8072 9.83955 35.9231C9.88619 36.0391 9.95602 36.1442 10.0447 36.2318C10.225 36.4116 10.505 36.5553 10.8848 36.663L10.8835 34.5894ZM11.608 39.1395V41.4437C11.988 41.4437 12.2796 41.3524 12.4827 41.1698C12.6859 40.9872 12.7872 40.7286 12.7868 40.394C12.7868 40.0901 12.6925 39.8373 12.504 39.6358C12.3156 39.4344 12.0169 39.2689 11.608 39.1395Z" fill="url(#paint56_linear_139_212)"/>
<path style="mix-blend-mode:multiply" opacity="0.3" d="M9.96679 39.6954C10.2217 37.1488 12.5447 36.0708 12.2416 33.7292C12.0549 32.2854 10.9691 31.0687 9.75804 30.1187C6.08566 30.5049 3.24371 33.5719 3.24371 37.582C3.24371 42.1611 6.93517 45.9983 11.3369 46.1475C11.7548 46.1615 12.1731 46.1409 12.5877 46.0859C10.8396 44.3324 9.74706 41.8833 9.96679 39.6954Z" fill="url(#paint57_linear_139_212)"/>
<path d="M31.275 20.1228C31.275 25.6871 26.9583 30.0643 21.4411 29.8933C15.6991 29.7158 10.8699 24.7175 10.8699 18.7363C10.8699 12.7551 15.6991 8.41213 21.4411 9.01595C26.9599 9.596 31.275 14.5588 31.275 20.1228Z" fill="url(#paint58_linear_139_212)"/>
<path d="M32.7659 19.643C32.7659 25.2073 28.4492 29.5845 22.932 29.4135C17.19 29.236 12.3608 24.2377 12.3608 18.2566C12.3608 12.2754 17.19 7.9324 22.932 8.53622C28.4492 9.11528 32.7659 14.079 32.7659 19.643Z" fill="url(#paint59_linear_139_212)"/>
<path d="M32.333 19.6137C32.333 24.9328 28.2027 29.11 22.9321 28.9381C17.4566 28.7596 12.8597 23.9912 12.8597 18.2918C12.8597 12.5923 17.4566 8.44764 22.9321 9.01303C28.2027 9.55595 32.333 14.2947 32.333 19.6137Z" fill="url(#paint60_linear_139_212)"/>
<path d="M32.0228 19.5925C32.0228 24.7364 28.0263 28.771 22.9321 28.5984C17.647 28.4196 13.2149 23.8128 13.2149 18.3146C13.2149 12.8164 17.647 8.81207 22.9321 9.35141C28.0263 9.8712 32.0228 14.4487 32.0228 19.5925Z" fill="url(#paint61_linear_139_212)"/>
<path d="M22.8797 11.1013C23.0137 11.1173 23.1373 11.1819 23.2276 11.283C23.3178 11.3841 23.3685 11.5148 23.3702 11.6508V12.5979C23.9182 12.6599 24.462 12.755 24.9988 12.8825C25.3994 12.9774 25.798 13.0904 26.1943 13.2215C26.3107 13.2606 26.4108 13.3377 26.4786 13.4407C26.5464 13.5437 26.578 13.6666 26.5685 13.7899L26.4532 14.9773C26.448 15.0495 26.4254 15.1194 26.3873 15.1808C26.3492 15.2423 26.2969 15.2934 26.2347 15.3298C26.1726 15.3662 26.1026 15.3867 26.0308 15.3897C25.959 15.3926 25.8876 15.3778 25.8227 15.3466C25.5621 15.2296 25.2945 15.1292 25.0214 15.046C24.5291 14.8974 24.0225 14.802 23.5101 14.7614L23.3715 14.7497V17.4619C24.7855 17.8606 25.8268 18.3972 26.4955 19.0718C27.1642 19.7464 27.4981 20.5842 27.4972 21.5851C27.4972 22.6707 27.1283 23.5416 26.3905 24.1977C25.6473 24.8576 24.6065 25.2285 23.2597 25.3086V26.3541C23.2607 26.4188 23.2487 26.4831 23.2242 26.5429C23.1998 26.6028 23.1635 26.657 23.1175 26.7022C23.0716 26.7474 23.017 26.7827 22.957 26.8059C22.897 26.8291 22.833 26.8397 22.7688 26.8371H22.7592C22.6262 26.8296 22.501 26.7711 22.4095 26.6736C22.3179 26.5761 22.2668 26.447 22.2667 26.3127V25.2816L22.0479 25.2718C21.44 25.2455 20.8343 25.1803 20.2345 25.0764C19.8118 25.0027 19.3934 24.9058 18.9811 24.7859C18.8613 24.7522 18.7567 24.6777 18.685 24.5751C18.6134 24.4726 18.579 24.3482 18.5879 24.2231L18.7236 22.6967C18.753 22.3667 19.0819 22.1756 19.3934 22.2983C19.7534 22.4416 20.1215 22.5634 20.4956 22.6631C21.0727 22.8167 21.6627 22.916 22.258 22.9598L22.2667 19.943C20.9096 19.6043 19.8957 19.1028 19.2251 18.4387C18.5545 17.7745 18.2188 16.9213 18.2179 15.8791C18.2179 14.8046 18.582 13.9759 19.3101 13.3932C20.0336 12.8138 21.0621 12.5259 22.3888 12.5265V11.5583C22.387 11.4945 22.3988 11.4311 22.4234 11.3723C22.4479 11.3135 22.4847 11.2606 22.5312 11.2173C22.5777 11.1741 22.6329 11.1413 22.693 11.1213C22.7531 11.1013 22.8167 11.0945 22.8797 11.1013ZM22.3876 14.7216C21.9681 14.7523 21.6412 14.8684 21.4069 15.0701C21.1725 15.2718 21.0551 15.5432 21.0546 15.8843C21.0546 16.207 21.1632 16.4766 21.3804 16.6933C21.5975 16.91 21.9332 17.0826 22.3876 17.2112V14.7216ZM23.2574 20.1847V22.953C23.7137 22.953 24.0636 22.8433 24.3073 22.624C24.5509 22.4047 24.6727 22.0943 24.6727 21.6926C24.6727 21.3269 24.5595 21.0235 24.3331 20.7823C24.1067 20.5411 23.7481 20.3419 23.2574 20.1847Z" fill="#848484"/>
<path style="mix-blend-mode:multiply" opacity="0.3" d="M21.2867 20.8523C21.594 17.7948 24.382 16.5002 24.0181 13.6873C23.7939 11.9537 22.4904 10.493 21.0363 9.35242C16.6255 9.81847 13.2165 13.4997 13.2165 18.3139C13.2165 23.8121 17.6486 28.4189 22.9337 28.5977C23.4354 28.6147 23.9376 28.59 24.4353 28.5238C22.3346 26.4196 21.023 23.479 21.2867 20.8523Z" fill="url(#paint62_linear_139_212)"/>
<defs>
<linearGradient id="paint0_linear_139_212" x1="9.80164" y1="49.0839" x2="73.3783" y2="49.0839" gradientUnits="userSpaceOnUse">
<stop stop-color="#525252"/>
<stop offset="1" stop-color="#26264F"/>
</linearGradient>
<linearGradient id="paint1_linear_139_212" x1="11.9091" y1="49.0581" x2="73.4652" y2="49.0581" gradientUnits="userSpaceOnUse">
<stop stop-color="#B5B7B9"/>
<stop offset="0.614583" stop-color="#3E3F40"/>
<stop offset="1"/>
</linearGradient>
<linearGradient id="paint2_linear_139_212" x1="47320.6" y1="13325.2" x2="78614.4" y2="13325.2" gradientUnits="userSpaceOnUse">
<stop stop-color="#444B8C"/>
<stop offset="1" stop-color="#26264F"/>
</linearGradient>
<linearGradient id="paint3_linear_139_212" x1="31922.5" y1="193029" x2="33193.7" y2="124237" gradientUnits="userSpaceOnUse">
<stop stop-color="#919191"/>
<stop offset="1" stop-color="#3D3D3D"/>
</linearGradient>
<linearGradient id="paint4_linear_139_212" x1="16.5373" y1="138.998" x2="17.2775" y2="84.3581" gradientUnits="userSpaceOnUse">
<stop stop-color="#696572"/>
</linearGradient>
<linearGradient id="paint5_linear_139_212" x1="20710" y1="26348.4" x2="47699.6" y2="26348.4" gradientUnits="userSpaceOnUse">
<stop stop-color="#BBBBBB"/>
</linearGradient>
<linearGradient id="paint6_linear_139_212" x1="20697.9" y1="15023.5" x2="47656.1" y2="15023.5" gradientUnits="userSpaceOnUse">
<stop offset="1" stop-color="#9F9F9F"/>
</linearGradient>
<linearGradient id="paint7_linear_139_212" x1="29668.1" y1="14492" x2="29538.4" y2="24770.6" gradientUnits="userSpaceOnUse">
<stop stop-color="#9E9B9B"/>
<stop offset="1" stop-color="#9571F6"/>
</linearGradient>
<linearGradient id="paint8_linear_139_212" x1="26.7267" y1="55.2311" x2="26.3286" y2="64.236" gradientUnits="userSpaceOnUse">
<stop stop-color="white"/>
<stop offset="0.376657" stop-color="white"/>
<stop offset="0.467578" stop-color="white"/>
</linearGradient>
<linearGradient id="paint9_linear_139_212" x1="874.442" y1="3557.3" x2="817.09" y2="4003.89" gradientUnits="userSpaceOnUse">
<stop stop-color="white"/>
</linearGradient>
<linearGradient id="paint10_linear_139_212" x1="841.914" y1="3939.62" x2="772.388" y2="4450.37" gradientUnits="userSpaceOnUse">
<stop stop-color="#311944"/>
<stop offset="1" stop-color="#A03976"/>
</linearGradient>
<linearGradient id="paint11_linear_139_212" x1="873.942" y1="4185.49" x2="788.821" y2="4765.32" gradientUnits="userSpaceOnUse">
<stop stop-color="white"/>
</linearGradient>
<linearGradient id="paint12_linear_139_212" x1="1991.45" y1="8820.35" x2="1846.2" y2="8817.92" gradientUnits="userSpaceOnUse">
<stop stop-color="white"/>
</linearGradient>
<linearGradient id="paint13_linear_139_212" x1="2042.87" y1="9742.17" x2="1882.57" y2="9739.62" gradientUnits="userSpaceOnUse">
<stop stop-color="#311944"/>
<stop offset="1" stop-color="#A03976"/>
</linearGradient>
<linearGradient id="paint14_linear_139_212" x1="32.8955" y1="54.4588" x2="-13.9148" y2="80.2952" gradientUnits="userSpaceOnUse">
<stop stop-color="#444B8C"/>
<stop offset="1" stop-color="#3E4177"/>
</linearGradient>
<linearGradient id="paint15_linear_139_212" x1="9149.7" y1="6623.03" x2="4275.79" y2="11642.6" gradientUnits="userSpaceOnUse">
<stop stop-color="#444B8C"/>
<stop offset="1" stop-color="#3E4177"/>
</linearGradient>
<linearGradient id="paint16_linear_139_212" x1="9010.36" y1="6770.41" x2="4362.45" y2="11484.9" gradientUnits="userSpaceOnUse">
<stop stop-color="#444B8C"/>
<stop offset="1" stop-color="#3E4177"/>
</linearGradient>
<linearGradient id="paint17_linear_139_212" x1="8911.16" y1="6891.82" x2="4483.8" y2="11310.7" gradientUnits="userSpaceOnUse">
<stop stop-color="#444B8C"/>
<stop offset="1" stop-color="#3E4177"/>
</linearGradient>
<linearGradient id="paint18_linear_139_212" x1="9703.4" y1="6924.7" x2="4461.38" y2="12315.4" gradientUnits="userSpaceOnUse">
<stop stop-color="#444B8C"/>
<stop offset="1" stop-color="#3E4177"/>
</linearGradient>
<linearGradient id="paint19_linear_139_212" x1="9529.17" y1="7079.65" x2="4546.94" y2="12123.4" gradientUnits="userSpaceOnUse">
<stop stop-color="#444B8C"/>
<stop offset="1" stop-color="#3E4177"/>
</linearGradient>
<linearGradient id="paint20_linear_139_212" x1="9361.03" y1="7216.57" x2="4613.87" y2="11952.2" gradientUnits="userSpaceOnUse">
<stop stop-color="#444B8C"/>
<stop offset="1" stop-color="#3E4177"/>
</linearGradient>
<linearGradient id="paint21_linear_139_212" x1="9233.3" y1="7332.15" x2="4712.07" y2="11768.7" gradientUnits="userSpaceOnUse">
<stop stop-color="#444B8C"/>
<stop offset="1" stop-color="#3E4177"/>
</linearGradient>
<linearGradient id="paint22_linear_139_212" x1="10117.1" y1="7383.06" x2="4763.91" y2="12798.5" gradientUnits="userSpaceOnUse">
<stop stop-color="#444B8C"/>
<stop offset="1" stop-color="#3E4177"/>
</linearGradient>
<linearGradient id="paint23_linear_139_212" x1="9913.81" y1="7530.18" x2="4827.98" y2="12597.3" gradientUnits="userSpaceOnUse">
<stop stop-color="#444B8C"/>
<stop offset="1" stop-color="#3E4177"/>
</linearGradient>
<linearGradient id="paint24_linear_139_212" x1="9714.43" y1="7660.22" x2="4869.98" y2="12415.1" gradientUnits="userSpaceOnUse">
<stop stop-color="#444B8C"/>
<stop offset="1" stop-color="#3E4177"/>
</linearGradient>
<linearGradient id="paint25_linear_139_212" x1="9564.64" y1="7763.57" x2="4955.12" y2="12219.3" gradientUnits="userSpaceOnUse">
<stop stop-color="#444B8C"/>
<stop offset="1" stop-color="#3E4177"/>
</linearGradient>
<linearGradient id="paint26_linear_139_212" x1="10534.2" y1="7838.72" x2="5071.47" y2="13277.3" gradientUnits="userSpaceOnUse">
<stop stop-color="#444B8C"/>
<stop offset="1" stop-color="#3E4177"/>
</linearGradient>
<linearGradient id="paint27_linear_139_212" x1="10301.1" y1="7977.63" x2="5113.44" y2="13066.1" gradientUnits="userSpaceOnUse">
<stop stop-color="#444B8C"/>
<stop offset="1" stop-color="#3E4177"/>
</linearGradient>
<linearGradient id="paint28_linear_139_212" x1="10071" y1="8099.07" x2="5132.07" y2="12871.8" gradientUnits="userSpaceOnUse">
<stop stop-color="#444B8C"/>
<stop offset="1" stop-color="#3E4177"/>
</linearGradient>
<linearGradient id="paint29_linear_139_212" x1="10955.2" y1="8343.63" x2="5377.9" y2="13804.9" gradientUnits="userSpaceOnUse">
<stop stop-color="#444B8C"/>
<stop offset="1" stop-color="#3E4177"/>
</linearGradient>
<linearGradient id="paint30_linear_139_212" x1="10683.9" y1="8477.45" x2="5386.91" y2="13582.9" gradientUnits="userSpaceOnUse">
<stop stop-color="#444B8C"/>
<stop offset="1" stop-color="#3E4177"/>
</linearGradient>
<linearGradient id="paint31_linear_139_212" x1="10431.5" y1="8588.37" x2="5391.36" y2="13379" gradientUnits="userSpaceOnUse">
<stop stop-color="#444B8C"/>
<stop offset="1" stop-color="#3E4177"/>
</linearGradient>
<linearGradient id="paint32_linear_139_212" x1="10061.1" y1="21958.4" x2="2156.63" y2="24813.4" gradientUnits="userSpaceOnUse">
<stop stop-color="#444B8C"/>
<stop offset="1" stop-color="#3E4177"/>
</linearGradient>
<linearGradient id="paint33_linear_139_212" x1="4904.02" y1="7478.94" x2="4865.76" y2="9119.66" gradientUnits="userSpaceOnUse">
<stop stop-color="#9FA0A2"/>
<stop offset="1" stop-color="#26264F"/>
</linearGradient>
<linearGradient id="paint34_linear_139_212" x1="5921.39" y1="7321.52" x2="5883.94" y2="8902.27" gradientUnits="userSpaceOnUse">
<stop stop-color="#9FA0A2"/>
<stop offset="1" stop-color="#26264F"/>
</linearGradient>
<linearGradient id="paint35_linear_139_212" x1="6865.66" y1="7166.64" x2="6829.02" y2="8689.02" gradientUnits="userSpaceOnUse">
<stop stop-color="#9FA0A2"/>
<stop offset="1" stop-color="#26264F"/>
</linearGradient>
<linearGradient id="paint36_linear_139_212" x1="7705.64" y1="7016.76" x2="7669.78" y2="8483.69" gradientUnits="userSpaceOnUse">
<stop stop-color="#9FA0A2"/>
<stop offset="1" stop-color="#26264F"/>
</linearGradient>
<linearGradient id="paint37_linear_139_212" x1="4900.78" y1="8082.59" x2="4860.51" y2="9778.8" gradientUnits="userSpaceOnUse">
<stop stop-color="#9FA0A2"/>
<stop offset="1" stop-color="#26264F"/>
</linearGradient>
<linearGradient id="paint38_linear_139_212" x1="5918.19" y1="7902.89" x2="5878.85" y2="9536.04" gradientUnits="userSpaceOnUse">
<stop stop-color="#9FA0A2"/>
<stop offset="1" stop-color="#26264F"/>
</linearGradient>
<linearGradient id="paint39_linear_139_212" x1="6861.12" y1="7725.13" x2="6822.66" y2="9296.64" gradientUnits="userSpaceOnUse">
<stop stop-color="#9FA0A2"/>
<stop offset="1" stop-color="#26264F"/>
</linearGradient>
<linearGradient id="paint40_linear_139_212" x1="7698.95" y1="7557.33" x2="7661.33" y2="9071.17" gradientUnits="userSpaceOnUse">
<stop stop-color="#9FA0A2"/>
<stop offset="1" stop-color="#26264F"/>
</linearGradient>
<linearGradient id="paint41_linear_139_212" x1="4900.05" y1="8683.19" x2="4857.81" y2="10433.7" gradientUnits="userSpaceOnUse">
<stop stop-color="#9FA0A2"/>
<stop offset="1" stop-color="#26264F"/>
</linearGradient>
<linearGradient id="paint42_linear_139_212" x1="5916.47" y1="8482.34" x2="5875.22" y2="10167" gradientUnits="userSpaceOnUse">
<stop stop-color="#9FA0A2"/>
<stop offset="1" stop-color="#26264F"/>
</linearGradient>
<linearGradient id="paint43_linear_139_212" x1="6856.91" y1="8285.65" x2="6816.61" y2="9906.35" gradientUnits="userSpaceOnUse">
<stop stop-color="#9FA0A2"/>
<stop offset="1" stop-color="#26264F"/>
</linearGradient>
<linearGradient id="paint44_linear_139_212" x1="7694.64" y1="8099.17" x2="7655.21" y2="9659.8" gradientUnits="userSpaceOnUse">
<stop stop-color="#9FA0A2"/>
<stop offset="1" stop-color="#26264F"/>
</linearGradient>
<linearGradient id="paint45_linear_139_212" x1="4897.63" y1="9285.04" x2="4853.38" y2="11089.8" gradientUnits="userSpaceOnUse">
<stop stop-color="#9FA0A2"/>
<stop offset="1" stop-color="#26264F"/>
</linearGradient>
<linearGradient id="paint46_linear_139_212" x1="5914.63" y1="9063.22" x2="5871.45" y2="10799.4" gradientUnits="userSpaceOnUse">
<stop stop-color="#9FA0A2"/>
<stop offset="1" stop-color="#26264F"/>
</linearGradient>
<linearGradient id="paint47_linear_139_212" x1="6852.47" y1="8842.23" x2="6810.32" y2="10511.1" gradientUnits="userSpaceOnUse">
<stop stop-color="#9FA0A2"/>
<stop offset="1" stop-color="#26264F"/>
</linearGradient>
<linearGradient id="paint48_linear_139_212" x1="4895.54" y1="9944.15" x2="4849.07" y2="11807.7" gradientUnits="userSpaceOnUse">
<stop stop-color="#9FA0A2"/>
<stop offset="1" stop-color="#26264F"/>
</linearGradient>
<linearGradient id="paint49_linear_139_212" x1="5907.6" y1="9702.92" x2="5862.23" y2="11495.6" gradientUnits="userSpaceOnUse">
<stop stop-color="#9FA0A2"/>
<stop offset="1" stop-color="#26264F"/>
</linearGradient>
<linearGradient id="paint50_linear_139_212" x1="6850.29" y1="9460.59" x2="6806.05" y2="11183.3" gradientUnits="userSpaceOnUse">
<stop stop-color="#9FA0A2"/>
<stop offset="1" stop-color="#26264F"/>
</linearGradient>
<linearGradient id="paint51_linear_139_212" x1="7736.81" y1="22105.5" x2="7009.98" y2="32864.2" gradientUnits="userSpaceOnUse">
<stop stop-color="#9FA0A2"/>
<stop offset="1" stop-color="#26264F"/>
</linearGradient>
<linearGradient id="paint52_linear_139_212" x1="6.87572" y1="39.4505" x2="-3.05016" y2="42.6111" gradientUnits="userSpaceOnUse">
<stop offset="1" stop-color="#838383"/>
</linearGradient>
<linearGradient id="paint53_linear_139_212" x1="14.8936" y1="29.5067" x2="5.92921" y2="49.1289" gradientUnits="userSpaceOnUse">
<stop stop-color="#6B6B6B"/>
</linearGradient>
<linearGradient id="paint54_linear_139_212" x1="16663.5" y1="33121.8" x2="15762.6" y2="28325.8" gradientUnits="userSpaceOnUse">
<stop offset="1" stop-color="#F5EAE3"/>
</linearGradient>
<linearGradient id="paint55_linear_139_212" x1="14339.3" y1="24482.3" x2="17897.4" y2="31842.1" gradientUnits="userSpaceOnUse">
<stop stop-color="#CBCBCB"/>
</linearGradient>
<linearGradient id="paint56_linear_139_212" x1="7010.88" y1="18666" x2="9175.72" y2="23447.9" gradientUnits="userSpaceOnUse">
<stop stop-color="#949494"/>
<stop offset="1" stop-color="#FEEF06"/>
</linearGradient>
<linearGradient id="paint57_linear_139_212" x1="7956.1" y1="24896.6" x2="12374.4" y2="30362.6" gradientUnits="userSpaceOnUse">
<stop stop-color="#ABABAB"/>
<stop offset="1" stop-color="#F8924F"/>
</linearGradient>
<linearGradient id="paint58_linear_139_212" x1="23692.6" y1="22529.9" x2="16142.5" y2="24891.3" gradientUnits="userSpaceOnUse">
<stop stop-color="#838383"/>
</linearGradient>
<linearGradient id="paint59_linear_139_212" x1="29772.9" y1="14853.8" x2="22772.4" y2="29905.1" gradientUnits="userSpaceOnUse">
<stop stop-color="#6B6B6B"/>
<stop offset="1" stop-color="#FEEF06"/>
</linearGradient>
<linearGradient id="paint60_linear_139_212" x1="27236.9" y1="29479.7" x2="25938.4" y2="22566.6" gradientUnits="userSpaceOnUse">
<stop stop-color="#F5EAE3"/>
</linearGradient>
<linearGradient id="paint61_linear_139_212" x1="23777.4" y1="17649.2" x2="28906.1" y2="28258.4" gradientUnits="userSpaceOnUse">
<stop stop-color="#CACACA"/>
</linearGradient>
<linearGradient id="paint62_linear_139_212" x1="13325.6" y1="18294.6" x2="19694.7" y2="26174.2" gradientUnits="userSpaceOnUse">
<stop offset="1" stop-color="#7E7E7E"/>
</linearGradient>
</defs>
</svg>
