<svg width="84" height="84" viewBox="0 0 84 84" fill="none" xmlns="http://www.w3.org/2000/svg">
<g clip-path="url(#clip0_100_3323)">
<path d="M40.0238 83.7356C39.5459 83.9415 39.0109 84.03 38.478 83.9914C37.9451 83.9528 37.435 83.7885 37.0042 83.5168L4.26376 62.8103C3.90083 62.5797 3.60597 62.2794 3.4028 61.9335C3.19964 61.5876 3.09381 61.2057 3.09381 60.8185C3.09381 60.4312 3.19964 60.0493 3.4028 59.7034C3.60597 59.3575 3.90083 59.0573 4.26376 58.8266L36.9983 37.9873C37.4285 37.714 37.9388 37.5485 38.4722 37.509C39.0057 37.4696 39.5415 37.5579 40.0199 37.7641C40.4983 37.9702 40.9006 38.2861 41.1819 38.6767C41.4632 39.0672 41.6126 39.517 41.6133 39.976V48.3076H81.1103C81.49 48.3071 81.8662 48.3709 82.2171 48.4953C82.5681 48.6197 82.887 48.8022 83.1554 49.0325C83.4239 49.2627 83.6367 49.5361 83.7816 49.837C83.9266 50.1379 84.0008 50.4604 84 50.7859V70.7169C84.0004 71.0421 83.9259 71.3642 83.7807 71.6646C83.6356 71.9651 83.4227 72.238 83.1542 72.4678C82.8857 72.6976 82.567 72.8797 82.2162 73.0036C81.8655 73.1276 81.4896 73.1909 81.1103 73.1901H41.6133V81.5218C41.6129 81.9807 41.4641 82.4304 41.1835 82.8212C40.9029 83.212 40.5015 83.5285 40.0238 83.7356Z" fill="#9FA0A2"/>
<path d="M47.139 0.253487C47.5909 0.0587587 48.0968 -0.0250438 48.6008 0.0113481C49.1048 0.04774 49.5872 0.202909 49.9947 0.459692L82.7337 21.1649C83.0773 21.3827 83.3566 21.6665 83.5492 21.9934C83.7419 22.3203 83.8427 22.6814 83.8434 23.0477C83.8441 23.4139 83.7448 23.7753 83.5534 24.1027C83.362 24.4302 83.0838 24.7147 82.7411 24.9335L50.0006 45.7691C49.594 46.0282 49.1113 46.1854 48.6065 46.223C48.1016 46.2606 47.5946 46.1772 47.1418 45.9821C46.6891 45.7869 46.3086 45.4877 46.0428 45.1179C45.777 44.7482 45.6363 44.3223 45.6365 43.8879V35.4222H2.73479C2.3756 35.4223 2.01989 35.3618 1.688 35.2441C1.35612 35.1263 1.05457 34.9537 0.800583 34.7359C0.546593 34.5182 0.345161 34.2598 0.207794 33.9753C0.0704269 33.6908 -0.000175476 33.3859 1.52588e-05 33.078V13.1571C-0.000175476 12.8492 0.0704269 12.5443 0.207794 12.2598C0.345161 11.9754 0.546593 11.7169 0.800583 11.4992C1.05457 11.2815 1.35612 11.1088 1.688 10.991C2.01989 10.8733 2.3756 10.8128 2.73479 10.8129H45.6365V2.34463C45.6377 1.91122 45.7786 1.48653 46.0438 1.11749C46.3089 0.748446 46.6879 0.44943 47.139 0.253487Z" fill="#9FA0A2" fill-opacity="0.46"/>
</g>
<defs>
<clipPath id="clip0_100_3323">
<rect width="84" height="84" fill="white" transform="matrix(-1 0 0 1 84 0)"/>
</clipPath>
</defs>
</svg>
