<svg width="84" height="84" viewBox="0 0 84 84" fill="none" xmlns="http://www.w3.org/2000/svg">
<g clip-path="url(#clip0_100_3326)">
<path d="M42.0943 5.90965e-05C33.7831 -0.031514 25.6492 2.40312 18.7221 6.99584C11.795 11.5886 6.38596 18.133 3.1795 25.8009C-0.0269567 33.4688 -0.886715 41.9155 0.709022 50.0722C2.30476 58.2289 6.28427 65.7289 12.144 71.6232C18.0037 77.5174 25.4801 81.541 33.6273 83.1847C41.7745 84.8283 50.2262 84.0182 57.9128 80.8569C65.5994 77.6956 72.1755 72.3251 76.8089 65.4251C81.4422 58.5251 83.9246 50.4057 83.9419 42.0944C83.9421 30.9729 79.5411 20.3033 71.7001 12.4161C63.8592 4.52897 53.2156 0.0652541 42.0943 5.90965e-05ZM66.4075 67.0607L63.7221 69.4703C62.9964 70.0218 62.14 70.6605 61.211 71.2557C60.1794 71.9706 59.0921 72.6016 57.9596 73.1426C53.0025 75.7242 47.4947 77.0688 41.9057 77.0618H41.8186C36.1487 77.0655 30.5669 75.6588 25.5759 72.9685L22.3971 71.0669C21.6104 70.5603 20.8543 70.0078 20.1327 69.4122L19.8424 69.209L17.4183 66.9736L17.2587 66.814C13.9566 63.5546 11.3389 59.6685 9.55921 55.3837C7.77949 51.0989 6.87362 46.5018 6.89476 41.8622C6.90497 39.8799 7.09444 37.9026 7.46086 35.9544C7.64291 34.7279 7.90966 33.5154 8.2592 32.3256C8.47692 31.5708 8.76723 30.7725 9.02851 30.0177L9.18818 29.5823C9.6179 28.3674 10.1521 27.1921 10.7849 26.0695C13.3107 21.0715 17.0043 16.7561 21.5525 13.4889C26.1007 10.2218 31.3695 8.09929 36.9124 7.30127C38.0985 7.11255 39.2967 7.01066 40.4977 6.99644C40.9038 6.97405 41.3108 6.97405 41.7169 6.99644H42.0943C42.6279 6.98847 43.1615 7.01757 43.691 7.08353C44.8768 7.12119 46.0594 7.22782 47.2328 7.40287C52.7924 8.25351 58.0668 10.4257 62.6132 13.7369C67.1595 17.0481 70.845 21.4018 73.3603 26.4324C73.9197 27.5458 74.4046 28.695 74.8118 29.8725C75.1946 30.7841 75.5005 31.726 75.7263 32.6885C76.0992 33.8878 76.3711 35.1162 76.5391 36.3609C76.8616 38.2796 77.0267 40.2214 77.0327 42.167C77.0253 46.8121 76.0863 51.4086 74.2713 55.6845C72.4562 59.9604 69.8019 63.8287 66.4655 67.0607H66.4075Z" fill="#9FA0A2"/>
<path d="M75.1312 36.4624C74.9702 35.2809 74.7079 34.1154 74.3474 32.9788C74.1363 32.0552 73.8449 31.1517 73.4764 30.2789C73.059 29.1619 72.5743 28.0713 72.0249 27.013C69.6192 22.1989 66.0962 18.0306 61.7503 14.8564C57.4044 11.6821 52.3619 9.59426 47.0441 8.76723C45.875 8.59672 44.6976 8.49011 43.5169 8.44789C43.0351 8.39295 42.5502 8.36873 42.0654 8.37533C41.5805 8.37118 41.0958 8.39539 40.6138 8.44789C39.4424 8.46346 38.2736 8.56048 37.1156 8.73821C31.8 9.51963 26.7502 11.5681 22.3924 14.7108C18.0345 17.8535 14.4965 21.9982 12.0768 26.7952C11.5025 27.8414 11.0169 28.9339 10.6252 30.0612C10.3204 30.9321 9.98655 31.8466 9.72527 32.7465C9.39228 33.8846 9.13527 35.0435 8.95596 36.2156C8.60843 38.0779 8.42869 39.9677 8.4189 41.8621C8.40372 46.31 9.2752 50.7163 10.9824 54.8236C12.6896 58.9309 15.1983 62.6566 18.3619 65.7833L18.478 65.8994L20.9021 68.1203H21.0037C21.7068 68.7334 22.4486 69.3006 23.2245 69.8186L26.3308 71.691C31.1089 74.2393 36.4363 75.5844 41.8514 75.6096C47.2666 75.6349 52.6063 74.3397 57.408 71.8362C58.4845 71.3189 59.5184 70.717 60.4998 70.0363C61.3126 69.5138 62.0819 68.9476 62.8222 68.3815L65.4495 65.9865C68.6489 62.8815 71.1959 59.1686 72.9407 55.0657C74.6855 50.9629 75.5931 46.5528 75.6102 42.0944C75.6033 40.2072 75.4431 38.3237 75.1312 36.4624ZM70.8927 31.3531C71.2111 32.1479 71.4778 32.9624 71.6911 33.7916L52.8212 39.83C52.6472 38.8994 52.3494 37.9962 51.9357 37.1446L70.8056 31.0773C70.8241 31.1722 70.8533 31.2647 70.8927 31.3531ZM69.4412 27.8549L48.5392 33.0223L47.0876 11.6267C51.8063 12.4219 56.276 14.3014 60.1449 17.1174C64.0137 19.9334 67.1761 23.609 69.3831 27.8549H69.4412ZM51.0939 39.4671C51.0939 39.7858 50.9994 40.0973 50.8223 40.3622C50.6453 40.6272 50.3937 40.8337 50.0992 40.9556C49.8048 41.0776 49.4809 41.1095 49.1683 41.0473C48.8558 40.9851 48.5687 40.8317 48.3434 40.6064C48.118 40.3811 47.9646 40.094 47.9024 39.7814C47.8403 39.4689 47.8722 39.1449 47.9941 38.8505C48.1161 38.5561 48.3226 38.3045 48.5875 38.1274C48.8525 37.9504 49.164 37.8559 49.4827 37.8559C49.9024 37.871 50.2996 38.0494 50.5897 38.3531C50.8798 38.6567 51.0399 39.0616 51.0358 39.4816L51.0939 39.4671ZM48.2779 48.1763C48.2779 48.4949 48.1834 48.8064 48.0064 49.0714C47.8293 49.3363 47.5777 49.5428 47.2833 49.6648C46.9889 49.7867 46.6649 49.8187 46.3524 49.7565C46.0398 49.6943 45.7527 49.5409 45.5274 49.3156C45.3021 49.0902 45.1486 48.8032 45.0865 48.4906C45.0243 48.1781 45.0562 47.8541 45.1781 47.5597C45.3001 47.2653 45.5066 47.0136 45.7716 46.8366C46.0365 46.6596 46.348 46.5651 46.6667 46.5651C47.0876 46.5765 47.487 46.7537 47.7779 47.0582C48.0688 47.3627 48.2276 47.7697 48.2198 48.1908L48.2779 48.1763ZM40.6428 11.2348H40.9767H42.3266C42.7085 11.2112 43.0915 11.2112 43.4733 11.2348V31.0337C42.9927 30.964 42.5075 30.9301 42.0218 30.9321C41.5361 30.9293 41.0509 30.9633 40.5703 31.0337L40.6428 11.2348ZM41.9928 32.4272C42.3108 32.4272 42.6217 32.5213 42.8864 32.6977C43.151 32.8742 43.3575 33.1249 43.4799 33.4185C43.6022 33.7121 43.635 34.0353 43.574 34.3474C43.513 34.6596 43.361 34.9466 43.1371 35.1725C42.9132 35.3984 42.6275 35.553 42.3159 35.6168C42.0043 35.6806 41.6808 35.6508 41.3862 35.531C41.0915 35.4113 40.8389 35.2071 40.6601 34.944C40.4814 34.681 40.3844 34.3709 40.3816 34.0529C40.3777 33.8395 40.4166 33.6276 40.496 33.4295C40.5754 33.2315 40.6937 33.0514 40.8439 32.8998C40.9941 32.7483 41.1732 32.6284 41.3705 32.5472C41.5678 32.466 41.7794 32.4252 41.9928 32.4272ZM41.9928 37.5365C42.8776 37.5337 43.7434 37.7935 44.4805 38.2829C45.2176 38.7724 45.7929 39.4697 46.1335 40.2863C46.4741 41.103 46.5647 42.0024 46.3939 42.8705C46.223 43.7387 45.7984 44.5367 45.1737 45.1634C44.549 45.7901 43.7525 46.2173 42.8848 46.391C42.0172 46.5647 41.1175 46.477 40.2998 46.139C39.482 45.8011 38.7829 45.2281 38.291 44.4926C37.7992 43.7571 37.5366 42.8921 37.5366 42.0073C37.5366 40.8241 38.0056 39.6891 38.8409 38.8511C39.6762 38.0131 40.8096 37.5404 41.9928 37.5365ZM37.4059 46.5796C37.7246 46.5796 38.0361 46.6741 38.3011 46.8511C38.566 47.0282 38.7725 47.2798 38.8945 47.5742C39.0164 47.8686 39.0483 48.1926 38.9862 48.5051C38.924 48.8176 38.7706 49.1048 38.5452 49.3301C38.3199 49.5554 38.0328 49.7089 37.7203 49.771C37.4077 49.8332 37.0838 49.8013 36.7894 49.6793C36.495 49.5574 36.2433 49.3509 36.0663 49.0859C35.8892 48.821 35.7947 48.5094 35.7947 48.1908C35.7947 47.7634 35.9645 47.3536 36.2666 47.0515C36.5688 46.7493 36.9786 46.5796 37.4059 46.5796ZM34.619 41.0783C34.2997 41.0783 33.9876 40.9834 33.7224 40.8057C33.4571 40.628 33.2506 40.3755 33.1291 40.0803C33.0076 39.785 32.9766 39.4603 33.0399 39.1474C33.1033 38.8344 33.2582 38.5474 33.4849 38.3226C33.7117 38.0979 34.0002 37.9456 34.3137 37.8851C34.6272 37.8246 34.9516 37.8586 35.2457 37.9827C35.5398 38.1069 35.7905 38.3157 35.9657 38.5825C36.141 38.8494 36.2331 39.1623 36.2302 39.4816C36.2264 39.9064 36.0549 40.3125 35.7532 40.6115C35.4514 40.9105 35.0438 41.0783 34.619 41.0783ZM37.1447 11.5687L35.5915 32.9642L14.7476 27.6662C16.9765 23.4297 20.1604 19.7698 24.0476 16.9759C27.9348 14.1821 32.4187 12.3309 37.1447 11.5687ZM12.3816 33.5013C12.6109 32.6656 12.8822 31.8421 13.1944 31.0337C13.1944 31.0337 13.1944 30.9466 13.1944 30.9176L32.0643 37.1301C31.6318 37.9844 31.3146 38.8923 31.1208 39.83L12.2509 33.6174L12.3816 33.5013ZM19.9586 63.4899C14.2804 57.7284 11.1173 49.9513 11.1623 41.8621C11.1983 40.2664 11.3487 38.6753 11.6123 37.1011H11.8155L31.4402 45.1571L19.9586 63.4899ZM24.8647 67.5832L24.7776 67.4961C24.0642 67.0649 23.3848 66.5797 22.7455 66.0446L22.6149 65.943L34.2271 49.9762C34.9083 50.6571 35.6859 51.2342 36.535 51.689L24.8647 67.5832ZM41.8912 72.8232C37.0498 72.8153 32.281 71.6455 27.9855 69.4121L41.8476 53.0679L55.7533 69.5428C51.4612 71.7284 46.7076 72.8533 41.8912 72.8232ZM61.1239 66.1607C60.4127 66.6833 59.6724 67.2203 58.9321 67.7429L47.3199 51.6745C48.153 51.225 48.924 50.6687 49.6133 50.0197L61.2255 66.1026L61.1239 66.1607ZM63.8673 63.7076L52.6325 45.2587L72.4894 37.3043C72.755 38.8916 72.8765 40.4997 72.8523 42.1089C72.8595 46.1246 72.0689 50.1018 70.5265 53.8096C68.9841 57.5173 66.7206 60.8818 63.8673 63.7076Z" fill="#9FA0A2"/>
</g>
<defs>
<clipPath id="clip0_100_3326">
<rect width="84" height="84" fill="white"/>
</clipPath>
</defs>
</svg>
