<svg width="84" height="84" viewBox="0 0 84 84" fill="none" xmlns="http://www.w3.org/2000/svg">
<g opacity="0.8">
<path d="M51.0455 75.7478C32.3692 80.7549 13.1023 69.6258 8.09792 50.9393C3.09353 32.2494 14.2166 12.9721 32.893 7.96499C51.5693 2.95789 70.8362 14.087 75.8406 32.7735C80.845 51.4634 69.7219 70.7407 51.0455 75.7478ZM33.1565 8.94638C15.0173 13.8099 4.21785 32.5298 9.07544 50.6756C13.9364 68.8213 32.6428 79.63 50.782 74.7664C68.9179 69.9028 79.7206 51.1863 74.8597 33.0372C70.0021 14.8915 51.2924 4.08616 33.1565 8.94638Z" fill="#C4C4C4"/>
<path d="M81.8191 31.1646C80.6715 30.4702 80.2144 29.0282 80.7549 27.7998C81.3687 26.3978 80.6881 24.7688 79.2569 24.2247C78.0025 23.744 77.2985 22.4088 77.6088 21.1036C77.9624 19.6149 77.0016 18.1328 75.4969 17.8524C74.1758 17.6053 73.245 16.417 73.3184 15.0751C73.4018 13.5462 72.1907 12.2611 70.6627 12.2511C69.3215 12.2444 68.1905 11.2396 68.0237 9.90775C67.8336 8.38893 66.4123 7.34078 64.9043 7.60448C63.5832 7.83815 62.292 7.0537 61.8883 5.77189C61.4279 4.31315 59.8432 3.53538 58.4086 4.0628C57.1475 4.52679 55.7396 3.98602 55.1157 2.79767C54.4051 1.44241 52.7036 0.961731 51.3892 1.7395C50.2315 2.42047 48.7502 2.14007 47.9228 1.0819C46.982 -0.123142 45.2238 -0.293383 44.0661 0.704699C43.0485 1.58261 41.5405 1.5726 40.5363 0.677995C39.3953 -0.340116 37.6338 -0.193241 36.6729 0.995111C35.8289 2.03993 34.3442 2.3003 33.1966 1.5993C31.8921 0.801503 30.1839 1.25882 29.4533 2.60406C28.8094 3.7824 27.3948 4.30314 26.1404 3.81912C24.7125 3.26834 23.1177 4.02274 22.6373 5.4748C22.2136 6.74994 20.9125 7.51436 19.5946 7.264C18.0933 6.97693 16.6554 8.00505 16.4419 9.52054C16.255 10.8524 15.1107 11.8372 13.7662 11.8238C12.2382 11.8105 11.0071 13.0789 11.0672 14.6078C11.1206 15.9497 10.1697 17.1247 8.84523 17.3516C7.33724 17.612 6.35304 19.0774 6.68667 20.5729C6.97692 21.8847 6.25296 23.21 4.99185 23.6706C3.55393 24.1947 2.84998 25.8136 3.44049 27.2256C3.96095 28.4641 3.48386 29.8961 2.32618 30.5737C1.00503 31.3448 0.601341 33.0673 1.4354 34.3457C2.16938 35.4707 1.95586 36.9661 0.934966 37.8407C-0.226051 38.8354 -0.319466 40.6013 0.731454 41.7129C1.65226 42.6876 1.70898 44.1997 0.864905 45.2412C-0.0992726 46.4295 0.124256 48.182 1.35533 49.0867C2.43628 49.8811 2.76323 51.3565 2.116 52.5349C1.37869 53.8768 1.91249 55.5592 3.28703 56.2301C4.49475 56.8209 5.07526 58.2129 4.64822 59.4881C4.16113 60.9401 4.98852 62.5023 6.4598 62.9163C7.75094 63.2801 8.57499 64.5486 8.38149 65.8771C8.16129 67.3926 9.25225 68.7812 10.7736 68.9281C12.1114 69.055 13.1457 70.1565 13.1924 71.4984C13.2457 73.0273 14.5669 74.1989 16.0916 74.0721C17.4294 73.9586 18.6438 74.8565 18.9307 76.1684C19.2577 77.6638 20.7657 78.5818 22.2436 78.1813C23.5414 77.8307 24.896 78.495 25.4097 79.7368C25.9969 81.1488 27.645 81.783 29.0262 81.1254C30.2406 80.5479 31.6919 80.9619 32.4192 82.0901C33.2499 83.3753 34.9848 83.7024 36.2259 82.8111C37.3168 82.0267 38.8181 82.1736 39.739 83.155C40.7865 84.2699 42.5514 84.2832 43.6157 83.185C44.5498 82.2203 46.0545 82.0935 47.1321 82.8946C48.3598 83.8059 50.1014 83.5021 50.9488 82.2303C51.6961 81.1121 53.154 80.7215 54.3584 81.3157C55.7296 81.9933 57.3877 81.3824 57.9983 79.9805C58.5321 78.7487 59.8966 78.1045 61.1877 78.4717C62.659 78.8923 64.1804 77.9977 64.5307 76.5089C64.8376 75.2003 66.0653 74.3224 67.3998 74.456C68.9212 74.6062 70.259 73.4545 70.3357 71.9257C70.4025 70.5838 71.4534 69.4989 72.7946 69.3921C74.3192 69.2686 75.4302 67.8967 75.2334 66.3778C75.0599 65.046 75.9006 63.7908 77.1984 63.447C78.6764 63.0531 79.5238 61.5043 79.0601 60.0455C78.653 58.767 79.2569 57.3817 80.4713 56.8109C81.8558 56.16 82.413 54.4843 81.6957 53.1324C81.0651 51.944 81.4121 50.4753 82.5064 49.6975C83.7508 48.8096 84.0011 47.0604 83.0569 45.8587C82.2262 44.8039 82.3062 43.2951 83.2404 42.3337C84.308 41.2389 84.2413 39.473 83.0969 38.4582C82.0894 37.567 81.8992 36.0715 82.6499 34.9566C83.5073 33.6848 83.1269 31.959 81.8191 31.1646ZM51.4359 77.2099C31.9221 82.4406 11.8612 70.8542 6.63329 51.3298C1.40538 31.8055 12.9855 11.7337 32.4993 6.50292C52.013 1.27217 72.0739 12.8586 77.3018 32.383C82.5331 51.9107 70.953 71.9791 51.4359 77.2099Z" fill="#C4C4C4"/>
<path d="M47.6492 63.0631C35.9623 66.1975 23.9051 59.231 20.7757 47.5377C17.6429 35.8445 24.6057 23.7807 36.2926 20.6496C47.9795 17.5152 60.0367 24.4817 63.1661 36.175C66.2955 47.8682 59.3361 59.9286 47.6492 63.0631ZM36.5528 21.631C25.4064 24.6186 18.7672 36.1249 21.7532 47.2774C24.7391 58.4299 36.2392 65.0726 47.3856 62.085C58.5321 59.0975 65.1712 47.5911 62.1853 36.4387C59.196 25.2862 47.6992 18.6434 36.5528 21.631Z" fill="#C4C4C4"/>
<path d="M13.939 38.8755L14.3393 36.3953L15.5771 36.5955L15.1767 39.0757L13.939 38.8755Z" fill="#C4C4C4"/>
<path d="M18.7439 31.7756C18.2801 32.1027 17.7697 32.2896 17.2159 32.3297C16.6621 32.3698 16.1149 32.2563 15.5778 31.9859C15.0406 31.7155 14.6236 31.345 14.33 30.8743C14.0331 30.4036 13.8796 29.8829 13.8696 29.3154C13.8563 28.748 13.9931 28.1805 14.28 27.6197C14.5269 27.129 14.8371 26.7284 15.2108 26.4213C15.5845 26.1142 16.0015 25.9139 16.4586 25.8171L16.8456 27.2258C16.2517 27.3627 15.828 27.6798 15.5778 28.1738C15.431 28.4642 15.3643 28.758 15.3776 29.0517C15.391 29.3455 15.481 29.6125 15.6512 29.8562C15.8213 30.0999 16.0549 30.2968 16.3585 30.4504C16.6621 30.6039 16.959 30.6774 17.2559 30.6674C17.5528 30.6607 17.8231 30.5739 18.0633 30.4103C18.3068 30.2468 18.5003 30.0198 18.6471 29.7294C18.8974 29.232 18.9007 28.7046 18.6571 28.1438L20.0217 27.6197C20.2185 28.047 20.3019 28.5009 20.2786 28.9816C20.2519 29.4623 20.1184 29.9497 19.8682 30.4404C19.5813 31.0045 19.2076 31.4485 18.7439 31.7756Z" fill="#C4C4C4"/>
<path d="M23.6248 22.8929L24.6224 23.7508L21.4729 27.4193L16.9056 23.4904L19.9816 19.9087L20.9792 20.7666L19.0008 23.0698L19.7715 23.7308L21.513 21.7012L22.4772 22.5324L20.7356 24.562L21.5697 25.2796L23.6248 22.8929Z" fill="#C4C4C4"/>
<path d="M26.6074 20.2191L25.8501 20.7565L26.7742 22.0617L25.3864 23.0464L21.9066 18.1328L24.1519 16.5405C24.5957 16.2267 25.0361 16.0264 25.4664 15.9397C25.8968 15.8562 26.3005 15.8862 26.6708 16.0331C27.0411 16.18 27.3581 16.4404 27.6217 16.8109C27.8719 17.1681 28.0087 17.5353 28.032 17.9191C28.052 18.303 27.962 18.6769 27.7584 19.0441L29.9103 19.8385L28.4224 20.8933L26.6074 20.2191ZM25.6232 17.4284C25.3897 17.4051 25.1295 17.4952 24.8425 17.6955L24.0719 18.2429L25.0894 19.6816L25.8601 19.1342C26.1437 18.9306 26.3172 18.7169 26.3739 18.4899C26.4306 18.263 26.3772 18.036 26.2171 17.8056C26.0569 17.5786 25.8568 17.4518 25.6232 17.4284Z" fill="#C4C4C4"/>
<path d="M30.1472 14.7145L28.4291 15.4021L27.9286 14.147L32.9363 12.1442L33.4368 13.3993L31.7286 14.0836L33.4635 18.4231L31.8821 19.054L30.1472 14.7145Z" fill="#C4C4C4"/>
<path d="M34.7613 11.757L36.4261 11.4032L37.6738 17.2949L36.009 17.6487L34.7613 11.757Z" fill="#C4C4C4"/>
<path d="M40.5797 12.2478L40.6264 13.573L43.282 13.4795L43.3288 14.7947L40.6731 14.8882L40.7432 16.9511L39.0417 17.0112L38.8348 10.9927L43.5523 10.8291L43.599 12.1443L40.5797 12.2478Z" fill="#C4C4C4"/>
<path d="M45.5707 11.0861L47.2555 11.3264L46.4081 17.2882L44.7233 17.0478L45.5707 11.0861Z" fill="#C4C4C4"/>
<path d="M52.7903 17.7556L52.3767 19.0041L47.7893 17.4786L49.6876 11.7638L54.1682 13.2526L53.7545 14.501L50.8753 13.543L50.5551 14.5077L53.094 15.3522L52.6936 16.5606L50.1547 15.7161L49.8077 16.7609L52.7903 17.7556Z" fill="#C4C4C4"/>
<path d="M56.6037 14.3574L58.9891 15.913C59.543 16.2735 59.9633 16.6941 60.2569 17.1814C60.5505 17.6654 60.6906 18.1762 60.6773 18.7103C60.6639 19.2444 60.4938 19.7651 60.1635 20.2725C59.8299 20.7832 59.4262 21.1504 58.9424 21.3774C58.4587 21.6044 57.9382 21.6811 57.3744 21.6077C56.8139 21.5343 56.2567 21.3206 55.7029 20.9601L53.3175 19.4046L56.6037 14.3574ZM56.3902 19.7818C56.8239 20.0622 57.2476 20.1657 57.6713 20.0922C58.0917 20.0188 58.4453 19.7651 58.7256 19.3311C59.0058 18.8972 59.0959 18.4733 58.9958 18.0593C58.8924 17.6421 58.6255 17.2949 58.1951 17.0145L57.2943 16.427L55.4927 19.1943L56.3902 19.7818Z" fill="#C4C4C4"/>
<path d="M63.3997 23.5537L64.961 25.5198L63.9768 26.3009L62.4155 24.3348L63.3997 23.5537Z" fill="#C4C4C4"/>
<path d="M20.0817 58.1963L21.6097 60.1891L20.6122 60.9535L19.0842 58.9607L20.0817 58.1963Z" fill="#C4C4C4"/>
<path d="M24.2854 66.5514C24.0252 66.0474 23.9118 65.5166 23.9451 64.9625C23.9785 64.4084 24.1687 63.8843 24.509 63.387C24.8492 62.8929 25.273 62.5291 25.7801 62.2988C26.2872 62.0684 26.821 61.9883 27.3848 62.0551C27.9486 62.1218 28.4891 62.3321 29.0096 62.6926C29.4633 63.0064 29.8169 63.3669 30.0672 63.7775C30.3207 64.1881 30.4608 64.6287 30.4942 65.096L29.0463 65.2863C28.9929 64.6788 28.736 64.2148 28.2789 63.901C28.0087 63.7141 27.7284 63.6106 27.4382 63.5806C27.1479 63.5539 26.8677 63.6073 26.6041 63.7408C26.3406 63.8743 26.1137 64.0813 25.9202 64.3617C25.7267 64.6387 25.6166 64.9258 25.5832 65.2229C25.5499 65.5166 25.5999 65.797 25.7267 66.0608C25.8568 66.3245 26.0536 66.5481 26.3239 66.735C26.7809 67.0522 27.3047 67.1256 27.8919 66.962L28.2255 68.384C27.7751 68.5209 27.3147 68.5443 26.841 68.4541C26.3672 68.364 25.9035 68.1637 25.4498 67.85C24.936 67.4861 24.5456 67.0555 24.2854 66.5514Z" fill="#C4C4C4"/>
<path d="M34.5644 70.5872L34.104 71.819L29.5801 70.1232L31.6919 64.4852L36.1125 66.1442L35.652 67.376L32.8096 66.3111L32.4526 67.2625L34.9581 68.2005L34.511 69.3922L32.0089 68.4542L31.6218 69.4857L34.5644 70.5872Z" fill="#C4C4C4"/>
<path d="M39.1551 71.0645L38.231 70.9611L38.0541 72.5533L36.3627 72.3664L37.0266 66.3812L39.7623 66.685C40.3028 66.7451 40.7632 66.8853 41.1435 67.1089C41.5238 67.3326 41.8008 67.623 41.9809 67.9802C42.1611 68.3373 42.2245 68.7412 42.1744 69.1919C42.1277 69.6258 41.9842 69.993 41.744 70.2901C41.5072 70.5905 41.1902 70.8108 40.7932 70.951L41.8742 72.9739L40.0626 72.7736L39.1551 71.0645ZM40.2727 68.324C40.1126 68.1504 39.8591 68.0436 39.5121 68.0069L38.5713 67.9034L38.3778 69.6559L39.3186 69.7593C39.6655 69.7961 39.9358 69.7527 40.1293 69.6192C40.3228 69.489 40.4362 69.282 40.4663 69.0016C40.4963 68.7246 40.4329 68.4976 40.2727 68.324Z" fill="#C4C4C4"/>
<path d="M44.6266 68.057L42.7916 68.2973L42.6181 66.9588L47.9628 66.2611L48.1363 67.5997L46.3114 67.8367L46.9152 72.4699L45.2271 72.6902L44.6266 68.057Z" fill="#C4C4C4"/>
<path d="M48.5967 65.9539L50.2214 65.4465L52.0197 71.1947L50.3949 71.7021L48.5967 65.9539Z" fill="#C4C4C4"/>
<path d="M53.5377 65.46L54.1482 66.635L56.5036 65.4065L57.1108 66.5749L54.7554 67.8033L55.7096 69.6359L54.1983 70.4237L51.4192 65.0828L55.6062 62.8997L56.2134 64.068L53.5377 65.46Z" fill="#C4C4C4"/>
<path d="M56.2234 62.3221L57.5712 61.2806L61.2545 66.0441L59.9066 67.0855L56.2234 62.3221Z" fill="#C4C4C4"/>
<path d="M65.2913 60.0656L66.2722 60.9435L63.0494 64.5486L58.5621 60.5329L61.7082 57.0112L62.6891 57.8891L60.6639 60.1524L61.4213 60.83L63.2028 58.8372L64.1503 59.685L62.3688 61.6779L63.1895 62.4122L65.2913 60.0656Z" fill="#C4C4C4"/>
<path d="M62.2887 56.2836L63.5765 53.7433C63.8734 53.1558 64.2504 52.6885 64.7008 52.3447C65.1512 52.0009 65.6416 51.8073 66.1721 51.7605C66.7026 51.7138 67.2397 51.8306 67.7802 52.1043C68.3206 52.3781 68.731 52.7453 69.0079 53.1992C69.2848 53.6565 69.4183 54.1673 69.4049 54.7314C69.3949 55.2989 69.2381 55.8764 68.9412 56.4639L67.6534 59.0041L62.2887 56.2836ZM67.7001 55.9164C67.9336 55.4558 67.9904 55.0218 67.8703 54.6079C67.7502 54.1973 67.4599 53.8735 66.9995 53.6399C66.5391 53.4062 66.1087 53.3628 65.705 53.5097C65.3013 53.6565 64.9844 53.9603 64.7509 54.421L64.2638 55.379L67.2097 56.8744L67.7001 55.9164Z" fill="#C4C4C4"/>
<path d="M68.711 47.8683L69.068 45.3815L70.3091 45.5617L69.9521 48.0486L68.711 47.8683Z" fill="#C4C4C4"/>
<path d="M36.9332 23.0531C26.5541 25.8371 20.3953 36.5089 23.1744 46.8936C25.9569 57.2783 36.6229 63.4404 47.002 60.6598C57.3811 57.8758 63.5398 47.204 60.7607 36.8193C57.9816 26.4346 47.3122 20.2725 36.9332 23.0531ZM40.7632 57.8091L26.8677 49.781L30.9146 42.7711L37.8039 46.7501L48.6734 27.9133L55.6796 31.9624L40.7632 57.8091Z" fill="#C4C4C4"/>
</g>
</svg>
