<svg width="84" height="84" viewBox="0 0 84 84" fill="none" xmlns="http://www.w3.org/2000/svg">
<g clip-path="url(#clip0_100_3310)">
<path d="M81.1526 59.4072C79.2649 56.7424 76.573 54.7075 73.4453 53.5808C70.3176 52.4541 66.9069 52.2906 63.6795 53.1128L51.6857 41.4987L49.1546 43.9496L57.208 51.748C57.6557 52.1337 57.9678 52.6451 58.1008 53.2109C58.2338 53.7766 58.181 54.3685 57.9497 54.9038C57.7185 55.4391 57.3203 55.891 56.8109 56.1966C56.3015 56.5021 55.7063 56.646 55.1084 56.6081C54.7254 56.6084 54.3462 56.5347 53.9931 56.3912C53.64 56.2477 53.32 56.0374 53.0519 55.7725L44.9985 47.9602L42.4674 50.4251L53.4258 61.0365C52.085 63.5189 51.4548 66.3036 51.6007 69.1016C51.7467 71.8995 52.6633 74.6086 54.2556 76.9476C55.8478 79.2866 58.0576 81.1703 60.6555 82.4031C63.2534 83.6359 66.1447 84.1729 69.0293 83.9582L61.6949 73.6114C61.2136 72.9297 61.0311 72.0909 61.1874 71.279C61.3438 70.4671 61.8263 69.7484 62.529 69.2805L70.6256 63.8913C71.3313 63.4266 72.1975 63.2495 73.037 63.398C73.8765 63.5465 74.622 64.0088 75.1125 64.685L82.4325 75.0318C83.652 72.5473 84.1757 69.796 83.951 67.0537C83.7264 64.3114 82.7613 61.6745 81.1526 59.4072ZM30.301 26.8767C30.6888 26.8726 31.0734 26.9445 31.4318 27.0881C31.7901 27.2317 32.1148 27.444 32.3863 27.7122L41.3744 36.4158L43.9055 33.9649L32.2424 22.6711C33.5323 20.1746 34.1113 17.3902 33.9196 14.6049C33.7278 11.8196 32.7724 9.13416 31.1517 6.82555C29.5311 4.51695 27.3039 2.66869 24.6997 1.47134C22.0956 0.274003 19.2088 -0.229084 16.3369 0.0139405L23.772 10.2772C24.0147 10.6128 24.1868 10.9913 24.2784 11.3913C24.37 11.7913 24.3793 12.2048 24.3059 12.6083C24.2324 13.0117 24.0776 13.3972 23.8503 13.7428C23.623 14.0883 23.3276 14.3871 22.981 14.622L14.8988 20.1366C14.553 20.3735 14.162 20.5416 13.7487 20.6313C13.3353 20.721 12.9077 20.7306 12.4905 20.6593C12.0733 20.5881 11.6749 20.4376 11.3181 20.2164C10.9613 19.9952 10.6533 19.7078 10.4119 19.3707L2.94814 9.09352C1.64064 11.8265 1.17216 14.8659 1.59853 17.8496C2.0249 20.8332 3.32815 23.6352 5.35297 25.9217C7.37778 28.2082 10.0388 29.8828 13.0189 30.7459C15.999 31.609 19.1725 31.6242 22.1613 30.7898L34.6585 42.8913L37.2039 40.4403L28.2157 31.7367C27.9352 31.4767 27.7118 31.1644 27.5593 30.8186C27.4067 30.4727 27.328 30.1006 27.328 29.7245C27.328 29.3484 27.4067 28.9762 27.5593 28.6304C27.7118 28.2846 27.9352 27.9722 28.2157 27.7122C28.4872 27.444 28.8119 27.2317 29.1702 27.0881C29.5286 26.9445 29.9132 26.8726 30.301 26.8767Z" fill="#9FA0A2"/>
<path d="M29.0641 45.1737L28.576 45.6464C28.0312 46.1739 28.0312 47.0292 28.576 47.5567L37.6467 56.3402C38.1915 56.8677 39.0747 56.8677 39.6195 56.3402L40.1076 55.8676C40.6524 55.34 40.6524 54.4848 40.1076 53.9572L31.0369 45.1737C30.4921 44.6462 29.6089 44.6462 29.0641 45.1737Z" fill="#9FA0A2"/>
<path d="M35.6076 58.2792L15.7904 79.1678L13.3457 81.7441C12.6122 82.466 11.7303 83.0306 10.757 83.4013C10.0622 83.6869 9.32385 83.8609 8.57114 83.9165C8.32208 83.9307 8.07237 83.9307 7.82331 83.9165C6.79785 83.9246 5.78105 83.7342 4.8327 83.3563C3.88435 82.9785 3.02358 82.4208 2.30098 81.7162C1.57351 81.0138 0.996338 80.1793 0.602524 79.2604C0.20871 78.3416 0.00598145 77.3566 0.00598145 76.3618C0.00598145 75.367 0.20871 74.382 0.602524 73.4632C0.996338 72.5443 1.57351 71.7098 2.30098 71.0073L4.94709 68.6539L26.5187 49.4503L35.6076 58.2792Z" fill="#9FA0A2"/>
<path d="M76.1911 13.5636L72.4233 19.301L69.0868 20.6936L39.1598 49.6869L35.4351 46.0941L65.3909 17.1007L66.829 13.8839L72.754 10.2354L73.0704 10.5417L68.7561 14.0789C68.4392 14.552 68.3005 15.1165 68.3634 15.6771C68.4263 16.2377 68.6868 16.7602 69.1012 17.1564C69.8922 17.9084 71.5748 18.3541 72.3514 17.6021L75.9322 13.2572L76.1911 13.5636Z" fill="#9FA0A2"/>
</g>
<defs>
<clipPath id="clip0_100_3310">
<rect width="84" height="84" fill="white"/>
</clipPath>
</defs>
</svg>
