<svg width="55" height="84" viewBox="0 0 55 84" fill="none" xmlns="http://www.w3.org/2000/svg">
<g clip-path="url(#clip0_100_3315)">
<path d="M41.2369 50.5215C39.4 54.0642 33.942 56.658 27.5 56.658C20.8349 56.658 15.2326 53.8871 13.5925 50.1546L16.5708 49.1804V44.0435C19.6373 46.7528 23.6301 48.2795 27.7886 48.3326C31.6848 48.3177 35.4497 46.973 38.416 44.5369V49.4461L41.2369 50.5215Z" fill="#9FA0A2"/>
<path d="M47.8757 21.8762L45.6846 21.2942H45.5796C45.0411 21.13 44.4875 21.0156 43.9265 20.9526L42.6145 22.9517V23.0403L42.5489 23.1035L42.3521 23.4199L42.0372 23.8754C41.7422 24.4481 41.2754 24.922 40.6975 25.2357C40.1196 25.5493 39.4572 25.6881 38.7965 25.634H38.2454L37.9699 25.4949C37.432 25.2165 33.9157 24.6978 27.8936 24.6978C22.0813 24.6978 18.4732 25.1659 17.8435 25.4949L17.5811 25.634H17.03C16.3507 25.6895 15.6701 25.5435 15.0792 25.2156C14.4883 24.8878 14.0154 24.3937 13.7237 23.7995L13.4613 23.3946L13.2645 23.1035H13.1989L13.1333 22.9897L11.8213 21.0032C11.2617 21.0686 10.7088 21.1786 10.1682 21.3322H10.0501L7.9377 21.7244C7.32761 23.273 7.1644 24.9521 7.46539 26.583C7.54264 27.5891 7.83416 28.569 8.32176 29.4616C8.80937 30.3541 9.48256 31.1401 10.2993 31.7705C10.4299 31.8515 10.5711 31.9153 10.7192 31.9603C11.7034 35.9166 13.7746 39.5443 16.7151 42.4619C18.1648 43.9303 19.9036 45.1051 21.8297 45.9177C23.7559 46.7302 25.8308 47.1641 27.9329 47.1939C31.8999 47.1455 35.6992 45.6437 38.5603 42.9933C41.8131 40.004 44.0926 36.1658 45.1204 31.9476C46.603 31.4162 47.9282 29.278 48.3611 26.583C48.6197 24.9999 48.4525 23.3792 47.8757 21.8762ZM47.0622 26.3805C46.6686 28.8225 45.5141 30.48 44.6088 30.7963L44.0052 31.024L43.8478 31.606C42.8579 35.609 40.6837 39.2485 37.5894 42.0823C36.2507 43.3562 34.6592 44.3566 32.9103 45.0237C31.1614 45.6908 29.291 46.0108 27.4108 45.9648C25.5307 45.9187 23.6796 45.5074 21.968 44.7555C20.2565 44.0037 18.7198 42.9267 17.4499 41.5889C14.6599 38.8224 12.6931 35.383 11.7557 31.6313L11.5851 31.0114L10.9553 30.8089L10.811 30.733C10.1517 30.1867 9.61144 29.5195 9.22178 28.7701C8.83212 28.0208 8.60078 27.2042 8.54122 26.3679C8.32348 25.1563 8.3772 23.9139 8.6987 22.724L10.2731 22.4203H10.4043C10.6315 22.3516 10.864 22.3008 11.0997 22.2685L11.9656 23.5337L12.1099 23.8121L12.2411 23.9007L12.5823 24.4194C12.9838 25.1843 13.6094 25.8186 14.3814 26.2437C15.1534 26.6688 16.0379 26.866 16.9251 26.8107H17.791L18.3289 26.5324C21.4471 25.9755 24.6198 25.7549 27.7886 25.8744C30.9889 25.7608 34.1923 25.99 37.3401 26.5577L37.8124 26.8107H38.6915C39.5522 26.8642 40.4107 26.6794 41.1661 26.2782C41.9216 25.8769 42.5424 25.276 42.9556 24.5459L43.4148 23.85L43.5591 23.6223L44.4644 22.357C44.6907 22.3931 44.9143 22.4438 45.1336 22.5089H45.2648L46.8785 22.9517C47.1678 24.0726 47.2302 25.2368 47.0622 26.3805Z" fill="#9FA0A2"/>
<path d="M0.0656011 74.8523H0.301765H10.5749V66.1473H44.6613V74.8523H55V84H0V74.8523H0.0656011Z" fill="#9FA0A2"/>
<path d="M1.29889 51.9512V73.6755H9.35473V49.5345L1.29889 51.9512ZM5.32681 72.4482C4.80782 72.4482 4.30048 72.2998 3.86896 72.0217C3.43744 71.7437 3.10109 71.3485 2.90248 70.8861C2.70387 70.4237 2.65192 69.9149 2.75317 69.4241C2.85442 68.9332 3.10435 68.4823 3.47133 68.1284C3.83831 67.7745 4.30585 67.5335 4.81486 67.4358C5.32388 67.3382 5.85148 67.3883 6.33097 67.5798C6.81045 67.7714 7.22028 68.0957 7.50862 68.5118C7.79695 68.928 7.95085 69.4172 7.95085 69.9177C7.95086 70.2511 7.88254 70.5812 7.74986 70.889C7.61716 71.1969 7.4227 71.4764 7.17765 71.7115C6.93259 71.9467 6.64176 72.1328 6.32188 72.2592C6.002 72.3857 5.65937 72.4499 5.31368 72.4482H5.32681Z" fill="#9FA0A2"/>
<path d="M45.9077 49.5345V73.6755H53.9635V51.9512L45.9077 49.5345ZM49.9356 72.4482C49.4166 72.4482 48.9092 72.2998 48.4777 72.0217C48.0462 71.7437 47.7099 71.3485 47.5112 70.8861C47.3126 70.4237 47.2607 69.9149 47.3619 69.4241C47.4632 68.9332 47.7131 68.4823 48.0801 68.1284C48.4471 67.7745 48.9146 67.5335 49.4236 67.4358C49.9326 67.3382 50.4603 67.3883 50.9397 67.5798C51.4192 67.7714 51.829 68.0957 52.1174 68.5118C52.4057 68.928 52.5596 69.4172 52.5596 69.9177C52.5596 70.2522 52.4909 70.5833 52.3574 70.892C52.2239 71.2007 52.0283 71.4807 51.7818 71.716C51.5354 71.9514 51.243 72.1372 50.9216 72.2629C50.6002 72.3886 50.2561 72.4516 49.9093 72.4482H49.9356Z" fill="#9FA0A2"/>
<path d="M46.5637 13.3105V20.5477C46.5637 20.2187 45.4878 19.9151 43.5985 19.6747H43.3361L41.5124 22.319C40.3709 24.0145 40.2003 24.4067 38.7178 24.4067H38.4685C37.432 23.8753 33.0498 23.4704 27.8148 23.4704C22.5799 23.4704 18.2502 23.8626 17.1875 24.4067H16.9513C15.4031 24.4067 15.2719 24.0145 14.1436 22.319L12.3199 19.6747H12.0443C10.1682 19.9151 9.07916 20.2187 9.07916 20.5477V13.3105C9.07916 5.37734 17.4761 0 27.8411 0C38.2061 0 46.5637 5.37734 46.5637 13.3105Z" fill="#9FA0A2"/>
</g>
<defs>
<clipPath id="clip0_100_3315">
<rect width="55" height="84" fill="white"/>
</clipPath>
</defs>
</svg>
