<svg width="90" height="79" viewBox="0 0 90 79" fill="none" xmlns="http://www.w3.org/2000/svg">
<path d="M22.9887 28.461C23.2038 28.2378 23.4845 28.089 23.79 28.0362C24.0945 28.0091 24.4007 28.0624 24.6782 28.1906C24.8552 28.2664 25.015 28.3773 25.1478 28.5167C25.2806 28.6561 25.3836 28.8211 25.4506 29.0016C25.5999 29.3734 25.5999 29.7884 25.4506 30.1601L24.6396 32.091L19.3586 29.8222L20.0538 28.21C20.2088 27.7917 20.5155 27.447 20.913 27.2445C21.0916 27.156 21.2881 27.11 21.4874 27.11C21.6867 27.11 21.8833 27.156 22.0619 27.2445C22.3325 27.3501 22.5717 27.5228 22.757 27.7465C22.8901 27.9628 22.9695 28.2078 22.9887 28.461ZM22.0232 29.6002L22.1198 29.3685C22.1576 29.2834 22.1771 29.1913 22.1771 29.0982C22.1771 29.005 22.1576 28.9129 22.1198 28.8278C22.0279 28.6532 21.8776 28.5165 21.695 28.4417C21.6037 28.3873 21.5011 28.3549 21.3951 28.3471C21.2892 28.3392 21.1829 28.356 21.0846 28.3963C20.9863 28.4366 20.8987 28.4991 20.8287 28.579C20.7587 28.659 20.7082 28.754 20.6813 28.8568L20.6137 29.0113L22.0232 29.6002ZM24.2148 30.5656L24.3403 30.2374C24.3781 30.1523 24.3976 30.0602 24.3976 29.9671C24.3976 29.8739 24.3781 29.7818 24.3403 29.6967C24.2437 29.5246 24.09 29.3914 23.9059 29.3202C23.8164 29.2751 23.7182 29.2501 23.618 29.247C23.5179 29.2439 23.4183 29.2629 23.3262 29.3024C23.2342 29.342 23.1519 29.4013 23.0853 29.4761C23.0186 29.5509 22.9692 29.6394 22.9404 29.7354L22.8439 29.9767L24.2148 30.5656Z" fill="#9FA0A2"/>
<path d="M27.9511 25.8445L26.3968 28.2581L21.5696 25.1301L23.0274 22.8806L23.9928 23.4792L23.1239 24.7053L24.0894 25.3328L24.7748 24.2902L25.663 24.8694L24.9872 25.9121L26.0589 26.6072L26.9374 25.2363L27.9511 25.8445Z" fill="#9FA0A2"/>
<path d="M26.9084 20.7374C26.7204 20.712 26.5291 20.7272 26.3476 20.7822C26.166 20.8372 25.9984 20.9306 25.8561 21.056C25.8091 21.1028 25.7721 21.1585 25.7473 21.2199C25.7224 21.2812 25.7101 21.347 25.7113 21.4132C25.7082 21.4714 25.7169 21.5296 25.7368 21.5843C25.7567 21.639 25.7874 21.6892 25.8271 21.7318C25.9558 21.8067 26.0986 21.854 26.2466 21.8706C26.3945 21.8872 26.5443 21.8728 26.6864 21.8284C27.0047 21.7652 27.3275 21.7265 27.6518 21.7125C27.8754 21.706 28.0982 21.7421 28.3083 21.8187C28.5405 21.901 28.7539 22.0291 28.9358 22.1952C29.1117 22.3423 29.2561 22.5232 29.3606 22.7272C29.4651 22.9312 29.5275 23.1541 29.5441 23.3827C29.553 23.6144 29.5158 23.8455 29.4346 24.0626C29.3534 24.2798 29.2298 24.4786 29.071 24.6475C28.7802 24.9856 28.387 25.2195 27.9511 25.3136L26.9856 24.3482C27.2098 24.3648 27.4349 24.3339 27.6462 24.2573C27.8575 24.1808 28.0503 24.0604 28.2117 23.9041C28.321 23.7924 28.3862 23.6449 28.3952 23.4889C28.3981 23.4225 28.3867 23.3562 28.3617 23.2946C28.3367 23.2329 28.2987 23.1774 28.2504 23.1317C28.1327 23.0525 27.9991 23.0002 27.8589 22.9785C27.7187 22.9568 27.5755 22.9663 27.4394 23.0062C27.0147 23.0726 26.5851 23.1017 26.1554 23.0931C25.9268 23.0759 25.7021 23.0238 25.4892 22.9386C25.2922 22.8655 25.1117 22.754 24.9582 22.6104C24.8023 22.4784 24.6768 22.3143 24.5902 22.1294C24.5035 21.9444 24.4578 21.743 24.4562 21.5387C24.4506 21.1035 24.6171 20.6836 24.9196 20.3706C25.1823 20.0865 25.5153 19.8767 25.885 19.7623L26.9084 20.7374Z" fill="#9FA0A2"/>
<path d="M30.1523 17.2715L29.2834 17.9762L32.1797 21.558L31.2143 22.3497L28.3179 18.7679L27.4297 19.492L26.725 18.6231L29.4379 16.4122L30.1523 17.2715Z" fill="#9FA0A2"/>
<path d="M38.8316 18.0922L38.4358 18.7583L37.7021 18.3239C37.4918 18.5946 37.216 18.8072 36.9007 18.9418C36.524 19.1288 36.0943 19.1799 35.6843 19.0866C35.3095 18.9783 34.9742 18.7637 34.7189 18.4687C34.3575 18.0578 34.0701 17.5874 33.8693 17.0785C33.4752 16.3604 33.326 15.5333 33.4445 14.7228C33.5153 14.4479 33.6489 14.1933 33.8349 13.9789C34.0209 13.7644 34.254 13.5961 34.5161 13.487C34.8756 13.3118 35.2831 13.2608 35.6746 13.3422C36.0639 13.4382 36.4163 13.6463 36.6883 13.9408C37.0552 14.3584 37.3489 14.835 37.5572 15.3503C37.9259 16.0321 38.0774 16.8102 37.9917 17.5805L38.8316 18.0922ZM36.9007 17.0495C36.7366 16.6344 36.6111 16.3254 36.5242 16.1323C36.3557 15.7344 36.1622 15.3474 35.9449 14.9738C35.843 14.7897 35.6837 14.6439 35.4912 14.5587C35.4007 14.5162 35.3012 14.4963 35.2013 14.5007C35.1014 14.5052 35.0041 14.5338 34.9177 14.5841C34.8313 14.6344 34.7584 14.7049 34.7053 14.7896C34.6521 14.8743 34.6203 14.9707 34.6126 15.0704C34.6134 15.5441 34.7364 16.0097 34.9698 16.422C35.1238 16.7998 35.3078 17.1646 35.5202 17.5129C35.6237 17.671 35.7714 17.7952 35.9449 17.8701C36.0203 17.9061 36.1028 17.9248 36.1863 17.9248C36.2698 17.9248 36.3523 17.9061 36.4277 17.8701C36.5183 17.8278 36.6001 17.7688 36.669 17.6964L35.6264 17.0495L36.0318 16.3834L36.8814 17.0592L36.9007 17.0495Z" fill="#9FA0A2"/>
<path d="M42.6066 15.4757C42.674 15.699 42.6934 15.934 42.6635 16.1653C42.6335 16.3966 42.5549 16.619 42.4328 16.8177C42.2914 17.0158 42.1118 17.1837 41.9045 17.3113C41.6973 17.439 41.4665 17.5239 41.226 17.5611C40.7391 17.6947 40.2193 17.6323 39.7778 17.3873C39.5762 17.2454 39.4049 17.0648 39.2739 16.8559C39.143 16.647 39.055 16.4141 39.0151 16.1708L38.1559 12.2318L39.382 11.9712L40.2026 15.7074C40.2383 15.9254 40.3393 16.1274 40.4922 16.2867C40.5557 16.3431 40.632 16.3831 40.7144 16.4033C40.7969 16.4234 40.883 16.4232 40.9653 16.4025C41.047 16.3884 41.1237 16.3534 41.1879 16.301C41.2522 16.2485 41.3019 16.1805 41.3322 16.1033C41.3935 15.9117 41.3935 15.7059 41.3322 15.5143L40.5019 11.7105L41.728 11.4498L42.6066 15.4757Z" fill="#9FA0A2"/>
<path d="M47.6268 16.9047H46.4104L46.198 16.0165H44.6919L44.4988 16.924H43.2823L44.7981 11.1313H46.0532L47.6268 16.9047ZM46.0049 15.109L45.4353 12.6085L44.9043 15.1379L46.0049 15.109Z" fill="#9FA0A2"/>
<path d="M50.7355 17.426L48.0806 17.0302L48.9302 11.3438L50.1563 11.5272L49.4708 16.0937L50.9093 16.3061L50.7355 17.426Z" fill="#9FA0A2"/>
<path d="M52.9465 12.0968L54.1436 12.4347L52.5892 17.9667L51.3921 17.5902L52.9465 12.0968Z" fill="#9FA0A2"/>
<path d="M58.266 15.2538L57.2426 14.8097L55.4083 19.0673L54.269 18.5556L56.1034 14.3077L55.051 13.8539L55.4951 12.8306L58.71 14.2111L58.266 15.2538Z" fill="#9FA0A2"/>
<path d="M63.0738 16.9627L60.245 18.8935L58.8451 21.0658L57.8218 20.39L59.212 18.266L59.7237 14.7711L60.8436 15.5049L60.4574 17.4357L62.0407 16.2965L63.0738 16.9627Z" fill="#9FA0A2"/>
<path d="M32.9714 59.9826C33.1376 60.2413 33.2217 60.5442 33.2127 60.8515C33.1753 61.1579 33.0552 61.4482 32.8652 61.6915C32.7531 61.8496 32.6094 61.9827 32.4433 62.0824C32.2771 62.1821 32.092 62.2463 31.8997 62.2707C31.5031 62.3208 31.1024 62.2172 30.7798 61.9811L29.1096 60.7743L32.4597 56.1112L33.8982 57.1732C34.27 57.4152 34.5384 57.7869 34.6512 58.2159C34.7032 58.4086 34.7102 58.6107 34.6717 58.8065C34.6332 59.0023 34.5502 59.1867 34.4292 59.3454C34.2708 59.5882 34.051 59.7848 33.792 59.915C33.5291 60.0091 33.2461 60.0324 32.9714 59.9826ZM30.6736 60.7453L30.9729 60.9481C31.0446 61.0037 31.1272 61.0436 31.2154 61.0653C31.3035 61.0869 31.3953 61.0897 31.4846 61.0736C31.6771 61.0255 31.8434 60.9043 31.948 60.7357C32.0213 60.6594 32.0756 60.567 32.1066 60.4659C32.1376 60.3648 32.1445 60.2578 32.1267 60.1536C32.1088 60.0493 32.0668 59.9507 32.0039 59.8657C31.941 59.7807 31.859 59.7116 31.7646 59.664L31.5522 59.5192L30.6736 60.7453ZM32.0639 58.8144L32.2666 58.9593C32.3361 59.0194 32.4179 59.0635 32.5063 59.0885C32.5948 59.1136 32.6876 59.1189 32.7783 59.1041C32.8746 59.0858 32.9662 59.0481 33.0475 58.9933C33.1288 58.9385 33.1982 58.8678 33.2513 58.7855C33.3246 58.7083 33.3789 58.6151 33.4099 58.5133C33.4409 58.4115 33.4477 58.3039 33.4299 58.199C33.4121 58.0941 33.3702 57.9947 33.3073 57.9088C33.2445 57.823 33.1625 57.7529 33.0679 57.7042L32.9328 57.6076L32.0639 58.8144Z" fill="#9FA0A2"/>
<path d="M36.0222 64.8967L33.4348 63.661L35.8967 58.4766L38.3296 59.6254L37.8469 60.5909L36.5339 59.9633L36.0319 61.0253L37.1614 61.5563L36.7077 62.5218L35.5781 62.0004L35.0375 63.1396L36.5049 63.8444L36.0222 64.8967Z" fill="#9FA0A2"/>
<path d="M41.0233 62.1065C40.8109 61.6528 40.5695 61.3728 40.2799 61.2956C40.1557 61.2471 40.0179 61.2471 39.8937 61.2956C39.8383 61.3138 39.7882 61.3454 39.7479 61.3874C39.7075 61.4295 39.678 61.4808 39.662 61.5369C39.6041 61.7204 39.662 62.0003 39.942 62.3575C40.1431 62.6216 40.3207 62.9026 40.473 63.1975C40.5715 63.4007 40.6336 63.6196 40.6564 63.8443C40.678 64.0852 40.6517 64.328 40.5792 64.5588C40.526 64.7827 40.4264 64.993 40.2866 65.176C40.1469 65.359 39.9703 65.5105 39.7682 65.6207C39.566 65.7302 39.3438 65.7978 39.1148 65.8193C38.8859 65.8409 38.655 65.816 38.4359 65.7462C38.0112 65.6087 37.6421 65.3378 37.3835 64.9739L37.7601 63.6705C37.8459 63.8837 37.9765 64.0759 38.143 64.2342C38.3096 64.3924 38.5083 64.513 38.7255 64.5877C38.8721 64.6408 39.0327 64.6408 39.1793 64.5877C39.2415 64.5618 39.2972 64.5224 39.3423 64.4723C39.3874 64.4222 39.4207 64.3627 39.4399 64.2981C39.4607 64.1587 39.4508 64.0165 39.4107 63.8814C39.3707 63.7463 39.3016 63.6216 39.2082 63.5161C38.9614 63.16 38.7481 62.7819 38.571 62.3865C38.4882 62.1734 38.4393 61.9486 38.4262 61.7204C38.4142 61.5152 38.437 61.3096 38.4938 61.1121C38.5418 60.9062 38.634 60.7132 38.7641 60.5465C38.8941 60.3798 39.0588 60.2434 39.2469 60.1467C39.6397 59.9604 40.0892 59.9328 40.5019 60.0694C40.8721 60.1776 41.2059 60.3845 41.4674 60.668L41.0233 62.1065Z" fill="#9FA0A2"/>
<path d="M45.3291 62.1935L44.2188 62.068L43.6782 66.6635L42.4328 66.5187L42.9734 61.9232L41.8439 61.7976L41.979 60.6777L45.4546 61.0929L45.3291 62.1935Z" fill="#9FA0A2"/>
<path d="M52.6856 66.1325L52.1353 66.6828L51.5271 66.0746C51.2635 66.2917 50.947 66.4349 50.6099 66.4898C50.1986 66.577 49.7699 66.5225 49.3935 66.3353C49.0398 66.139 48.7513 65.8437 48.5632 65.4857C48.315 64.9981 48.1486 64.4729 48.0708 63.9313C47.866 63.1389 47.927 62.3011 48.2446 61.5467C48.3746 61.29 48.5643 61.0684 48.7979 60.9004C49.0314 60.7324 49.3019 60.6229 49.5866 60.5813C49.9916 60.4954 50.4137 60.5499 50.7837 60.7357C51.1413 60.9211 51.4342 61.2106 51.6236 61.566C51.868 62.0666 52.0247 62.6054 52.087 63.159C52.2928 63.9081 52.2522 64.7035 51.9712 65.4278L52.6856 66.1325ZM51.054 64.6458C50.9961 64.2017 50.9478 63.8798 50.9092 63.6803C50.8432 63.2532 50.7496 62.8307 50.6292 62.4156C50.5704 62.215 50.4527 62.0367 50.2913 61.9039C50.2142 61.843 50.1236 61.8015 50.0271 61.7826C49.9306 61.7638 49.831 61.7683 49.7366 61.7956C49.6422 61.823 49.5557 61.8725 49.4843 61.94C49.4128 62.0076 49.3585 62.0912 49.3259 62.1839C49.2057 62.646 49.2057 63.1313 49.3259 63.5934C49.3773 63.9939 49.4678 64.3884 49.5962 64.7713C49.6541 64.9539 49.765 65.1152 49.9148 65.2347C50.0523 65.331 50.2223 65.3692 50.3879 65.3409C50.4851 65.3167 50.579 65.281 50.6678 65.2347L49.8086 64.3465L50.3589 63.8058L51.025 64.6651L51.054 64.6458Z" fill="#9FA0A2"/>
<path d="M57.1075 62.6665C57.2031 62.8807 57.2525 63.1126 57.2525 63.3471C57.2525 63.5817 57.2031 63.8136 57.1075 64.0278C57.0025 64.2521 56.8535 64.4532 56.6695 64.619C56.4854 64.7848 56.27 64.9121 56.0359 64.9932C55.5762 65.2024 55.0529 65.2232 54.5781 65.0511C54.3515 64.9469 54.1488 64.7971 53.9827 64.6111C53.8166 64.425 53.6906 64.2067 53.6126 63.9698L52.1355 60.2239L53.294 59.7605L54.7036 63.323C54.7728 63.5312 54.9042 63.7132 55.0801 63.8443C55.1517 63.8877 55.2322 63.9141 55.3155 63.9216C55.3989 63.9292 55.4828 63.9176 55.561 63.8878C55.6392 63.858 55.7096 63.8108 55.7668 63.7497C55.824 63.6887 55.8665 63.6154 55.8911 63.5354C55.9309 63.3369 55.9072 63.1308 55.8235 62.9465L54.3947 59.3261L55.5628 58.8723L57.1075 62.6665Z" fill="#9FA0A2"/>
<path d="M62.6202 61.1507L61.6065 61.8169L60.95 61.17L59.6853 62.0003L60.0039 62.8595L58.9902 63.5257L57.2137 57.8199L58.2661 57.1731L62.6202 61.1507ZM60.2935 60.4846L58.4978 58.6599L59.386 61.0735L60.2935 60.4846Z" fill="#9FA0A2"/>
<path d="M65.6033 58.322L63.6724 60.1757L59.7141 56.0146L60.6023 55.165L63.7883 58.5055L64.8406 57.54L65.6033 58.322Z" fill="#9FA0A2"/>
<path d="M62.0409 53.6589L62.8229 52.6935L67.2929 56.2946L66.5109 57.26L62.0409 53.6589Z" fill="#9FA0A2"/>
<path d="M65.9992 49.7587L65.4296 50.7241L69.4072 53.0895L68.77 54.1611L64.8021 51.7958L64.2131 52.7612L63.2477 52.1916L65.0434 49.1794L65.9992 49.7587Z" fill="#9FA0A2"/>
<path d="M66.4915 45.3464L69.0402 47.6635L71.4248 48.5517L71 49.7102L68.6251 48.822L65.0916 49.102L65.555 47.8469L67.4859 47.789L66.057 46.5532L66.4915 45.3464Z" fill="#9FA0A2"/>
<path d="M12.2241 37.2561C12.6381 30.4191 15.1242 23.8703 19.3517 18.4809C23.5791 13.0916 29.3475 9.1174 35.8892 7.08707C42.431 5.05674 49.4358 5.06657 55.9718 7.11527C62.5078 9.16397 68.265 13.1544 72.4773 18.5555L77.5845 16.9819C77.3209 15.687 76.6733 14.5017 75.7261 13.5803C74.779 12.659 73.5762 12.0444 72.2745 11.8168C71.1681 11.6269 70.129 11.1562 69.2567 10.4496C68.3844 9.74293 67.7082 8.82415 67.2929 7.78123C66.7133 6.33113 65.6359 5.1351 64.254 4.40787C62.872 3.68063 61.2761 3.46981 59.7528 3.81326C58.6572 4.05963 57.5167 4.02128 56.4402 3.70186C55.3636 3.38244 54.3868 2.79261 53.6029 1.98858C52.5139 0.868516 51.0612 0.173497 49.5057 0.0283925C47.9503 -0.116712 46.3941 0.29761 45.1167 1.19692C44.2015 1.84643 43.1343 2.24897 42.0181 2.36566C40.9019 2.48236 39.7745 2.30925 38.7448 1.86307C37.3093 1.24545 35.7005 1.16092 34.2083 1.6247C32.716 2.08848 31.4385 3.07007 30.6061 4.39253C30.0061 5.34122 29.1726 6.11996 28.1854 6.65415C27.1981 7.18833 26.0903 7.46007 24.9679 7.44332C23.4066 7.42471 21.8897 7.96235 20.6886 8.96001C19.4875 9.95767 18.6807 11.3502 18.4126 12.8884C18.2219 13.9945 17.7508 15.0332 17.0443 15.9054C16.3377 16.7775 15.4194 17.454 14.377 17.8701C12.9252 18.4479 11.727 19.5246 10.9979 20.9067C10.2688 22.2888 10.0566 23.8856 10.3994 25.4102C10.6477 26.5057 10.6102 27.6467 10.2907 28.7236C9.97118 29.8005 9.38029 30.7772 8.57472 31.56C7.62631 32.483 6.97947 33.6715 6.71926 34.969C6.45906 36.2666 6.59771 37.6125 7.11693 38.8298L12.2241 37.2561ZM37.007 10.6872C42.586 8.96266 48.5472 8.9046 54.1588 10.5202C59.7704 12.1357 64.7882 15.3546 68.5962 19.7817L70.4305 19.2314C66.4365 14.3567 61.0793 10.7841 55.0439 8.9706C49.0085 7.15708 42.5694 7.18503 36.55 9.05087C30.5306 10.9167 25.2045 14.5356 21.253 19.4448C17.3014 24.354 14.904 30.3302 14.3674 36.6093L16.1438 36.059C16.7771 30.2592 19.0881 24.7699 22.7938 20.2635C26.4994 15.7571 31.4388 12.4291 37.007 10.6872ZM83.9467 38.5498V38.4726L79.5926 39.7952C79.4861 46.9067 77.1334 53.8023 72.8709 59.4957C68.6084 65.1891 62.6545 69.3887 55.8609 71.4936C49.0672 73.5985 41.7819 73.501 35.0471 71.215C28.3123 68.929 22.4729 64.5716 18.3643 58.7662L14.0391 60.1081V60.195C14.0146 61.7578 14.5501 63.2778 15.5488 64.4801C16.5475 65.6825 17.9434 66.4877 19.4842 66.7504C20.5903 66.9446 21.6285 67.4181 22.5003 68.1261C23.3722 68.834 24.0487 69.7529 24.4659 70.7956C25.0454 72.2457 26.1228 73.4417 27.5048 74.1689C28.8867 74.8962 30.4826 75.107 32.006 74.7635C33.1016 74.5172 34.242 74.5555 35.3185 74.8749C36.3951 75.1944 37.3719 75.7842 38.1558 76.5882C39.245 77.7086 40.6986 78.403 42.2546 78.5464C43.8105 78.6898 45.3665 78.2726 46.6421 77.3702C47.5592 76.725 48.6261 76.3251 49.7414 76.2085C50.8567 76.0919 51.9832 76.2625 53.014 76.7041C54.4486 77.3205 56.056 77.4055 57.5476 76.9437C59.0392 76.4819 60.3174 75.5035 61.1527 74.1843C61.7535 73.2357 62.587 72.4566 63.5738 71.9209C64.5606 71.3853 65.6681 71.1109 66.7908 71.1238C68.347 71.1425 69.8591 70.6069 71.0566 69.6128C72.2541 68.6188 73.0588 67.2311 73.3269 65.698C73.5184 64.5923 73.9899 63.554 74.6963 62.682C75.4027 61.81 76.3205 61.1333 77.3624 60.7164C78.8143 60.1386 80.0125 59.0619 80.7416 57.6798C81.4707 56.2977 81.6828 54.7008 81.34 53.1763C81.0926 52.0822 81.1304 50.9429 81.45 49.8677C81.7695 48.7925 82.3599 47.8174 83.1647 47.0361C84.2833 45.9458 84.9765 44.4925 85.1199 42.9371C85.2632 41.3817 84.8472 39.8261 83.9467 38.5498ZM55.2538 69.5695C61.5249 67.6193 67.0363 63.7711 71.0275 58.5556C75.0186 53.3402 77.2928 47.0146 77.5362 40.4518L75.7887 40.9924C75.461 47.1002 73.2698 52.9609 69.51 57.7855C65.7503 62.6101 60.6026 66.1669 54.76 67.9771C48.9174 69.7872 42.6604 69.7636 36.8316 67.9097C31.0027 66.0557 25.8819 62.4604 22.1585 57.6076L20.4207 58.1483C24.3302 63.4237 29.7807 67.3555 36.02 69.4013C42.2593 71.447 48.9797 71.5058 55.2538 69.5695Z" fill="#9FA0A2"/>
<path d="M11.3165 58.3607L10.2835 57.1732C10.1396 57.7652 9.83562 58.3062 9.40482 58.737C8.97401 59.1678 8.43299 59.4718 7.84098 59.6157C5.28257 60.4074 3.49649 59.1523 2.46347 55.8409L0.310526 48.8897C0.0901441 48.2171 -0.0143308 47.5119 0.00157808 46.8043C0.00222047 46.2753 0.114081 45.7523 0.329854 45.2693C0.541405 44.8635 0.829949 44.5028 1.17942 44.2073C1.49808 43.9322 1.84807 43.6957 2.22211 43.5025C2.57998 43.3386 2.94751 43.1968 3.3227 43.0777C3.77687 42.9369 4.24185 42.8335 4.71293 42.7688C5.09045 42.7107 5.47463 42.7107 5.85215 42.7688C6.18294 42.8181 6.50691 42.9056 6.81759 43.0294C7.10399 43.1507 7.3633 43.328 7.5803 43.5508C7.80348 43.761 8.00409 43.994 8.17886 44.2459C8.37992 44.5233 8.55142 44.821 8.69055 45.1341C8.84502 45.4913 8.98986 45.8292 9.10571 46.1478C9.22156 46.4664 9.34705 46.8429 9.48222 47.2774L6.09351 48.3297L5.70734 47.065C5.64274 46.8472 5.54855 46.6393 5.42738 46.4471C5.34549 46.3219 5.22771 46.2243 5.08947 46.1671C4.99282 46.1227 4.8867 46.1028 4.78052 46.1092C4.68472 46.0922 4.5867 46.0922 4.4909 46.1092C4.32248 46.1547 4.16489 46.2334 4.02748 46.3409C3.92865 46.4156 3.8519 46.5157 3.80542 46.6305C3.75818 46.788 3.75818 46.9558 3.80542 47.1133C3.82949 47.3224 3.87149 47.5292 3.93093 47.7311C3.97598 47.9242 4.06289 48.2235 4.19162 48.629L6.1225 54.8271C6.19974 55.0685 6.26729 55.2616 6.33487 55.4161C6.4101 55.5898 6.50399 55.7549 6.61485 55.9084C6.71772 56.0626 6.86626 56.1808 7.03965 56.2463C7.22819 56.3056 7.43039 56.3056 7.61892 56.2463C7.76966 56.2134 7.90642 56.1343 8.01022 56.0202C8.11401 55.906 8.17971 55.7623 8.19819 55.6091C8.20398 55.1285 8.1222 54.6509 7.95683 54.1996L7.37756 52.346L6.41212 52.6356L5.55286 49.8648L9.84909 48.5325L12.7454 57.8876L11.3165 58.3607Z" fill="#9FA0A2"/>
<path d="M13.1123 53.1472L9.46289 41.3399L12.8999 40.2779L16.4623 51.7667C16.4623 51.7667 16.4623 51.7667 16.4623 51.8342C16.4623 51.9018 16.5685 52.1432 16.5975 52.2397C16.6492 52.3789 16.7105 52.5144 16.7809 52.6452C16.8395 52.7853 16.9286 52.9106 17.0416 53.0121C17.1371 53.1026 17.253 53.1688 17.3795 53.2052C17.5269 53.2531 17.6858 53.2531 17.8332 53.2052C17.9618 53.172 18.0809 53.1092 18.1808 53.0217C18.2698 52.9459 18.3337 52.8449 18.3643 52.7321C18.3913 52.6242 18.4106 52.5145 18.4222 52.4038C18.439 52.2757 18.439 52.1458 18.4222 52.0177C18.4222 51.8632 18.3643 51.7377 18.3353 51.6605C18.3063 51.5832 18.3353 51.4674 18.2387 51.3129V51.2453L14.6763 39.7566L18.1229 38.6946L21.7819 50.4923C22.2417 51.6553 22.2417 52.9497 21.7819 54.1127C21.477 54.6526 21.0614 55.1218 20.5622 55.4896C20.063 55.8573 19.4916 56.1152 18.8856 56.2463C18.3054 56.485 17.6815 56.5989 17.0544 56.5806C16.4273 56.5623 15.8111 56.4122 15.2459 56.1401C14.175 55.4553 13.4105 54.3829 13.1123 53.1472Z" fill="#9FA0A2"/>
<path d="M26.6767 36.0107L33.4348 51.4578L30.0172 52.5198L29.0517 50.1834L27.256 50.7434L27.787 53.2246L24.3404 54.2962L21.1833 37.681L26.6767 36.0107ZM24.9582 39.8725L24.63 39.969L26.5609 47.8181L27.8353 47.4223L24.9582 39.8725Z" fill="#9FA0A2"/>
<path d="M36.0415 42.6916L38.3007 50L34.7092 51.1103L29.7275 35.055L35.1726 33.3751C35.6537 33.2105 36.1609 33.1353 36.6691 33.1531C37.064 33.17 37.4501 33.2756 37.7986 33.462C38.1332 33.6694 38.4196 33.9459 38.6386 34.273C38.8866 34.63 39.0969 35.0118 39.2661 35.4122C39.469 35.8872 39.6431 36.3741 39.7874 36.87C39.884 37.1693 39.9516 37.4203 39.9998 37.6134C40.0574 37.8644 40.0961 38.1193 40.1157 38.3761C40.1611 38.6445 40.1611 38.9187 40.1157 39.1871C40.0463 39.4494 39.932 39.6976 39.7778 39.9208C39.5869 40.1966 39.3443 40.4327 39.0634 40.6159C39.3873 40.5623 39.7196 40.5922 40.0288 40.7028C40.284 40.7929 40.5083 40.9536 40.6756 41.1662C40.8328 41.3534 40.9688 41.5574 41.0811 41.7745C41.186 41.9924 41.2732 42.2184 41.3418 42.4503C42.1592 45.1085 42.7706 47.1262 43.1761 48.5036L39.7102 49.5849L37.7793 43.3288C37.7254 43.1255 37.6372 42.9329 37.5187 42.7592C37.4762 42.6958 37.4206 42.6423 37.3557 42.6023C37.2907 42.5623 37.2178 42.5368 37.1421 42.5275C36.9983 42.5032 36.8515 42.5032 36.7077 42.5275L36.0415 42.6916ZM34.2651 36.899L35.2306 39.8919L36.1188 39.6215C36.5918 39.4767 36.6787 38.9168 36.3698 37.932C36.167 37.2755 35.945 36.8893 35.7036 36.7638C35.3046 36.6485 34.8779 36.6758 34.4968 36.8411L34.2651 36.899Z" fill="#9FA0A2"/>
<path d="M46.671 29.8126L53.4291 45.3079L50.0018 46.3699L49.0363 44.0336L47.2406 44.5935L47.7619 47.0747L44.3153 48.1463L41.1583 31.5311L46.671 29.8126ZM44.9525 33.6744L44.6339 33.7709L46.5648 41.62L47.8392 41.2241L44.9525 33.6744Z" fill="#9FA0A2"/>
<path d="M58.4495 26.1632L63.4215 42.2088L59.9556 43.2901L55.6883 35.808L58.1792 43.8404L54.7132 44.9121L49.7412 28.8568L53.3906 27.7272L57.3972 34.9004L54.9835 27.2445L58.4495 26.1632Z" fill="#9FA0A2"/>
<path d="M59.7335 25.7673L67.5343 23.3827L68.4997 26.4721L66.3854 27.1286L70.4016 40.0848L66.8585 41.1854L62.794 28.2099L60.6893 28.8664L59.7335 25.7673Z" fill="#9FA0A2"/>
<path d="M73.7613 39.0132L68.7797 22.9579L75.8757 20.7567L76.8411 23.8751L73.3269 24.9564L74.2923 28.0844L77.6327 27.0514L78.5982 30.0636L75.2578 31.1062L76.397 34.7653L80.085 33.6067L81.0504 36.7348L73.7613 39.0132Z" fill="#9FA0A2"/>
<path d="M82.6531 36.2521L77.6714 20.2065L84.7674 18.0052L85.7328 21.1236L82.2476 22.1953L83.213 25.3329L86.5631 24.3482L87.5285 27.3604L84.1784 28.3934L85.3177 32.0524L89.0346 30.9035L90.0001 34.0316L82.6531 36.2521Z" fill="#9FA0A2"/>
<path d="M40.5791 22.5911L41.8632 23.9813L43.7168 23.6627L42.7996 25.304L43.6782 26.9742L41.8245 26.6073L40.5116 27.9589L40.2895 26.086L38.6 25.246L40.3088 24.464L40.5791 22.5911Z" fill="#9FA0A2"/>
<path d="M46.2075 22.1373L47.115 23.1221L48.4377 22.9L47.7812 24.0586L48.4087 25.2461L47.0957 24.9854L46.1592 25.9412L46.0048 24.6185L44.798 24.0199L46.0144 23.46L46.2075 22.1373Z" fill="#9FA0A2"/>
<path d="M35.6843 25.4005L36.5919 26.3853L37.9048 26.1632L37.2484 27.3314L37.8759 28.5092L36.5629 28.2486L35.6264 29.2043L35.4719 27.8817L34.2748 27.2831L35.4912 26.7232L35.6843 25.4005Z" fill="#9FA0A2"/>
<path d="M50.6293 55.0107L49.3452 53.6301L47.4916 53.9487L48.4088 52.2978L47.5399 50.6276L49.3839 51.0041L50.6968 49.6525L50.9189 51.5254L52.6084 52.3557L50.8996 53.1474L50.6293 55.0107Z" fill="#9FA0A2"/>
<path d="M45.0008 55.4644L44.0933 54.4893L42.7706 54.7113L43.4271 53.5431L42.7996 52.3556L44.1126 52.6163L45.0491 51.6605L45.2035 52.9928L46.4103 53.5817L45.1939 54.1417L45.0008 55.4644Z" fill="#9FA0A2"/>
<path d="M55.5241 52.2012L54.6166 51.2164L53.3036 51.4481L53.9601 50.2799L53.3326 49.0925L54.6455 49.3531L55.582 48.3973L55.7365 49.7296L56.9336 50.3186L55.7172 50.8785L55.5241 52.2012Z" fill="#9FA0A2"/>
</svg>
