<svg width="246" height="130" viewBox="0 0 246 130" fill="none" xmlns="http://www.w3.org/2000/svg">
<path d="M34.9998 19.2025C35.0407 7.43986 27.2294 0.0358729 17.5653 0.00303929C7.90121 -0.0297943 0.0409564 7.31673 0.000145243 19.0876C-0.0488282 34.4044 12.3006 41.2503 16.2267 43.0397C15.2635 49.9102 17.3694 56.6164 19.0427 63.2981C20.8384 70.4804 21.9892 79.0254 16.5858 85.0011C15.59 86.101 17.2143 87.7427 18.2183 86.6345C29.6536 73.969 16.3654 57.4208 18.5448 43.0479C22.43 41.2667 34.9509 34.3388 34.9998 19.2025Z" fill="#C4C4C4"/>
<path d="M157.823 84.6762L145.315 59.2153C144.779 58.1294 143.673 57.4407 142.461 57.4407L115.987 57.4672C114.795 57.4672 113.702 58.136 113.159 59.2021L100.757 83.6299C99.7833 85.5503 100.359 87.8944 102.108 89.1525C104.266 90.6954 107.292 89.9604 108.511 87.603L116.887 71.3796L118.622 87.9142L114.557 122.56C114.166 125.884 116.762 128.804 120.112 128.797H120.126C122.946 128.797 125.324 126.692 125.668 123.891L129.085 96.165L132.396 123.897C132.733 126.705 135.117 128.824 137.945 128.824C141.282 128.824 143.871 125.923 143.501 122.606L139.594 87.9937L141.448 71.4855L150.116 88.5301C151.169 90.6027 153.678 91.4635 155.784 90.4835C157.963 89.4571 158.883 86.8415 157.823 84.6762Z" fill="#C4C4C4"/>
<path d="M117.676 41.6278C117.649 48.051 122.841 53.2822 129.27 53.3087C135.693 53.3352 140.925 48.1437 140.951 41.7205C140.978 35.2907 135.786 30.0661 129.363 30.0397C122.927 30.0132 117.702 35.2047 117.676 41.6278Z" fill="#C4C4C4"/>
<path d="M219.095 52.296C224.958 49.6679 227.581 42.7843 224.953 36.921C222.325 31.0576 215.441 28.435 209.578 31.063C203.715 33.6911 201.092 40.5747 203.72 46.438C206.348 52.3013 213.232 54.924 219.095 52.296Z" fill="#C4C4C4"/>
<path d="M188.026 89.7286L184.284 88.6824H184.278C182.51 87.3514 182.165 84.8351 183.509 83.0737L202.077 58.7717C202.719 57.9307 203.713 57.4407 204.772 57.4407H223.724C224.77 57.4407 225.757 57.9241 226.399 58.7518L245.158 82.8618C246.516 84.61 246.198 87.1262 244.443 88.4705C242.894 89.6624 240.702 89.5498 239.278 88.2122L226.028 72.9423L231.961 98.7078H223.684L224.518 124.586C224.591 126.797 222.816 128.638 220.598 128.652C218.565 128.665 216.85 127.122 216.658 125.096L214.42 101.337L212.255 125.135C212.063 127.155 210.381 128.698 208.354 128.705C206.13 128.718 204.335 126.884 204.395 124.659L205.136 98.8005L196.885 98.8071L202.607 73.0615L188.026 89.7286Z" fill="#C4C4C4"/>
<path d="M169.477 89.0029C165.885 88.9897 162.987 86.0649 163 82.4798C163.013 78.8882 165.938 75.9898 169.523 76.003C173.115 76.0162 176.013 78.941 176 82.526C175.987 86.1177 173.069 89.0161 169.477 89.0029Z" fill="#C4C4C4"/>
<path d="M150.687 89.7752C149.858 88.9977 149.771 87.7218 150.473 86.8313C151.202 85.9142 152.526 85.7348 153.475 86.4126L161.186 91.8884H169.525H177.864L185.575 86.4126C186.531 85.7348 187.848 85.9142 188.577 86.8313C189.286 87.7151 189.059 89.104 188.229 89.8815L177.075 100.401L175.818 109.512L177.791 125.421C178.025 127.328 176.533 129.003 174.601 129.003C173.049 129.003 171.718 127.9 171.438 126.385L169.525 116.031L167.612 126.385C167.332 127.9 166.001 129.003 164.449 129.003C162.517 129.003 161.025 127.322 161.259 125.421L163.232 109.512L161.975 100.401L150.687 89.7752Z" fill="#C4C4C4"/>
<path d="M83.7658 87.4763C80.2407 87.4654 77.3889 84.7055 77.4059 81.3208C77.4172 77.9361 80.2916 75.1979 83.8167 75.2142C87.3418 75.225 90.1936 77.985 90.1767 81.3697C90.1653 84.7544 87.2966 87.4926 83.7658 87.4763Z" fill="#C4C4C4"/>
<path d="M41.0808 74.1077C36.3644 74.0933 32.5488 70.4306 32.5715 65.9387C32.5867 61.4468 36.4325 57.8129 41.1489 57.8346C45.8654 57.849 49.681 61.5117 49.6583 66.0036C49.6431 70.4954 45.8048 74.1221 41.0808 74.1077Z" fill="#C4C4C4"/>
<path d="M66.0497 103.052C65.365 102.221 65.4499 101.026 66.2534 100.292L76.2403 91.2032C76.857 90.6382 77.6775 90.3285 78.5319 90.323L83.7941 90.3176L89.0563 90.323C89.9107 90.323 90.7255 90.6382 91.3479 91.2032L99.4286 98.9774C100.232 99.7054 102.801 101.78 101.538 103.052C100.73 103.868 99.5468 104.079 98.6245 103.444L91.1442 98.2877L89.8994 106.845L92.2419 125.116H86.1196L83.7941 112.957L81.4685 125.11H75.3463L77.6888 106.839L76.444 98.2823L68.9637 103.438C68.0414 104.079 66.757 103.905 66.0497 103.052Z" fill="#C4C4C4"/>
<path d="M65.0201 94.3907L51.9526 87.7431L57.7947 109.444L51.5132 109.525L51.204 123.642C51.1633 125.456 49.6906 126.921 47.8761 126.945C46.1349 126.97 44.6703 125.668 44.475 123.943L43.0186 109.761L41.6191 123.967C41.4401 125.692 39.9836 126.994 38.2505 126.986C36.4279 126.978 34.9389 125.522 34.8901 123.699L34.5158 109.59L28.2343 109.566L33.873 87.8164L17.0708 74.7408C15.9561 73.8783 15.6632 72.316 16.3873 71.1118C17.1278 69.8669 18.7063 69.395 20.0081 70.0378L34.6541 77.2061L51.0657 77.1736L65.793 88.5731C66.924 89.4518 67.1926 91.0466 66.4033 92.2427L65.0201 94.3907Z" fill="#C4C4C4"/>
</svg>
