<svg width="476" height="86" viewBox="0 0 476 86" fill="none" xmlns="http://www.w3.org/2000/svg">
<path d="M266.29 67.91L255.23 42.22L244.03 67.91L221 14.5H223.45L244.1 62.24L254.04 39.42L243.26 14.5H245.64L255.44 37.11L265.31 14.5H267.48L256.56 39.7L266.43 62.45L287.15 14.5H289.6L266.29 67.91ZM294.043 14.5H296.283V42.01C297.263 39.91 298.919 38.1833 301.253 36.83C303.633 35.43 306.036 34.73 308.463 34.73C312.896 34.73 316.303 35.9433 318.683 38.37C321.109 40.7967 322.323 44.2267 322.323 48.66V67H320.083V48.66C320.083 44.8333 319.056 41.8933 317.003 39.84C314.996 37.74 312.149 36.69 308.463 36.69C306.223 36.69 304.169 37.2267 302.303 38.3C300.436 39.3267 298.966 40.7733 297.893 42.64C296.819 44.46 296.283 46.4667 296.283 48.66V67H294.043V14.5ZM346.492 65.88C348.919 65.88 351.229 65.25 353.422 63.99C355.615 62.73 357.435 61.0033 358.882 58.81V62.38C357.155 64.2933 355.265 65.6933 353.212 66.58C351.159 67.42 348.825 67.84 346.212 67.84C343.319 67.84 340.589 67.07 338.022 65.53C335.502 63.99 333.472 61.9367 331.932 59.37C330.439 56.8033 329.692 54.0733 329.692 51.18C329.692 48.0533 330.439 45.2533 331.932 42.78C333.425 40.26 335.455 38.3 338.022 36.9C340.635 35.5 343.529 34.8 346.702 34.8C351.555 34.8 355.685 36.7133 359.092 40.54L337.112 62.24C338.652 63.5 340.145 64.4333 341.592 65.04C343.039 65.6 344.672 65.88 346.492 65.88ZM331.932 50.97C331.932 54.8433 333.215 58.1567 335.782 60.91L356.292 40.54C354.752 39.1867 353.259 38.23 351.812 37.67C350.365 37.0633 348.639 36.76 346.632 36.76C343.785 36.76 341.242 37.39 339.002 38.65C336.809 39.8633 335.082 41.5433 333.822 43.69C332.562 45.8367 331.932 48.2633 331.932 50.97ZM381.424 65.88C383.85 65.88 386.16 65.25 388.354 63.99C390.547 62.73 392.367 61.0033 393.814 58.81V62.38C392.087 64.2933 390.197 65.6933 388.144 66.58C386.09 67.42 383.757 67.84 381.144 67.84C378.25 67.84 375.52 67.07 372.954 65.53C370.434 63.99 368.404 61.9367 366.864 59.37C365.37 56.8033 364.624 54.0733 364.624 51.18C364.624 48.0533 365.37 45.2533 366.864 42.78C368.357 40.26 370.387 38.3 372.954 36.9C375.567 35.5 378.46 34.8 381.634 34.8C386.487 34.8 390.617 36.7133 394.024 40.54L372.044 62.24C373.584 63.5 375.077 64.4333 376.524 65.04C377.97 65.6 379.604 65.88 381.424 65.88ZM366.864 50.97C366.864 54.8433 368.147 58.1567 370.714 60.91L391.224 40.54C389.684 39.1867 388.19 38.23 386.744 37.67C385.297 37.0633 383.57 36.76 381.564 36.76C378.717 36.76 376.174 37.39 373.934 38.65C371.74 39.8633 370.014 41.5433 368.754 43.69C367.494 45.8367 366.864 48.2633 366.864 50.97ZM412.995 67.63C410.802 67.63 408.795 67.14 406.975 66.16C405.155 65.1333 403.709 63.71 402.635 61.89C401.562 60.07 401.025 58.04 401.025 55.8V14.5H403.265V55.8C403.265 57.6667 403.685 59.3467 404.525 60.84C405.412 62.3333 406.602 63.5233 408.095 64.41C409.589 65.25 411.222 65.67 412.995 65.67V67.63ZM427.864 67.77C425.624 67.77 423.641 67.3967 421.914 66.65C420.188 65.8567 418.951 64.8533 418.204 63.64V59.93C419.091 61.9367 420.304 63.43 421.844 64.41C423.384 65.3433 425.344 65.81 427.724 65.81C430.011 65.81 431.854 65.11 433.254 63.71C434.654 62.2633 435.354 60.42 435.354 58.18C435.354 56.2667 434.958 54.7967 434.164 53.77C433.371 52.6967 432.088 51.6233 430.314 50.55L427.654 49.01C425.741 47.8433 424.294 46.9333 423.314 46.28C422.381 45.58 421.634 44.81 421.074 43.97C420.514 43.0833 420.234 42.0567 420.234 40.89C420.234 39.0233 420.888 37.53 422.194 36.41C423.501 35.29 425.204 34.73 427.304 34.73C429.871 34.73 432.018 35.3133 433.744 36.48V39.56C432.298 37.6467 430.221 36.69 427.514 36.69C426.021 36.69 424.808 37.0633 423.874 37.81C422.941 38.5567 422.474 39.5133 422.474 40.68C422.474 41.7067 422.754 42.6167 423.314 43.41C423.874 44.1567 424.644 44.8567 425.624 45.51C426.651 46.1633 428.331 47.1433 430.664 48.45C433.044 49.8033 434.794 51.2033 435.914 52.65C437.034 54.05 437.594 55.8933 437.594 58.18C437.594 61.0733 436.638 63.4067 434.724 65.18C432.858 66.9067 430.571 67.77 427.864 67.77Z" fill="white"/>
<path d="M5.53 14.5H8.54C14 14.5 18.2 15.9467 21.14 18.84C24.1267 21.7333 25.62 25.8633 25.62 31.23C25.62 34.31 24.8733 37.1333 23.38 39.7C21.9333 42.2667 19.95 44.2967 17.43 45.79C14.91 47.2367 12.1333 47.96 9.1 47.96H8.61L26.67 67H23.66L7.77 50.34V67H5.53V14.5ZM9.03 45.93C11.69 45.93 14.1167 45.2767 16.31 43.97C18.5033 42.6633 20.23 40.9133 21.49 38.72C22.75 36.48 23.38 34.0067 23.38 31.3C23.38 26.5867 22.0967 22.9467 19.53 20.38C17.01 17.8133 13.3933 16.53 8.68 16.53H7.77V45.93H9.03ZM48.306 68.12C45.1327 68.12 42.2627 67.35 39.696 65.81C37.1293 64.2233 35.1227 62.1467 33.676 59.58C32.2293 56.9667 31.506 54.1433 31.506 51.11C31.506 48.1233 32.2293 45.3467 33.676 42.78C35.1693 40.2133 37.176 38.1833 39.696 36.69C42.2627 35.15 45.1093 34.38 48.236 34.38C51.316 34.38 54.116 35.15 56.636 36.69C59.2027 38.1833 61.2094 40.2133 62.656 42.78C64.1027 45.3467 64.826 48.1233 64.826 51.11C64.826 54.2367 64.126 57.1067 62.726 59.72C61.326 62.2867 59.366 64.34 56.846 65.88C54.3727 67.3733 51.526 68.12 48.306 68.12ZM48.306 66.16C50.966 66.16 53.3927 65.4833 55.586 64.13C57.7794 62.7767 59.4827 60.98 60.696 58.74C61.956 56.4533 62.586 53.9567 62.586 51.25C62.586 48.59 61.956 46.1167 60.696 43.83C59.436 41.5433 57.7094 39.7233 55.516 38.37C53.3227 37.0167 50.896 36.34 48.236 36.34C45.576 36.34 43.126 37.04 40.886 38.44C38.6927 39.7933 36.9427 41.6133 35.636 43.9C34.376 46.1867 33.746 48.66 33.746 51.32C33.746 53.98 34.376 56.4533 35.636 58.74C36.9427 60.98 38.6927 62.7767 40.886 64.13C43.126 65.4833 45.5993 66.16 48.306 66.16ZM86.6523 67.77C83.6657 67.77 80.889 67.0233 78.3223 65.53C75.7557 64.0367 73.7257 62.03 72.2323 59.51C70.739 56.9433 69.9923 54.19 69.9923 51.25C69.9923 48.31 70.739 45.58 72.2323 43.06C73.7257 40.4933 75.7557 38.4633 78.3223 36.97C80.889 35.4767 83.6657 34.73 86.6523 34.73C89.6857 34.73 92.5557 35.5467 95.2623 37.18C97.969 38.7667 99.859 40.8433 100.932 43.41V35.5H103.172V67H100.932V59.16C99.6723 61.7733 97.7123 63.8733 95.0523 65.46C92.439 67 89.639 67.77 86.6523 67.77ZM86.7923 65.81C89.359 65.81 91.739 65.1567 93.9323 63.85C96.1257 62.4967 97.8523 60.7233 99.1123 58.53C100.419 56.29 101.072 53.8633 101.072 51.25C101.072 48.6833 100.419 46.28 99.1123 44.04C97.8057 41.8 96.0557 40.0267 93.8623 38.72C91.669 37.3667 89.289 36.69 86.7223 36.69C84.1557 36.69 81.7523 37.3667 79.5123 38.72C77.319 40.0733 75.5457 41.87 74.1923 44.11C72.8857 46.35 72.2323 48.7533 72.2323 51.32C72.2323 53.8867 72.8857 56.29 74.1923 58.53C75.5457 60.7233 77.3423 62.4967 79.5823 63.85C81.8223 65.1567 84.2257 65.81 86.7923 65.81ZM126.848 67.77C123.814 67.77 121.014 67.0233 118.448 65.53C115.928 64.0367 113.921 62.03 112.428 59.51C110.934 56.99 110.188 54.2367 110.188 51.25C110.188 48.2633 110.934 45.51 112.428 42.99C113.921 40.47 115.928 38.4633 118.448 36.97C121.014 35.4767 123.814 34.73 126.848 34.73C129.788 34.73 132.588 35.5233 135.248 37.11C137.908 38.65 139.868 40.68 141.128 43.2V14.5H143.368V67H141.128V59.37C139.728 61.89 137.698 63.92 135.038 65.46C132.424 67 129.694 67.77 126.848 67.77ZM126.778 65.81C129.344 65.81 131.724 65.1567 133.918 63.85C136.158 62.4967 137.931 60.7233 139.238 58.53C140.591 56.29 141.268 53.8867 141.268 51.32C141.268 48.7533 140.591 46.35 139.238 44.11C137.931 41.87 136.158 40.0733 133.918 38.72C131.724 37.3667 129.344 36.69 126.778 36.69C124.211 36.69 121.831 37.3667 119.638 38.72C117.444 40.0267 115.694 41.8 114.388 44.04C113.081 46.28 112.428 48.6833 112.428 51.25C112.428 53.8633 113.058 56.29 114.318 58.53C115.624 60.7233 117.374 62.4967 119.568 63.85C121.808 65.1567 124.211 65.81 126.778 65.81ZM161.116 67.33C159.216 67.33 157.746 66.81 156.706 65.77C155.686 64.73 155.176 63.26 155.176 61.36V53.5H156.136V61.36C156.136 63 156.566 64.27 157.426 65.17C158.306 66.05 159.536 66.49 161.116 66.49C162.076 66.49 162.956 66.28 163.756 65.86C164.556 65.42 165.186 64.81 165.646 64.03C166.106 63.25 166.336 62.36 166.336 61.36V53.5H167.296V67H166.336V64.48C165.876 65.32 165.186 66.01 164.266 66.55C163.346 67.07 162.296 67.33 161.116 67.33ZM171.084 53.5H172.044V56.5C172.484 55.5 173.234 54.7 174.294 54.1C175.354 53.48 176.524 53.17 177.804 53.17C179.464 53.17 180.774 53.7 181.734 54.76C182.714 55.8 183.204 57.26 183.204 59.14V67H182.244V59.14C182.244 57.52 181.844 56.26 181.044 55.36C180.264 54.46 179.164 54.01 177.744 54.01C176.704 54.01 175.744 54.25 174.864 54.73C174.004 55.19 173.314 55.83 172.794 56.65C172.294 57.47 172.044 58.4 172.044 59.44V67H171.084V53.5ZM193.353 67.33C192.053 67.33 190.853 67.01 189.753 66.37C188.673 65.73 187.813 64.87 187.173 63.79C186.533 62.71 186.213 61.53 186.213 60.25C186.213 58.97 186.533 57.79 187.173 56.71C187.813 55.63 188.673 54.77 189.753 54.13C190.853 53.49 192.053 53.17 193.353 53.17C194.613 53.17 195.813 53.51 196.953 54.19C198.093 54.85 198.933 55.72 199.473 56.8V44.5H200.433V67H199.473V63.73C198.873 64.81 198.003 65.68 196.863 66.34C195.743 67 194.573 67.33 193.353 67.33ZM193.323 66.49C194.423 66.49 195.443 66.21 196.383 65.65C197.343 65.07 198.103 64.31 198.663 63.37C199.243 62.41 199.533 61.38 199.533 60.28C199.533 59.18 199.243 58.15 198.663 57.19C198.103 56.23 197.343 55.46 196.383 54.88C195.443 54.3 194.423 54.01 193.323 54.01C192.223 54.01 191.203 54.3 190.263 54.88C189.323 55.44 188.573 56.2 188.013 57.16C187.453 58.12 187.173 59.15 187.173 60.25C187.173 61.37 187.443 62.41 187.983 63.37C188.543 64.31 189.293 65.07 190.233 65.65C191.193 66.21 192.223 66.49 193.323 66.49ZM210.789 66.52C211.829 66.52 212.819 66.25 213.759 65.71C214.699 65.17 215.479 64.43 216.099 63.49V65.02C215.359 65.84 214.549 66.44 213.669 66.82C212.789 67.18 211.789 67.36 210.669 67.36C209.429 67.36 208.259 67.03 207.159 66.37C206.079 65.71 205.209 64.83 204.549 63.73C203.909 62.63 203.589 61.46 203.589 60.22C203.589 58.88 203.909 57.68 204.549 56.62C205.189 55.54 206.059 54.7 207.159 54.1C208.279 53.5 209.519 53.2 210.879 53.2C212.959 53.2 214.729 54.02 216.189 55.66L206.769 64.96C207.429 65.5 208.069 65.9 208.689 66.16C209.309 66.4 210.009 66.52 210.789 66.52ZM204.549 60.13C204.549 61.79 205.099 63.21 206.199 64.39L214.989 55.66C214.329 55.08 213.689 54.67 213.069 54.43C212.449 54.17 211.709 54.04 210.849 54.04C209.629 54.04 208.539 54.31 207.579 54.85C206.639 55.37 205.899 56.09 205.359 57.01C204.819 57.93 204.549 58.97 204.549 60.13ZM219.19 53.5H220.15V56.62C220.55 55.64 221.13 54.87 221.89 54.31C222.67 53.75 223.55 53.47 224.53 53.47C225.15 53.47 225.78 53.6 226.42 53.86V54.97C225.84 54.53 225.19 54.31 224.47 54.31C223.75 54.31 223.05 54.53 222.37 54.97C221.71 55.41 221.17 56 220.75 56.74C220.35 57.48 220.15 58.27 220.15 59.11V67H219.19V53.5Z" fill="white"/>
<rect x="154" y="41" width="73" height="2" fill="white"/>
<path d="M208.701 30.6065C208.804 30.6123 208.907 30.6285 209.007 30.6548C209.377 30.749 209.704 30.9629 209.939 31.2632C210.102 31.474 210.215 31.719 210.27 31.9797C210.331 32.2807 210.309 32.5926 210.208 32.8825C210.152 33.0402 210.074 33.1896 209.978 33.3264C209.873 33.4663 209.748 33.5902 209.608 33.6944C209.462 33.7991 209.301 33.881 209.13 33.9371C209.041 33.9662 208.95 33.9873 208.857 34.0003C208.77 34.0135 208.682 34.0212 208.594 34.0233C208.23 34.0209 207.876 33.9056 207.581 33.6933C207.441 33.5891 207.317 33.4651 207.212 33.3252C207.116 33.1886 207.039 33.0397 206.983 32.8825C206.928 32.7312 206.897 32.5727 206.889 32.4121C206.884 32.3401 206.884 32.2679 206.889 32.1959C206.895 32.1214 206.905 32.0473 206.919 31.9739C206.975 31.716 207.087 31.4737 207.248 31.2644C207.483 30.9653 207.811 30.7526 208.179 30.6594C208.28 30.6331 208.382 30.6169 208.486 30.6111H208.595L208.701 30.6065ZM208.481 30.6065C208.437 30.6083 208.394 30.6137 208.35 30.6226C208.291 30.6303 208.233 30.6438 208.177 30.6629C208.024 30.7078 207.879 30.7794 207.751 30.8745C207.585 30.996 207.448 31.1531 207.35 31.3345C207.237 31.5392 207.177 31.7689 207.175 32.0027C207.176 32.0619 207.179 32.121 207.186 32.1798C207.193 32.2443 207.205 32.3082 207.223 32.3707C207.254 32.4911 207.301 32.607 207.362 32.7157C207.487 32.9325 207.667 33.1129 207.883 33.239C207.992 33.2999 208.107 33.3478 208.228 33.3816C208.347 33.4114 208.47 33.4276 208.594 33.4299C208.658 33.4286 208.723 33.4236 208.787 33.4149C208.845 33.4066 208.903 33.395 208.96 33.3804C209.08 33.3464 209.196 33.2986 209.305 33.2378C209.521 33.1117 209.7 32.9313 209.825 32.7146C209.997 32.4156 210.053 32.0636 209.981 31.7261C209.91 31.3886 209.716 31.0895 209.438 30.886C209.309 30.7912 209.164 30.7195 209.011 30.6744C208.955 30.6552 208.896 30.6417 208.837 30.6341C208.795 30.6251 208.751 30.6197 208.708 30.618L208.593 30.6111L208.481 30.6065Z" fill="white"/>
<path d="M157.913 31.7681C157.918 31.608 157.935 31.4485 157.964 31.291C157.98 31.1975 157.99 31.0966 158.012 30.9895C158.035 30.8823 158.067 30.7727 158.096 30.6544C158.249 30.0862 158.486 29.5444 158.801 29.0472C159.216 28.4004 159.75 27.8388 160.375 27.3927C161.178 26.8281 162.111 26.4757 163.086 26.3683C164.062 26.2609 165.048 26.402 165.955 26.7785C166.465 26.9924 166.945 27.274 167.381 27.6157C167.821 27.979 168.21 28.4002 168.537 28.8678C168.863 29.3502 169.119 29.8772 169.294 30.4326C169.458 30.9914 169.547 31.5696 169.56 32.1519L169.536 32.6091C169.529 32.7558 169.512 32.9019 169.485 33.0464C169.441 33.3363 169.377 33.6228 169.293 33.9035C169.118 34.4592 168.863 34.9864 168.536 35.4683C167.899 36.4039 167.001 37.1307 165.953 37.5576C165.46 37.7614 164.941 37.8956 164.411 37.9563C164.161 37.987 163.909 38.0016 163.656 37.9999C163.529 37.9997 163.402 37.993 163.275 37.9799C163.151 37.9675 163.026 37.9662 162.908 37.945C161.998 37.8143 161.131 37.473 160.375 36.9484C159.75 36.5023 159.216 35.9407 158.802 35.2939C158.488 34.7972 158.25 34.2558 158.097 33.688C158.069 33.5634 158.04 33.4575 158.014 33.3516C157.988 33.2457 157.981 33.1436 157.965 33.0501C157.936 32.8926 157.919 32.7331 157.914 32.573C157.902 32.3126 157.895 32.173 157.895 32.173C157.895 32.173 157.9 32.0298 157.913 31.7681ZM157.913 32.568C157.92 32.7278 157.939 32.887 157.97 33.0439C157.986 33.1373 157.998 33.2382 158.021 33.3441C158.045 33.45 158.078 33.5609 158.108 33.678C158.263 34.2426 158.511 34.7773 158.842 35.2602C159.265 35.8873 159.813 36.4201 160.451 36.825C161.203 37.2924 162.054 37.5778 162.935 37.6585C163.051 37.6734 163.169 37.6672 163.288 37.6722C163.404 37.6784 163.52 37.6784 163.637 37.6722C164.375 37.6388 165.099 37.4597 165.768 37.1452C166.226 36.9229 166.652 36.6401 167.035 36.3043C167.419 35.9598 167.758 35.567 168.042 35.1357C168.318 34.692 168.536 34.2152 168.691 33.7166C168.763 33.4645 168.817 33.2077 168.853 32.948C168.877 32.8188 168.891 32.688 168.894 32.5568L168.913 32.183C168.909 31.6522 168.835 31.1243 168.691 30.6132C168.535 30.1176 168.316 29.6438 168.041 29.203C167.757 28.7714 167.419 28.3785 167.033 28.0343C166.652 27.7006 166.227 27.4194 165.77 27.1984C165.106 26.8852 164.386 26.7061 163.653 26.6714H163.572H163.48H163.298C163.173 26.6714 163.049 26.6714 162.939 26.6851C162.06 26.7679 161.212 27.0527 160.461 27.5173C159.821 27.9211 159.271 28.4525 158.845 29.0784C158.514 29.5613 158.266 30.096 158.111 30.6606C158.081 30.7777 158.051 30.8898 158.024 30.9945C157.996 31.0991 157.989 31.2013 157.973 31.2935C157.941 31.4508 157.922 31.6104 157.915 31.7706C157.902 32.031 157.893 32.1693 157.893 32.1693C157.893 32.1693 157.903 32.3076 157.917 32.5667L157.913 32.568Z" fill="white"/>
<path d="M157.446 31.7681C157.451 31.608 157.468 31.4485 157.497 31.291C157.513 31.1975 157.523 31.0966 157.546 30.9895C157.568 30.8823 157.601 30.7727 157.629 30.6544C157.782 30.0862 158.02 29.5444 158.334 29.0472C158.749 28.4004 159.283 27.8388 159.909 27.3927C160.712 26.8281 161.644 26.4757 162.619 26.3683C163.595 26.2609 164.582 26.402 165.488 26.7785C165.999 26.9924 166.479 27.274 166.914 27.6157C167.354 27.979 167.743 28.4002 168.07 28.8678C168.397 29.3502 168.652 29.8772 168.828 30.4326C168.992 30.9914 169.081 31.5696 169.093 32.1519L169.069 32.6091C169.062 32.7558 169.045 32.9019 169.018 33.0464C168.975 33.3363 168.911 33.6228 168.826 33.9035C168.651 34.4592 168.396 34.9864 168.069 35.4683C167.433 36.4039 166.534 37.1307 165.487 37.5576C164.994 37.7614 164.475 37.8956 163.945 37.9563C163.694 37.987 163.442 38.0016 163.19 37.9999C163.063 37.9997 162.935 37.993 162.809 37.9799C162.684 37.9675 162.56 37.9662 162.441 37.945C161.531 37.8143 160.664 37.473 159.909 36.9484C159.284 36.5023 158.75 35.9407 158.336 35.2939C158.021 34.7972 157.783 34.2558 157.631 33.688C157.602 33.5634 157.573 33.4575 157.547 33.3516C157.521 33.2457 157.515 33.1436 157.498 33.0501C157.47 32.8926 157.453 32.7331 157.447 32.573C157.435 32.3126 157.429 32.173 157.429 32.173C157.429 32.173 157.434 32.0298 157.446 31.7681ZM157.446 32.568C157.453 32.7278 157.472 32.887 157.503 33.0439C157.52 33.1373 157.531 33.2382 157.555 33.3441C157.578 33.45 157.612 33.5609 157.642 33.678C157.797 34.2426 158.045 34.7773 158.375 35.2602C158.798 35.8873 159.346 36.4201 159.985 36.825C160.737 37.2924 161.587 37.5778 162.469 37.6585C162.584 37.6734 162.703 37.6672 162.821 37.6722C162.937 37.6784 163.054 37.6784 163.17 37.6722C163.908 37.6388 164.632 37.4597 165.301 37.1452C165.759 36.9229 166.185 36.6401 166.568 36.3043C166.953 35.9598 167.292 35.567 167.576 35.1357C167.851 34.692 168.069 34.2152 168.225 33.7166C168.297 33.4645 168.351 33.2077 168.387 32.948C168.41 32.8188 168.424 32.688 168.428 32.5568L168.446 32.183C168.443 31.6522 168.368 31.1243 168.225 30.6132C168.068 30.1176 167.85 29.6438 167.574 29.203C167.291 28.7714 166.952 28.3785 166.567 28.0343C166.185 27.7006 165.76 27.4194 165.304 27.1984C164.639 26.8852 163.92 26.7061 163.186 26.6714H163.105H163.013H162.831C162.707 26.6714 162.582 26.6714 162.472 26.6851C161.593 26.7679 160.745 27.0527 159.995 27.5173C159.354 27.9211 158.804 28.4525 158.378 29.0784C158.047 29.5613 157.799 30.096 157.644 30.6606C157.614 30.7777 157.584 30.8898 157.557 30.9945C157.53 31.0991 157.522 31.2013 157.506 31.2935C157.475 31.4508 157.456 31.6104 157.449 31.7706C157.435 32.031 157.426 32.1693 157.426 32.1693C157.426 32.1693 157.436 32.3076 157.45 32.5667L157.446 32.568Z" fill="white"/>
<path d="M202.713 31.7681C202.718 31.608 202.735 31.4485 202.764 31.291C202.78 31.1975 202.79 31.0966 202.812 30.9895C202.835 30.8823 202.867 30.7727 202.896 30.6544C203.049 30.0862 203.286 29.5444 203.601 29.0472C204.015 28.4004 204.55 27.8388 205.175 27.3927C205.978 26.8281 206.911 26.4757 207.886 26.3683C208.862 26.2609 209.848 26.402 210.755 26.7785C211.265 26.9924 211.745 27.274 212.181 27.6157C212.621 27.979 213.01 28.4002 213.337 28.8678C213.663 29.3502 213.919 29.8772 214.094 30.4326C214.258 30.9914 214.347 31.5696 214.36 32.1519L214.336 32.6091C214.329 32.7558 214.312 32.9019 214.285 33.0464C214.241 33.3363 214.177 33.6228 214.093 33.9035C213.918 34.4592 213.663 34.9864 213.336 35.4683C212.699 36.4039 211.801 37.1307 210.753 37.5576C210.26 37.7614 209.741 37.8956 209.211 37.9563C208.961 37.987 208.709 38.0016 208.456 37.9999C208.329 37.9997 208.202 37.993 208.075 37.9799C207.951 37.9675 207.826 37.9662 207.708 37.945C206.798 37.8143 205.931 37.473 205.175 36.9484C204.55 36.5023 204.016 35.9407 203.602 35.2939C203.288 34.7972 203.05 34.2558 202.897 33.688C202.869 33.5634 202.84 33.4575 202.814 33.3516C202.788 33.2457 202.781 33.1436 202.765 33.0501C202.736 32.8926 202.719 32.7331 202.714 32.573C202.702 32.3126 202.695 32.173 202.695 32.173C202.695 32.173 202.7 32.0298 202.713 31.7681ZM202.713 32.568C202.72 32.7278 202.739 32.887 202.77 33.0439C202.786 33.1373 202.798 33.2382 202.821 33.3441C202.845 33.45 202.878 33.5609 202.908 33.678C203.063 34.2426 203.311 34.7773 203.642 35.2602C204.065 35.8873 204.613 36.4201 205.251 36.825C206.003 37.2924 206.854 37.5778 207.735 37.6585C207.851 37.6734 207.969 37.6672 208.088 37.6722C208.204 37.6784 208.32 37.6784 208.437 37.6722C209.175 37.6388 209.899 37.4597 210.568 37.1452C211.026 36.9229 211.452 36.6401 211.835 36.3043C212.219 35.9598 212.558 35.567 212.842 35.1357C213.118 34.692 213.336 34.2152 213.491 33.7166C213.563 33.4645 213.617 33.2077 213.653 32.948C213.677 32.8188 213.691 32.688 213.694 32.5568L213.713 32.183C213.709 31.6522 213.635 31.1243 213.491 30.6132C213.335 30.1176 213.116 29.6438 212.841 29.203C212.557 28.7714 212.219 28.3785 211.833 28.0343C211.452 27.7006 211.027 27.4194 210.57 27.1984C209.906 26.8852 209.186 26.7061 208.453 26.6714H208.372H208.28H208.098C207.973 26.6714 207.849 26.6714 207.739 26.6851C206.86 26.7679 206.012 27.0527 205.261 27.5173C204.621 27.9211 204.071 28.4525 203.645 29.0784C203.314 29.5613 203.066 30.096 202.911 30.6606C202.881 30.7777 202.851 30.8898 202.824 30.9945C202.796 31.0991 202.789 31.2013 202.773 31.2935C202.741 31.4508 202.722 31.6104 202.715 31.7706C202.702 32.031 202.693 32.1693 202.693 32.1693C202.693 32.1693 202.703 32.3076 202.717 32.5667L202.713 32.568Z" fill="white"/>
<path d="M202.246 31.7681C202.251 31.608 202.268 31.4485 202.297 31.291C202.313 31.1975 202.323 31.0966 202.346 30.9895C202.368 30.8823 202.401 30.7727 202.429 30.6544C202.582 30.0862 202.82 29.5444 203.134 29.0472C203.549 28.4004 204.083 27.8388 204.709 27.3927C205.511 26.8281 206.444 26.4757 207.419 26.3683C208.395 26.2609 209.382 26.402 210.288 26.7785C210.799 26.9924 211.279 27.274 211.714 27.6157C212.154 27.979 212.543 28.4002 212.87 28.8678C213.197 29.3502 213.452 29.8772 213.628 30.4326C213.792 30.9914 213.881 31.5696 213.893 32.1519L213.869 32.6091C213.862 32.7558 213.845 32.9019 213.818 33.0464C213.775 33.3363 213.711 33.6228 213.626 33.9035C213.451 34.4592 213.196 34.9864 212.869 35.4683C212.233 36.4039 211.334 37.1307 210.287 37.5576C209.794 37.7614 209.275 37.8956 208.745 37.9563C208.494 37.987 208.242 38.0016 207.99 37.9999C207.862 37.9997 207.735 37.993 207.609 37.9799C207.484 37.9675 207.36 37.9662 207.241 37.945C206.331 37.8143 205.464 37.473 204.709 36.9484C204.084 36.5023 203.55 35.9407 203.136 35.2939C202.821 34.7972 202.583 34.2558 202.431 33.688C202.402 33.5634 202.373 33.4575 202.347 33.3516C202.321 33.2457 202.315 33.1436 202.298 33.0501C202.27 32.8926 202.252 32.7331 202.247 32.573C202.235 32.3126 202.229 32.173 202.229 32.173C202.229 32.173 202.234 32.0298 202.246 31.7681ZM202.246 32.568C202.253 32.7278 202.272 32.887 202.303 33.0439C202.32 33.1373 202.331 33.2382 202.355 33.3441C202.378 33.45 202.412 33.5609 202.442 33.678C202.597 34.2426 202.845 34.7773 203.175 35.2602C203.598 35.8873 204.146 36.4201 204.785 36.825C205.537 37.2924 206.387 37.5778 207.269 37.6585C207.384 37.6734 207.503 37.6672 207.621 37.6722C207.737 37.6784 207.854 37.6784 207.97 37.6722C208.708 37.6388 209.432 37.4597 210.101 37.1452C210.559 36.9229 210.985 36.6401 211.368 36.3043C211.753 35.9598 212.092 35.567 212.376 35.1357C212.651 34.692 212.869 34.2152 213.025 33.7166C213.097 33.4645 213.151 33.2077 213.187 32.948C213.21 32.8188 213.224 32.688 213.228 32.5568L213.246 32.183C213.243 31.6522 213.168 31.1243 213.025 30.6132C212.868 30.1176 212.65 29.6438 212.374 29.203C212.091 28.7714 211.752 28.3785 211.367 28.0343C210.985 27.7006 210.56 27.4194 210.104 27.1984C209.439 26.8852 208.72 26.7061 207.986 26.6714H207.905H207.813H207.631C207.506 26.6714 207.382 26.6714 207.272 26.6851C206.393 26.7679 205.545 27.0527 204.795 27.5173C204.154 27.9211 203.604 28.4525 203.178 29.0784C202.847 29.5613 202.599 30.096 202.444 30.6606C202.414 30.7777 202.384 30.8898 202.357 30.9945C202.33 31.0991 202.322 31.2013 202.306 31.2935C202.275 31.4508 202.256 31.6104 202.249 31.7706C202.235 32.031 202.226 32.1693 202.226 32.1693C202.226 32.1693 202.236 32.3076 202.25 32.5667L202.246 32.568Z" fill="white"/>
<path d="M163.83 30.6066C163.934 30.6122 164.037 30.6284 164.137 30.6549C164.506 30.7475 164.834 30.9598 165.069 31.2586C165.232 31.4695 165.345 31.7145 165.399 31.9751C165.46 32.2744 165.44 32.5845 165.341 32.8733C165.227 33.1993 165.017 33.4827 164.738 33.6852C164.592 33.79 164.43 33.8718 164.26 33.9279C164.171 33.957 164.079 33.9782 163.986 33.9911C163.899 34.0043 163.811 34.012 163.723 34.0141C163.455 34.0141 163.191 33.9509 162.951 33.8296C162.712 33.7084 162.504 33.5325 162.345 33.3161C162.249 33.1797 162.171 33.0307 162.115 32.8733C162.058 32.7258 162.023 32.5709 162.01 32.4133C162.004 32.3413 162.004 32.269 162.01 32.1971C162.016 32.1225 162.026 32.0484 162.041 31.9751C162.096 31.717 162.208 31.4745 162.369 31.2655C162.604 30.9667 162.931 30.754 163.3 30.6606C163.4 30.6343 163.503 30.6181 163.606 30.6123H163.721L163.83 30.6066ZM163.611 30.6066C163.567 30.6083 163.524 30.6136 163.481 30.6227C163.422 30.6302 163.364 30.6437 163.308 30.6629C162.955 30.7674 162.658 31.0066 162.481 31.3288C162.368 31.5336 162.308 31.7631 162.305 31.997C162.305 32.0545 162.305 32.1235 162.316 32.1741C162.323 32.2387 162.335 32.3026 162.353 32.365C162.401 32.5451 162.484 32.7141 162.597 32.8621C162.71 33.0101 162.851 33.1343 163.012 33.2275C163.228 33.3527 163.472 33.4186 163.721 33.4184C163.786 33.417 163.85 33.412 163.914 33.4035C163.972 33.395 164.03 33.3834 164.087 33.369C164.207 33.335 164.323 33.2871 164.432 33.2264C164.648 33.0999 164.827 32.9196 164.952 32.7031C165.072 32.4944 165.136 32.2583 165.138 32.0176C165.141 31.7769 165.081 31.5397 164.965 31.3288C164.867 31.1476 164.73 30.9905 164.564 30.8688C164.436 30.7737 164.291 30.702 164.138 30.6572C164.082 30.638 164.024 30.6246 163.965 30.6169C163.921 30.6078 163.878 30.6024 163.834 30.6008L163.724 30.5939L163.611 30.6066Z" fill="white"/>
<path d="M201.253 33.1986L200.89 33.1303C200.657 33.0962 200.304 33.0237 199.87 32.973C198.991 32.8665 197.734 32.6692 196.233 32.531C195.483 32.4558 194.67 32.3786 193.813 32.3251C192.956 32.2715 192.05 32.1929 191.115 32.1576C190.181 32.1223 189.218 32.0719 188.24 32.0571L185.278 32.0282L182.325 32.0997C181.351 32.1182 180.4 32.2139 179.473 32.2638C178.547 32.3136 177.657 32.4422 176.82 32.5308C175.983 32.6194 175.187 32.7739 174.457 32.893C173.726 33.0122 173.064 33.2033 172.476 33.3488L170.968 33.8325C170.554 33.9976 170.238 34.1944 170.021 34.2997L169.687 34.4709L171.01 34.138L172.55 33.9274C173.15 33.8942 173.826 33.8581 174.562 33.7907L176.951 33.699L179.621 33.6483L185.434 33.5838L191.248 33.5193L196.322 33.4398C197.81 33.4011 199.037 33.3131 199.9 33.283C200.332 33.2693 200.671 33.2359 200.901 33.2213L201.253 33.1986Z" fill="white"/>
<path d="M200.066 29.9855C200.066 29.9855 198.449 29.9073 196.026 29.8705C195.419 29.8601 194.762 29.8486 194.073 29.8452C193.384 29.8417 192.647 29.8314 191.891 29.8337C191.135 29.836 190.351 29.8337 189.556 29.8337L187.144 29.8567L184.732 29.8992C183.936 29.9096 183.154 29.9383 182.397 29.9556C180.883 29.997 179.471 30.0487 178.262 30.1039C175.841 30.2074 174.226 30.3339 174.226 30.3339C174.226 30.3339 175.843 30.4133 178.267 30.4489C179.48 30.4719 180.894 30.4846 182.407 30.4846C183.165 30.4846 183.948 30.4846 184.742 30.4788L187.154 30.457L189.566 30.4133C190.361 30.4018 191.143 30.3742 191.9 30.3558C192.657 30.3374 193.393 30.3109 194.082 30.2868C194.772 30.2626 195.433 30.235 196.035 30.2086C198.453 30.1074 200.066 29.9855 200.066 29.9855Z" fill="white"/>
<path d="M201.726 34.6535C201.726 34.6535 201.739 34.5822 201.758 34.4592C201.776 34.3361 201.798 34.1648 201.821 33.9601C201.844 33.7554 201.862 33.5208 201.885 33.27C201.908 33.0193 201.928 32.7583 201.951 32.4938C201.963 32.3627 201.975 32.2316 201.987 32.1027C202 31.9739 202.009 31.8463 202.029 31.7244C202.048 31.6025 202.052 31.4817 202.072 31.3702C202.093 31.2586 202.097 31.1482 202.116 31.0505C202.136 30.9527 202.146 30.8596 202.156 30.7756C202.167 30.6916 202.185 30.6203 202.195 30.5617C202.217 30.4398 202.224 30.365 202.224 30.365C202.224 30.365 202.171 30.4145 202.088 30.5099C202.037 30.5656 201.989 30.6248 201.946 30.687C201.898 30.7595 201.844 30.8435 201.789 30.9366C201.732 31.0388 201.68 31.144 201.635 31.2517C201.584 31.3708 201.541 31.493 201.506 31.6174C201.467 31.7497 201.435 31.8841 201.411 32.0199C201.381 32.158 201.371 32.2994 201.352 32.4409C201.334 32.5823 201.334 32.7249 201.335 32.8641C201.336 33.0032 201.335 33.1412 201.353 33.2723C201.372 33.5132 201.41 33.7521 201.468 33.9865C201.511 34.1533 201.566 34.3167 201.633 34.4753C201.66 34.5365 201.691 34.596 201.726 34.6535Z" fill="white"/>
<path d="M202.572 28.6699C202.572 28.6699 202.615 28.6331 202.687 28.5618C202.759 28.4905 202.884 28.395 203.031 28.2697C203.445 27.9315 203.877 27.6171 204.326 27.3278C204.604 27.1507 204.912 26.9736 205.245 26.7999C205.409 26.7113 205.589 26.6389 205.763 26.5538L206.315 26.3341C206.507 26.2755 206.702 26.2122 206.901 26.1582L207.203 26.0961C207.304 26.0698 207.406 26.0499 207.51 26.0363C207.922 25.9722 208.34 25.9591 208.756 25.9972C208.972 26.0093 209.186 26.0389 209.397 26.0857L209.697 26.149C209.798 26.172 209.898 26.2099 209.997 26.2387L210.297 26.333L210.588 26.448C210.684 26.4871 210.782 26.5204 210.875 26.563L211.152 26.6964C211.243 26.7412 211.336 26.7803 211.422 26.8298C211.508 26.8792 211.596 26.9253 211.682 26.9724C211.857 27.0621 212.02 27.1645 212.18 27.2634C212.339 27.3623 212.491 27.4646 212.639 27.5624C212.787 27.6601 212.927 27.7602 213.061 27.8579C213.194 27.9557 213.32 28.0511 213.44 28.1431C213.559 28.2351 213.669 28.3226 213.777 28.4077C213.988 28.5779 214.168 28.7308 214.314 28.8596C214.609 29.1149 214.773 29.2713 214.773 29.2713L214.68 29.1391C214.618 29.0551 214.529 28.9275 214.403 28.7768C214.278 28.6262 214.127 28.4399 213.937 28.2409C213.478 27.746 212.974 27.2948 212.431 26.893C212.274 26.778 212.112 26.6573 211.936 26.548C211.762 26.4299 211.58 26.322 211.393 26.2249L211.107 26.0708C211.008 26.0225 210.906 25.9799 210.805 25.9328L210.498 25.7959L210.174 25.689C210.059 25.6545 209.96 25.6131 209.845 25.5843L209.5 25.5049C209.278 25.4538 209.051 25.4192 208.824 25.4014C208.355 25.3664 207.884 25.3884 207.421 25.467C207.192 25.5003 206.976 25.5705 206.757 25.6234C206.539 25.6763 206.338 25.7695 206.134 25.8431C205.929 25.9167 205.741 26.0144 205.559 26.111C205.378 26.2076 205.2 26.3065 205.035 26.4112C204.722 26.6052 204.422 26.8188 204.136 27.0506C203.711 27.3929 203.317 27.7728 202.959 28.1857C202.822 28.3403 202.693 28.5019 202.572 28.6699Z" fill="white"/>
<path d="M214.773 31.1137C214.773 31.1137 214.773 31.1908 214.773 31.3207C214.773 31.4507 214.773 31.6347 214.773 31.852C214.773 32.0694 214.785 32.3121 214.79 32.5846C214.79 32.7169 214.797 32.8537 214.801 32.9929C214.804 33.132 214.812 33.2712 214.809 33.4115C214.805 33.5518 214.814 33.6921 214.809 33.829C214.809 33.898 214.809 33.9658 214.809 34.0337C214.809 34.1015 214.809 34.1682 214.809 34.2338C214.809 34.366 214.809 34.4937 214.809 34.6144C214.809 34.7352 214.809 34.8525 214.801 34.9595C214.793 35.0664 214.801 35.1665 214.801 35.2562C214.801 35.3459 214.79 35.4218 214.788 35.4862C214.788 35.6161 214.788 35.6955 214.788 35.6955C214.788 35.6955 214.834 35.6345 214.903 35.5218C214.937 35.4643 214.981 35.3965 215.018 35.3137C215.055 35.2309 215.099 35.1354 215.142 35.0296C215.188 34.9173 215.226 34.802 215.257 34.6846C215.295 34.554 215.324 34.4211 215.345 34.2867C215.372 34.1434 215.389 33.9986 215.398 33.8531C215.413 33.7059 215.411 33.5553 215.412 33.4046C215.406 33.1108 215.376 32.8181 215.321 32.5294C215.273 32.2782 215.205 32.0313 215.118 31.7911C215.054 31.6201 214.977 31.4544 214.888 31.2954C214.854 31.2324 214.815 31.1718 214.773 31.1137Z" fill="white"/>
<path d="M220.701 32.7583L220.471 32.9607C220.328 33.0883 220.127 33.2689 219.878 33.4794C219.63 33.6898 219.344 33.9279 219.033 34.1786C218.875 34.2936 218.717 34.4327 218.547 34.5546C218.377 34.6765 218.213 34.8088 218.037 34.9273C217.862 35.0457 217.693 35.1688 217.518 35.2861C217.344 35.4034 217.174 35.5092 217.002 35.6184C216.831 35.7277 216.667 35.8197 216.51 35.9151C216.352 36.0106 216.202 36.098 216.061 36.1728C215.919 36.2475 215.791 36.328 215.674 36.389C215.556 36.4499 215.453 36.504 215.369 36.5477C215.199 36.6374 215.103 36.6972 215.103 36.6972C215.103 36.6972 215.218 36.688 215.405 36.6604C215.501 36.6454 215.618 36.6293 215.749 36.604C215.88 36.5787 216.029 36.5362 216.189 36.489L216.441 36.4177C216.526 36.3901 216.612 36.3533 216.702 36.32C216.89 36.2504 217.075 36.1709 217.255 36.0819C217.452 35.9906 217.644 35.8889 217.829 35.7771C218.018 35.6621 218.207 35.5471 218.388 35.4137L218.656 35.2171L218.913 35.0055C219.085 34.8686 219.238 34.7157 219.389 34.5719C219.657 34.3057 219.904 34.0184 220.127 33.7128C220.229 33.5806 220.311 33.4518 220.385 33.3379C220.458 33.224 220.515 33.1205 220.562 33.0343C220.614 32.9452 220.66 32.853 220.701 32.7583Z" fill="white"/>
<path d="M211.56 24.272C211.838 24.2266 212.121 24.2019 212.405 24.1981C212.545 24.1911 212.685 24.1911 212.826 24.1981C212.965 24.1986 213.104 24.206 213.243 24.2204L213.656 24.2595L214.063 24.3306C214.33 24.38 214.592 24.443 214.848 24.5189C215.108 24.5859 215.345 24.6975 215.592 24.7826C215.84 24.8677 216.053 25.0114 216.286 25.1174C216.402 25.1725 216.511 25.236 216.611 25.3071L216.925 25.5177C217.138 25.6502 217.334 25.7978 217.51 25.9586C217.705 26.1057 217.886 26.2633 218.052 26.4301L218.549 26.9378C218.707 27.1116 218.854 27.2918 218.988 27.4777C219.127 27.6618 219.284 27.8376 219.414 28.0259L219.775 28.6034C219.892 28.7973 220.031 28.9829 220.136 29.1851C220.333 29.5883 220.548 29.9858 220.756 30.3862L221.393 29.951C220.996 29.8003 220.59 29.6371 220.192 29.4739C219.795 29.3107 219.389 29.1517 218.991 28.9843C218.594 28.8169 218.2 28.6453 217.806 28.4737C217.413 28.3021 217.017 28.1305 216.633 27.9478C216.248 27.765 215.861 27.5823 215.477 27.3996C215.092 27.2168 214.72 27.0173 214.353 26.8151C214.173 26.7132 213.98 26.617 213.812 26.5068C213.644 26.3966 213.45 26.2975 213.27 26.1845L212.755 25.84L212.273 25.4661L212.661 25.9055C212.806 26.045 212.959 26.1845 213.107 26.3143C213.255 26.444 213.425 26.5723 213.588 26.7007C213.75 26.829 213.92 26.9462 214.092 27.0662C214.263 27.1861 214.431 27.3089 214.613 27.4177L215.155 27.7553L215.697 28.0803C215.878 28.1891 216.071 28.2868 216.257 28.39C216.633 28.5978 217.015 28.7931 217.398 28.9898C217.781 29.1865 218.177 29.3679 218.57 29.5478C219.363 29.9119 220.156 30.2607 220.989 30.5815L222.06 31L221.628 30.1449C221.417 29.7264 221.216 29.3079 220.996 28.8894C220.889 28.6802 220.739 28.4835 220.613 28.2812L220.217 27.6772C220.075 27.4791 219.907 27.2908 219.75 27.0996C219.596 26.907 219.429 26.7207 219.249 26.5416L218.684 26.013C218.494 25.8372 218.287 25.6735 218.063 25.5233C217.853 25.3603 217.625 25.2119 217.382 25.0797L217.021 24.8788C216.904 24.8079 216.779 24.7453 216.647 24.6919C216.382 24.5859 216.125 24.4673 215.849 24.3822C215.574 24.2962 215.293 24.2217 215.007 24.159C214.722 24.0985 214.431 24.0566 214.137 24.0335L213.698 24H213.259C213.113 24.0011 212.968 24.01 212.824 24.0265C212.679 24.0362 212.535 24.053 212.392 24.0767C212.107 24.12 211.828 24.1854 211.56 24.272Z" fill="white"/>
<path d="M217.452 27.1231C217.452 27.1231 217.525 27.1518 217.643 27.2024L217.851 27.3025C217.932 27.3381 218.017 27.391 218.111 27.4382C218.205 27.4853 218.304 27.5451 218.405 27.613C218.506 27.6808 218.612 27.7464 218.72 27.8166C218.828 27.8867 218.934 27.9718 219.046 28.0466C219.157 28.1213 219.265 28.211 219.369 28.3042C219.472 28.3973 219.586 28.4778 219.684 28.5744C219.783 28.671 219.893 28.7515 219.985 28.847C220.077 28.9424 220.176 29.0252 220.268 29.1081C220.36 29.1909 220.438 29.2783 220.517 29.3519C220.596 29.4255 220.674 29.4945 220.736 29.5589C220.798 29.6233 220.859 29.6739 220.909 29.7199C221.006 29.8073 221.07 29.8556 221.07 29.8556C221.07 29.8556 221.051 29.7808 221.009 29.6543C220.986 29.5922 220.96 29.514 220.925 29.4243L220.87 29.2863L220.796 29.1414C220.742 29.0402 220.681 28.9321 220.616 28.8194C220.55 28.7067 220.463 28.5986 220.376 28.4836C220.286 28.3662 220.189 28.2548 220.085 28.1501C219.979 28.0393 219.866 27.9349 219.748 27.8373C219.633 27.7372 219.498 27.6521 219.373 27.5647C219.245 27.4871 219.113 27.4165 218.978 27.3531C218.851 27.2933 218.72 27.2422 218.586 27.2001C218.467 27.162 218.345 27.1317 218.221 27.1093C218.036 27.0779 217.848 27.0694 217.661 27.084C217.59 27.0901 217.52 27.1032 217.452 27.1231Z" fill="white"/>
<path d="M215.877 31.1137L216.416 31.0562C216.76 31.0194 217.245 30.9677 217.827 30.9136C218.409 30.8596 219.091 30.8067 219.805 30.8078C220.162 30.804 220.519 30.8349 220.871 30.8998C221.027 30.9254 221.177 30.9796 221.314 31.0597C221.36 31.0902 221.399 31.1293 221.429 31.1747C221.44 31.1931 221.44 31.2138 221.453 31.231V31.2655V31.2816V31.2908V31.2966C221.453 31.223 221.453 31.2793 221.453 31.2632C221.446 31.3069 221.445 31.3725 221.436 31.3989C221.42 31.3989 221.436 31.3989 221.42 31.4185C221.39 31.4629 221.351 31.4999 221.305 31.5266C221.168 31.6064 221.017 31.6598 220.86 31.6842C220.508 31.7469 220.151 31.7762 219.793 31.7716C219.077 31.7716 218.398 31.7141 217.814 31.6646C217.231 31.6151 216.745 31.5599 216.403 31.5231L215.864 31.4668C215.864 31.4668 216.049 31.5369 216.379 31.6404C216.708 31.744 217.183 31.8785 217.757 32.0039C218.047 32.0683 218.362 32.1315 218.7 32.181C219.056 32.2379 219.414 32.2763 219.774 32.296C220.171 32.326 220.57 32.3102 220.964 32.2488C221.192 32.2136 221.412 32.1356 221.612 32.0188C221.735 31.9463 221.839 31.8463 221.917 31.7267C221.964 31.6501 221.998 31.5667 222.019 31.4794C222.029 31.4281 222.036 31.3763 222.04 31.3242C222.045 31.1703 222.007 31.018 221.932 30.8839C221.856 30.7497 221.745 30.6387 221.612 30.5629C221.412 30.4455 221.192 30.3675 220.964 30.3329C220.571 30.2692 220.171 30.2523 219.774 30.2822C219.414 30.3014 219.056 30.3397 218.7 30.3973C218.362 30.4467 218.047 30.5123 217.757 30.5744C217.183 30.6997 216.703 30.8366 216.379 30.9389C216.055 31.0413 215.877 31.1137 215.877 31.1137Z" fill="white"/>
<path d="M211.56 23.9977C211.56 23.9977 211.374 23.9124 211.039 23.7918C210.871 23.7326 210.665 23.6609 210.427 23.5904C210.19 23.5198 209.919 23.4402 209.62 23.3719C209.322 23.3036 208.997 23.2285 208.651 23.1626C208.305 23.0966 207.937 23.0363 207.554 22.9919C207.172 22.9475 206.777 22.894 206.372 22.8781L205.761 22.844L205.145 22.8349C204.734 22.8269 204.322 22.8519 203.918 22.8701C203.514 22.8883 203.118 22.9429 202.729 22.9839C202.34 23.0249 201.98 23.0977 201.633 23.1569C201.46 23.1899 201.29 23.2149 201.128 23.2513L200.665 23.3708C200.367 23.4481 200.094 23.5141 199.857 23.5915C199.62 23.6689 199.417 23.744 199.249 23.8043C198.914 23.926 198.726 24 198.726 24C198.726 24 198.931 23.9738 199.282 23.9181C199.458 23.8896 199.67 23.8566 199.913 23.8123C200.156 23.7679 200.434 23.7485 200.734 23.6985L201.2 23.6359L201.701 23.5904C202.046 23.5619 202.407 23.5164 202.784 23.5005C203.161 23.4846 203.547 23.4493 203.942 23.4436C204.337 23.4379 204.737 23.4151 205.138 23.4288H205.733L206.327 23.4516C206.722 23.4629 207.11 23.488 207.486 23.5107C207.861 23.5335 208.225 23.5676 208.57 23.5995C208.915 23.6313 209.241 23.6655 209.54 23.7053C210.142 23.7758 210.643 23.8521 210.994 23.9067L211.401 23.9727L211.56 23.9977Z" fill="white"/>
<path d="M198.881 23.1089C198.881 23.1089 198.737 22.9397 198.452 22.6588C198.166 22.3778 197.774 21.9994 197.268 21.5795C197.016 21.3704 196.742 21.1428 196.441 20.9248C196.141 20.7067 195.828 20.4683 195.494 20.246C195.16 20.0238 194.811 19.7986 194.453 19.5841C194.095 19.3696 193.723 19.1676 193.349 18.9745C192.974 18.7813 192.599 18.5933 192.218 18.4455C191.836 18.2976 191.467 18.1355 191.097 18.0169C190.726 17.8982 190.376 17.7737 190.033 17.7028C189.69 17.6318 189.373 17.5289 189.07 17.4949C188.767 17.4609 188.493 17.4121 188.248 17.3833C188.004 17.3544 187.788 17.3646 187.613 17.3596C187.261 17.3532 187.06 17.3612 187.06 17.3612C187.06 17.3612 187.254 17.4315 187.594 17.5372L188.205 17.7248C188.437 17.8113 188.701 17.9073 188.987 18.0025C189.127 18.0468 189.279 18.1028 189.43 18.1623L189.902 18.3473C190.227 18.4639 190.562 18.6288 190.912 18.7741C191.263 18.9195 191.615 19.0995 191.983 19.2616C192.35 19.4237 192.711 19.6226 193.078 19.8021C193.445 19.9816 193.808 20.1838 194.167 20.3688C194.526 20.5538 194.878 20.7511 195.214 20.9507L196.19 21.5106L197.063 22.0215L198.881 23.1089Z" fill="white"/>
<path d="M184.944 19.1878C184.944 19.1878 184.726 19.1763 184.343 19.1717C183.961 19.1671 183.414 19.1717 182.76 19.1947C182.432 19.2062 182.077 19.22 181.704 19.2464C181.331 19.2729 180.934 19.2936 180.527 19.3327C180.119 19.3718 179.697 19.4063 179.27 19.4592C178.843 19.5121 178.41 19.5673 177.977 19.6271C177.544 19.6869 177.113 19.7651 176.688 19.841C176.263 19.9169 175.85 20.0089 175.448 20.0986C174.713 20.2608 173.99 20.476 173.286 20.7426C172.668 20.983 172.168 21.2578 171.888 21.5477C171.776 21.6539 171.696 21.7904 171.659 21.941C171.649 21.9785 171.646 22.0174 171.65 22.056C171.65 22.0824 171.65 22.0962 171.65 22.0962L171.658 22.0629C171.662 22.023 171.673 21.9841 171.69 21.9479C171.754 21.8207 171.85 21.7128 171.969 21.6351C172.267 21.4177 172.773 21.236 173.395 21.0681C174.018 20.9002 174.758 20.7553 175.555 20.6138C175.953 20.5402 176.368 20.4816 176.788 20.4091C177.209 20.3367 177.637 20.278 178.065 20.2182C178.494 20.1584 178.923 20.0894 179.346 20.0307L180.589 19.8536L181.751 19.688L182.793 19.5339C183.439 19.4385 183.977 19.3511 184.354 19.2878L184.944 19.1878Z" fill="white"/>
<path d="M171.958 22.7448L172.21 22.8598C172.379 22.9254 172.628 23.0209 172.949 23.1382C173.269 23.2555 173.67 23.3509 174.127 23.4832L174.482 23.5798C174.606 23.6168 174.732 23.6468 174.86 23.6695L175.68 23.827L176.575 23.9972L177.047 24.0835L177.537 24.1421C178.2 24.2192 178.898 24.3043 179.623 24.3802C180.348 24.4757 181.099 24.4952 181.862 24.5332L184.177 24.6332C184.565 24.6551 184.952 24.6459 185.339 24.639L186.488 24.6217C187.251 24.6125 188.003 24.5872 188.729 24.5711L189.799 24.5435C190.144 24.5343 190.488 24.4952 190.821 24.4734C191.485 24.4239 192.113 24.3699 192.692 24.3181C195.008 24.1203 196.546 23.934 196.546 23.934C196.546 23.934 194.993 23.919 192.675 23.9754C192.101 23.988 191.468 24.003 190.804 24.0271C190.472 24.0271 190.132 24.0582 189.783 24.0501H188.717C187.993 24.0501 187.246 24.0398 186.487 24.0501L185.338 24.0582C184.953 24.0582 184.567 24.0662 184.183 24.0421L181.885 23.9639C181.127 23.9317 180.379 23.942 179.661 23.8638C178.942 23.8029 178.245 23.7546 177.584 23.7074L177.095 23.6718L176.625 23.6097L175.731 23.4947L174.908 23.3923C174.781 23.3778 174.654 23.3563 174.529 23.3279L174.172 23.2601L173.525 23.1451C173.325 23.106 173.138 23.083 172.978 23.0301L172.218 22.8345L171.958 22.7448Z" fill="white"/>
<path d="M175.342 21.167C175.335 21.2081 175.33 21.2496 175.328 21.2912C175.321 21.3953 175.321 21.4999 175.328 21.604C175.357 21.9016 175.427 22.1937 175.539 22.4711C175.648 22.7496 175.798 23.0104 175.983 23.2451C176.049 23.3266 176.12 23.4034 176.197 23.4751C176.227 23.5038 176.259 23.5307 176.293 23.5556C176.3 23.5145 176.305 23.4731 176.307 23.4314C176.314 23.3273 176.314 23.2228 176.307 23.1186C176.28 22.8207 176.208 22.5285 176.096 22.2515C175.986 21.9734 175.836 21.7127 175.651 21.4775C175.585 21.3964 175.514 21.3196 175.439 21.2475C175.408 21.2188 175.376 21.1919 175.342 21.167Z" fill="white"/>
<path d="M170.576 23.5579C170.516 23.5727 170.459 23.5952 170.406 23.6246C170.342 23.6558 170.281 23.6944 170.226 23.7396C170.15 23.8014 170.082 23.8733 170.025 23.9535C169.998 24.0019 169.97 24.0536 169.942 24.11C169.92 24.1724 169.902 24.2362 169.889 24.3009C169.865 24.4447 169.876 24.592 169.92 24.731L169.952 24.846C169.966 24.8793 169.985 24.9092 170.002 24.9426C170.037 25.0082 170.076 25.0719 170.117 25.1335C170.205 25.2443 170.303 25.3471 170.409 25.4406C170.512 25.5275 170.622 25.6067 170.736 25.6775C170.851 25.7419 170.966 25.8005 171.073 25.8546C171.18 25.9008 171.289 25.9415 171.4 25.9765C171.506 26.0098 171.605 26.0432 171.699 26.0627C171.851 26.0922 172.004 26.1141 172.158 26.1283C172.273 26.1375 172.336 26.1363 172.336 26.1363C172.336 26.1363 172.288 26.0892 172.201 26.0213C172.114 25.9535 171.988 25.8534 171.834 25.7499C171.757 25.6982 171.681 25.6349 171.594 25.5774L171.327 25.3969C171.239 25.3302 171.15 25.2634 171.055 25.2002C170.959 25.1369 170.883 25.0599 170.795 24.9932C170.753 24.9619 170.714 24.9261 170.68 24.8862C170.645 24.8483 170.607 24.8138 170.565 24.7781C170.524 24.7425 170.511 24.7034 170.481 24.6631C170.468 24.6447 170.45 24.6275 170.439 24.6091C170.427 24.5907 170.422 24.5723 170.413 24.5539C170.372 24.4854 170.345 24.4102 170.332 24.3319C170.332 24.294 170.325 24.256 170.324 24.2169C170.323 24.1778 170.334 24.141 170.337 24.1019C170.352 24.0285 170.374 23.9565 170.402 23.8868C170.426 23.8277 170.453 23.7701 170.484 23.7143C170.539 23.6097 170.576 23.5579 170.576 23.5579Z" fill="white"/>
<path d="M187.06 17.1153C187.06 17.1153 186.536 17.077 185.619 17.0433C184.702 17.0097 183.39 16.9821 181.816 17.0143L180.588 17.0449L179.275 17.1091C178.373 17.1673 177.422 17.23 176.44 17.3539C175.458 17.4778 174.442 17.6217 173.415 17.8527C172.382 18.1036 171.366 18.4333 170.373 18.8395C169.379 19.2403 168.408 19.6856 167.453 20.1094L166.034 20.7382C165.564 20.9355 165.103 21.1421 164.642 21.3195L163.955 21.5919L163.28 21.8412C162.837 22.0141 162.396 22.1472 161.968 22.3002C161.11 22.5756 160.294 22.8174 159.531 23.0086L158.973 23.1524L158.435 23.2702C158.084 23.3452 157.748 23.4232 157.441 23.4875C156.813 23.5946 156.267 23.7139 155.813 23.7782L154.393 24L155.834 23.9403C156.293 23.9189 156.848 23.8547 157.484 23.7873C157.803 23.7537 158.139 23.6971 158.497 23.6481L159.047 23.5655L159.617 23.4553C160.397 23.3115 161.236 23.1188 162.114 22.8709C162.553 22.7439 163.006 22.6215 163.461 22.4655L164.149 22.2375L164.847 21.9805C165.784 21.6316 166.743 21.2446 167.703 20.8223C168.663 20.4 169.635 19.9732 170.612 19.5861C171.572 19.1831 172.556 18.8544 173.557 18.6024C174.551 18.3759 175.541 18.1755 176.51 18.047C177.48 17.9185 178.417 17.7945 179.309 17.6982C180.202 17.6018 181.049 17.5299 181.831 17.4671C183.394 17.3417 184.702 17.256 185.616 17.1994L187.06 17.1153Z" fill="white"/>
<path d="M162.56 21.6667C162.56 21.6667 162.441 21.6667 162.25 21.6667C162.059 21.6667 161.778 21.6667 161.443 21.6968C160.777 21.7322 159.901 21.8396 159.03 21.9785C158.595 22.0505 158.162 22.1265 157.757 22.2064C157.352 22.2864 156.974 22.361 156.65 22.4331C156.489 22.4619 156.339 22.4973 156.208 22.5248C156.077 22.5523 155.961 22.5693 155.864 22.5877C155.675 22.61 155.56 22.6283 155.56 22.6283C155.56 22.6283 155.665 22.6689 155.861 22.7239C155.958 22.7423 156.077 22.7659 156.215 22.7855C156.353 22.8052 156.507 22.8143 156.676 22.8235C157.058 22.8409 157.44 22.8352 157.822 22.8065C158.03 22.7894 158.246 22.7724 158.463 22.7449C158.68 22.7174 158.9 22.6873 159.12 22.6532C159.926 22.5248 160.722 22.3335 161.504 22.0807C161.825 21.9785 162.094 21.875 162.274 21.799C162.453 21.723 162.56 21.6667 162.56 21.6667Z" fill="white"/>
<path d="M154.766 22.9691C154.766 22.9691 154.743 23.0404 154.715 23.1646C154.688 23.2888 154.653 23.4659 154.625 23.6787C154.562 24.1921 154.543 24.7099 154.567 25.2266C154.588 25.7438 154.652 26.2582 154.761 26.7642C154.808 26.9724 154.858 27.1461 154.897 27.2668C154.936 27.3876 154.964 27.4566 154.964 27.4566C154.964 27.4566 154.987 27.3864 155.016 27.2611C155.045 27.1357 155.078 26.9597 155.107 26.7481C155.23 25.719 155.183 24.6766 154.969 23.6626C154.922 23.4544 154.873 23.2808 154.834 23.16C154.795 23.0392 154.766 22.9691 154.766 22.9691Z" fill="white"/>
<path d="M157.332 35.3286L157.217 35.1481L156.927 34.68C156.813 34.4879 156.676 34.2683 156.539 34.0291C156.468 33.9141 156.4 33.7876 156.329 33.6634C156.258 33.5392 156.19 33.408 156.117 33.2815C156.043 33.155 155.982 33.0228 155.911 32.8974C155.84 32.7721 155.781 32.6421 155.715 32.5214C155.648 32.4006 155.594 32.2776 155.534 32.1637C155.474 32.0498 155.419 31.9406 155.37 31.8405C155.321 31.7405 155.263 31.6496 155.224 31.5668C155.185 31.484 155.144 31.4116 155.109 31.3518C155.044 31.2368 154.994 31.1655 154.994 31.1655C154.994 31.1655 154.988 31.2448 154.994 31.3817C154.995 31.5712 155.009 31.7603 155.039 31.9475C155.06 32.0625 155.075 32.189 155.11 32.319C155.146 32.4489 155.18 32.5858 155.225 32.7261C155.27 32.8664 155.327 33.0055 155.386 33.1481C155.445 33.2907 155.519 33.4287 155.592 33.5679C155.664 33.7071 155.746 33.8416 155.835 33.9681C156.068 34.3178 156.348 34.6339 156.667 34.9077C156.813 35.0299 156.969 35.1391 157.134 35.2343C157.198 35.2701 157.264 35.3016 157.332 35.3286Z" fill="white"/>
<path d="M155.494 28.3099C155.426 28.271 155.353 28.2401 155.278 28.2179C155.189 28.1878 155.097 28.1677 155.004 28.1581C154.876 28.1429 154.747 28.1515 154.623 28.1834C154.456 28.228 154.307 28.3246 154.197 28.4594C154.17 28.4974 154.142 28.5388 154.117 28.5802C154.092 28.6216 154.079 28.6676 154.061 28.7124C154.042 28.7562 154.029 28.8022 154.022 28.8493L154.008 28.9194L154.001 28.9539V28.9723C154.001 28.9539 154.001 29.0022 154.001 28.9976V29.0045V29.1195C154 29.1402 154 29.161 154.001 29.1816L154.014 29.2679C154.029 29.3784 154.061 29.4859 154.109 29.5865C154.208 29.7744 154.355 29.933 154.535 30.0465C154.696 30.1517 154.873 30.2295 155.06 30.2765C155.236 30.3246 155.419 30.3455 155.602 30.3386C155.772 30.3294 155.94 30.2945 156.1 30.2351C156.253 30.1804 156.39 30.0892 156.499 29.9694C156.548 29.9152 156.59 29.8549 156.624 29.79C156.649 29.7306 156.667 29.669 156.68 29.606C156.689 29.5532 156.693 29.4997 156.692 29.4461C156.692 29.399 156.68 29.3564 156.675 29.3173C156.663 29.2595 156.646 29.2029 156.624 29.1483L156.601 29.0919C156.601 29.0919 156.601 29.1126 156.59 29.1517C156.578 29.1908 156.576 29.2472 156.556 29.3139C156.546 29.3461 156.533 29.3806 156.521 29.4197C156.508 29.4588 156.483 29.491 156.465 29.5347C156.44 29.5705 156.413 29.6043 156.384 29.6359C156.349 29.6665 156.31 29.6931 156.269 29.7153C156.06 29.8112 155.828 29.8455 155.601 29.8142C155.47 29.7977 155.341 29.7677 155.216 29.7245C155.089 29.6844 154.969 29.628 154.857 29.5565C154.761 29.4985 154.679 29.4199 154.616 29.3265C154.594 29.2844 154.575 29.2406 154.56 29.1954L154.548 29.1667C154.544 29.1489 154.541 29.1308 154.541 29.1126L154.529 28.9976V29.0126V28.9781V28.9355C154.526 28.9088 154.526 28.8817 154.529 28.855C154.529 28.8309 154.537 28.8033 154.543 28.7803C154.552 28.759 154.56 28.7371 154.567 28.7147C154.607 28.6302 154.669 28.5585 154.747 28.5077C154.906 28.4194 155.08 28.3627 155.26 28.341C155.408 28.3145 155.494 28.3099 155.494 28.3099Z" fill="white"/>
<path d="M168.95 28.5204C168.95 28.5204 168.925 28.4813 168.879 28.4054C168.833 28.3295 168.764 28.226 168.659 28.0971C168.553 27.9683 168.429 27.8165 168.27 27.6509L168.011 27.3945C167.917 27.3071 167.811 27.222 167.704 27.1288L167.353 26.8586C167.226 26.7723 167.092 26.6883 166.955 26.5986L166.514 26.3537C166.358 26.2801 166.196 26.2111 166.032 26.1386L165.515 25.9569C165.336 25.9098 165.153 25.8626 164.968 25.8201L164.403 25.735C164.213 25.7166 164.02 25.7108 163.829 25.6982H163.757H163.708H163.674L163.536 25.7051L163.262 25.7177C163.082 25.7177 162.883 25.7557 162.694 25.7764C162.508 25.7981 162.323 25.8323 162.142 25.8787C161.964 25.9174 161.788 25.965 161.615 26.0213C161.446 26.0695 161.28 26.1275 161.118 26.195C160.958 26.2548 160.807 26.3295 160.659 26.3997C159.973 26.7305 159.351 27.1798 158.821 27.7268C158.706 27.8418 158.628 27.9465 158.573 28.0143C158.518 28.0822 158.493 28.1213 158.493 28.1213L158.596 28.0373C158.664 27.9844 158.769 27.9108 158.899 27.8177C159.261 27.5686 159.641 27.3465 160.035 27.153C160.159 27.0955 160.283 27.0299 160.419 26.9782C160.555 26.9264 160.689 26.8632 160.836 26.8102C160.983 26.7573 161.126 26.701 161.283 26.6596C161.439 26.6182 161.593 26.5618 161.757 26.5285C161.92 26.4849 162.085 26.4504 162.252 26.425C162.422 26.3985 162.597 26.364 162.762 26.3502C162.935 26.3266 163.11 26.3116 163.285 26.3054L163.56 26.2973H163.698H163.753H163.82C163.994 26.3065 164.171 26.3065 164.346 26.3203L164.864 26.3882C165.033 26.4273 165.202 26.4618 165.368 26.494L165.853 26.6331C166.009 26.6906 166.161 26.7481 166.312 26.8022L166.744 26.992L167.143 27.1978L167.507 27.4083C167.736 27.5543 167.942 27.6923 168.121 27.8234C168.3 27.9545 168.452 28.0764 168.581 28.1811C168.709 28.2858 168.799 28.3686 168.861 28.4284L168.95 28.5204Z" fill="white"/>
</svg>
